/* XPM */
static char * city_b_xpm[] = {
"64 80 36 1",
" 	c None",
".	c #000000",
"+	c #BD4646",
"@	c #A54D4D",
"#	c #C43C3C",
"$	c #854C4C",
"%	c #974D4D",
"&	c #9D5D5D",
"*	c #B34F4F",
"=	c #AD4949",
"-	c #A45353",
";	c #964F4F",
">	c #877C95",
",	c #9F8683",
"'	c #A19AB9",
")	c #BE9D9E",
"!	c #868674",
"~	c #6C726D",
"{	c #AAAE96",
"]	c #6981B2",
"^	c #787182",
"/	c #7E8AA7",
"(	c #637799",
"_	c #5D6B83",
":	c #6C759A",
"<	c #978FAA",
"[	c #837F7E",
"}	c #797565",
"|	c #999A82",
"1	c #59524B",
"2	c #917973",
"3	c #61635C",
"4	c #6E6D6F",
"5	c #4A1D0F",
"6	c #646554",
"7	c #526489",
"                                                                ",
"                       +@                   #$                  ",
"                     +++@@%               ###&&&                ",
"                   +++++%%@%%           #####&&&&&              ",
"                 +++++++@%@@%%@       #######&&$$&&&            ",
"               +++++++++@%@%@@%%%     #######$$&&&&&            ",
"             +++++++++@+@@%%@%@%@%%   #######&&$$&&&            ",
"           +++++++++++++%%@@@%@@%%%%% #######&&&&$$&            ",
"***=*=====*+++++++++++++@%%%@@@@%%@%% #######&&&&$$$****==****==",
"-;-;;;;;;;-+++++++++++++@@@%%%@%@@@@@ #######&&$$$$$;;;-;;;--;;;",
"**=**=**=**+++++++++++++@%@@%%%%%%%%@ #######$$&&&&&**=*****==*=",
"--;--;--;--++++++++++++>>@%%%%%%%%@%% ######,,&&$&&&--;-----;;-;",
"*==*****=**++++++++++>>''>>@@@@%@%%%@ ####,,)),,&$$$*==*=*****=*",
"-;;-----;;-++++++++>>''''''>>@@@%%@@@ ##,,)))))),,$&-;;-;;-;;-;-",
"!!!!!!!!!!!++++++>>''''''''''>>%%%%%%  ~,,,,,,,,,,~  !!!!!!!!!!!",
"{{{{]]]{{]]++++^^>>>>>>>>>>>>>>^^%@@@  ))/((/))/(()  {{]]]]{{]]]",
"{{{{]]]{{]]++__:':::''::::'':::<:__%@[[))(/(())(/()[[{{]]]]{{]]]",
"{{{{{{{{}}}}>:::':::''::::<<:::****==****==***=*=====*=*=*==***=",
"{{****==****==***=*=====*=*=*==;;;-;;;--;;;-;-;;;;;;;-;-;-;;--;;",
"||;;;-;;;--;;;-;-;;;;;;;-;-;-;;**=*****==*=**=**=**=***=**==*=**",
"}}**=*****==*=**=**=**=***=**==--;-----;;-;--;--;--;--;;--;;-;--",
"||--;-----;;-;--;--;--;--;;--;;*==*=*****=**==*****=**==**=*=***",
"!!*==*=*****=**==*****=**==**=*-;;-;;-;;-;--;;-----;;-;;--;-;--;",
"!!-;;-;;-;;-;-+@;-----;;-;;--;-;!!!!!!!!!!!!!!!!!!!!!!!!!!!!!!!!",
"}}}!!!!!!!!!+++@@%!!!!!!!!!!!!!!{#$]]]{{]]]{{{{]]]{{]]]]{{]]]{{}",
"}}}{{]]]]{+++++%%@%%]{{]]]]{{]!###&&&]{{]]]{{{{]]]{{]]]]{{]]]{{!",
"1!!{{]]]+++++++@%@@%%@{]]]]{{#####&&&&&{{{{{{{{{{{{}}}}}}{{{{{{!",
"1!#$}}+++++++++@%@%@@%%%}}}#######&&$$&&&{{{{{#${{{}}}}}}{{{{{{!",
"###&&&+++++++@+@@%%@%@%@%%}#######$$&&&&&|||###&&&|}}}}}}||||||!",
"###&&&&&+++++++%%@@@%@@%%%%#######&&$$&&&}#####&&&&&}}}}}}}}}}##",
"###&&$$&&&+++++@%%%@@@@%%@%#######&&&&$$#######&&$$&&&||#$||####",
"###$$&&&&&+++++@@@%%%@%@@@@#######&&&&$$#######$$&&&&&###&&&####",
"###&&$$&&&+++++@%@@%%%%%%%%#######&&$$$$#######&&$$&#####&&&####",
"###&&&&$$&++++>>@%%%%%%%%@%#######$$&&&&#######&&&#######&&$####",
"###&&&&$$$++>>''>>@@@@%@%%%######,,&&$&&#######&&&#######$$&####",
"###&&$$$$$>>''''''>>@@@%%@@####,,)),,&$$#######&&$#######&&$####",
"###$$&&&&&''''''''''>>%%%%%##,,)))))),,$#######$$&#######&&&####",
"##,,&&$&&&>>>>>>>>>>>>^^%@@@~,,,,,,,,,,~######,,&&#######&&&####",
",,)),,&$$$:'':+@:'':::<:__%@))/((/))/(()####,,)),,#######&&$####",
")))))),,$&:'+++@@%<:::<:::[[))(/(())(/()##,,))))))#######$$&##,,",
",,,,,,,,~<+++++%%@%%<<<<<<[[))))))))))))[~,,,,,,,,######,,&&$~,,",
"((/))/((+++++++@%@@%%@<<<<[[))))))))))))[))/((/))/####,,)),,&))/",
"/(())(+++++++++@%@%@@%%%^^[[)))****==****==***=*=====*=*=*==***=",
"))))+++++++++@+@@%%@%@%@%%~~222;;;-;;;--;;;-;-;;;;;;;-#$;-;;--;;",
"))+++++++++++++%%@@@%@@%%%%%,,,**=*****==*=**=**=**=###&&&==*=**",
"))+++++++++++++@%%%@@@@%%@%%,,,--;-----;+@;--;--;-#####&&&&&-;--",
"22+++++++++++++@@@%%%@%@@@@@,,,*==*=**+++@@%==**#######&&$$&&&**",
",,+++++++++++++@%@@%%%%%%%%@222-;;-;+++++%%@%%--#######$$&&&&&-;",
"@,++++++++++++>>@%%%%%%%%@%+@222!!+++++++@%@@%%@#######&&$$&&&!+",
"@@%+++++++++>>''>>@@@@%@%+++@@%3+++++++++@%@%@@%%%#####&&&&$$+++",
"%%@%%+++++>>''''''>>@@@+++++%%@%%++++++@+@@%%@%@%@%%###&&&&+++++",
"@%@@%%@+>>''''''''''>+++++++@%@@%%@++++++%%@@@%@@%%%%%#&&+++++++",
"@%@%@@%%%>>>>>>>>>>+++++++++@%@%@@%%%++++@%%%@@@@%%@%%#+++++++++",
"@@%%@%@%@%%''::::+++++++++@+@@%%@%@%@%%++@@@%%%@%@@@@+++++++++@+",
"%%@@@%@@%%%%%::+++++++++++++%%@@@%@@%%%%%@%@@%%%%%%+++++++++++++",
"@%%%@@@@%%@%%<<+++++++++++++@%%%@@@@%%@%%>@%%%%%%%%+++++++++++++",
"@@@%%%@%@@@@@<<+++++++++++++@@@%%%@%@@@@@'>>@@@@%@%+++++++++++++",
"@%@@%%%%%%%%@^^+++++++++++++@%@@%%%%%%%%@'''>>@@@%%+++++++++++++",
">@%%%%%%%%@%%:_++++++++++++>>@%%%%%%%%@%%'''''>>%%%++#$++++++++>",
"'>>@@@@%@%%%@_:++++++++++>>''>>@@@@%@%%%@>>>>>>>^^%###&&&++++>>'",
"'''>>@@@%%@@@>>++++++++>>''''''>>@@@%%@@@::'':::<#####&&&&&>>'''",
"'''''>>%%%%%%>>++++++>>''''''''''>>%%%%%%::<<::#######&&$$&&&'''",
">>>>>>>^^%@@#$4++++^^>>>>>>>>>>>>>>^^%@@@<<<<<<#######$$&&&&&>>>",
"::'':::<:_###&&&+__:':::''::::'':::<:__%@<<<<<<#######&&$$&&&'::",
"::<<:::<#####&&&&&::':::''::::<<:::<:::>^^^^^^^#######&&&&$$&'::",
"<<<<<<#######&&$$&&&<<<<<<<<<<<<<<<<<<<<___>>__#######&&&&$$$<<<",
"<<<<<<#######$$&&&&&<<<****==****==***=*=====*=*=*==***=$$$$$<<<",
"^^^^^^#######&&$$&&&^^^;;;-;;;--;;;-;-;;;;;;;-;-;-;;--;;&&&&&^^^",
"__>>__#######&&&&$$&<_:**=*****==*=**=**=**=***=**==*=**&$&&&<:_",
":_>>::#######&&&&$$$>_:--;-----;;-;--;--;--;--;;--;;-;--,&$$$>_:",
">>>>>>#######&&$$$$$>>>*==*=*****=**==*****=**==**=*=***),,$&>>>",
">>>>>>#######$$&&&&&>>>-;;-;;-;;-;--;;-----;;-;;--;-;--;,,,~>>>>",
"444444######,,&&$&&&4444!!!!!!!!!!!!!!!!!!!!!!!!!!!!!!!)/(()4444",
"^^^^__####,,)),,&$$$^___{{]]]]{{]]]{{{{]]]{{]]]]{{]]]{{)(/()[[^^",
"^^^^__##,,)))))),,$&^_!!{{]]]]{{]]]{{{{]]]{{]]]]{{]]]{{!!)))[[^^",
"5^^^^^^~,,,,,,,,,,~^^^!!{}}}}}}{{{{{{{{{{{{}}}}}}{{{{{{!!)))[[^5",
"5^^^^^^))/((/))/(()^^^!!{}}}}}}{{{{{{{{{{{{}}}}}}{{{{{{!!)))[[^5",
"5^^^^[[))(/(())(/()[[^!!|}}}}}}||||||||||||}}}}}}||||||!!222[[^5",
"66666[[))))))))))))[[6}}}}}}}}}}}}}}}}}}}}}}}}}}}}}}}}}}}((,~~66",
"66666[[))))))))))))[[6}}||||||||7]7||]77]||]77|||||||||}}((,~~66"};
