/* XPM */
static char * city_d_c_xpm[] = {
"64 80 22 1",
" 	c None",
".	c #000000",
"+	c #7E7F90",
"@	c #6F7083",
"#	c #999A82",
"$	c #868674",
"%	c #854C4C",
"&	c #797565",
"*	c #A19AB9",
"=	c #787182",
"-	c #974D4D",
";	c #6C6B69",
">	c #6A6A64",
",	c #6B6A66",
"'	c #696963",
")	c #BE9D9E",
"!	c #917973",
"~	c #837F7E",
"{	c #6C726D",
"]	c #68645F",
"^	c #61635C",
"/	c #646554",
"                                                                ",
"                                                                ",
"                                                                ",
"                                                                ",
"                                                                ",
"                                                                ",
"                                                                ",
"                                                                ",
"                                                                ",
"                                                                ",
"                                                                ",
"          +@+@                                                  ",
"   @++@@  @+@+                                       #          ",
"  ++@@++@ @@@@+   ##            @@+@                +##@+++++++ ",
"++@@@@@$$@@@@@@@@ +# @@@++     @++@@+  ++++++++@  @@+#$$$@++@@@+",
"+@$$$$$$$$$$$@@$$+@#++++@@+@ @++@@@++++@@@@@@@@++@@+@#$+%$$$@++@",
"&&&&&+++++&&&&+++@@#+$@@@@@+++@@@@@+@@@@@@@@@@@@@++@@#+@+&&&++@+",
"++%++@%@@@%%++@%@%@+@+@@@@@@@@@@@@++@@@@@@@@@@@@@@+@%#@%%%++@@@@",
"@@++@@@@%@@+%%@@@++#@+@@@@@*@@@@@@@@@++++++++++@@@*@@#@%%%%%%@+%",
"++@@@@%%%%%@@@@%+@+#+@+++++*+@@@*=@@@@@@@@@=@@=+@@*$%#@@%%%%%%@@",
"%@+@@%%++@@++@+@@&&&@++@@@@*==*@@=@@@*@@@@@=**=**-*%@@++%%@%%%%%",
"%@+@@%@@@@@#+@@@####@%+@@;@*====*=***=***+-=======*>,##@++#@@@@%",
"$$@@@@@@@@@$@@@+$$$++@@@@@+*===*======-========-==*@'@$@@$$$$@@@",
"$$$$$$++$$$$@%+@+$$++@@@@+@*+---==++*****-+-+++-%=*+@@+$$$++$$$$",
"+&&&&+@@++&&++@@@+&+@+@@@++**+----==+***-***--++%=*++@+&&+++++&+",
"+++++@@@@&++&&@%@@+&%@+@@@+*=----+-=*=====%--=+*+=*@+%%++@@@@@+@",
"+@++++%%@++@@++%%@@@@@@++++*=+++**+-*==%=-**%+=-=+*++@@++@%%%+++",
"@+++@++@@@@++@@++@@@+++++@+=+%==-===+=-*****==+%++=++++@@++++@@@",
"+@@@*@@@@++@@@@@@+@+@@@@@++****=@*=+++@@+++=-=+@@@++@@@@@+@@@@@@",
"@@@@*@@@+*=@@@@@@@@+=@@=@@@*+@=@++)@@@@@@@@@+)+@@@@)@@@@@@@@@@)@",
"@@@@*==*@@=@@@*@@@@@=**=**-*@@@+@+)))+@))!)@+)@@+++)))++))!)@@)@",
"@@;@*====*=***=***+-=======*>,@++@)!@@)!!!!)))%~++@)!@@)!!!!)))%",
"@@@+*===*======-========-==*@'@@@@!!@@+!+@+!@)@@@@@!!@@+!+@+!@)@",
"@@+@*+---==++*****-+-+++-%=*+@++~+)+)%@~%%)@@))~@~+)+)%@~%%)@@))",
"+@++**+----==+***-***--++#=*++@@+@)%%@%%%%@%+!%%@+@)%%@%%%%@%+!%",
"+@@+*=----+-=*=====%--=++##*@+@@+++@!!!@@+%%@!+{@+%%@!##@@+%%@!+",
"++++*=+++**+-*==%=-**%+=+#$$$+++@@@++%!!@%@$$)@+!@@!+++#!@%@!@)@",
"@@++=+%==-===+=-*****==+@#$+%$$$@++@++$$$$$$$$$$$!@$$+@#+@%!@@)@",
"@@@@=***=)*=+===+*==)-=@@#+@+&&&++@+&&&&&+++++&&&&+++@@#+$)+))!)",
"@+++%===+)))+*))!)**)@+@%#@%%%++@@@@++%++@%@@@%%++@%@%@+@+!!!+!+",
"@+++===+))!@@)!!!!)))%~@@#@%%%%%%@+%@@++@@@@%@@+%%@@@++#@+!+@)!@",
"+@))!)+@)!!@@+!+@+!@)@@$%#@@%%%%%%@@++@@@@%%%%%@@@@%+@+#+@%@+)))",
"@)!!!!)))%~)%@~%%)@@))~%@@++%%@%%%%%%@+@@%%++@@+)@+@@&&&@+++@)!@",
"@+!+@+!@)@@%@%%%%@%+!%+@@##@++#@@@@%%@+@@%@@@@@+)))+#))!)%+@@!!@",
"%@~%%)@@))~!!!@@+%%@!+{@%@$@@$$$$@@@$$@@@@@@@@+@)!@@)!!!!))~+)+)",
"@%%%%#%+!%%+%!!@%@!@)@+]@@+$$$++$$$$$$$$$$++$$@@!!@@+!+@+!@+@)%%",
"!!@@+##@!+{@+++@%!@@)@@]@@+&&+++++##+&&&&+@@++~+)+)%@~%%)@@+%%@!",
"%!!@+#$$$@++@@@+)+))!){$$%%++@@@@@+#+++++@@@@&+@)%%@%%%%@%!@@!++",
"+))+@#$+%$$$@++@+!$$$$$$$$$$$@%$$+@#+@@@@%++@@@%%@!!!@@+%%@!@!%@",
")!+@@#+@+&&&++@+&&&&&+++++&&&&+++@@#+$@@++@@++++!++%!!@%@!@@@+@@",
"!!+@%#@%%%++@@@@++%++@%@@@%%++@%@%@+@+++@@@@@@@@!%@+))@%!@@@+@))",
"%%%@@#@%%%%%%@+%@@++@@@@%@@+%%@@@++#+@@@@@@@@@@@+@@)!+@)+))+!@!!",
"!!!$%#@@%%%%%%@@++@@@@%%%%%@@@@%+@+#+@@@@@@@@@@@@))!!%@!!!+^@@@@",
"++++@@++%%@%%%%%%@+@@%%++@@++@+@@&&&+@@@@@@@@@@@@+!%%%@!+@@++@++",
"+@@@+##@++#@@@@%%@+@@%@@@@@#+@@@####@@@@@@@@@@@@@++++!@@++++@@@@",
"@@@@+@$@@$$$$@@@$$@@@@@@@@@$@@@+$$$+@@@@@@@@@@@++@@@@+++@@@@@@@@",
"@@@@@@+$$$++$$)$$$$$$$++$)$$@%+@+$$++@@@@@@@@@@@@@@@@@@+@@@@@@@@",
"@++++@+&&+++++)))+&))!)@+)&&++@@@+&+@+@@@+++++@@@@@@@@@@+@@@@@@@",
"++@@+@+++@@@+@)!@@)!!!!)))%~&&@%@@+&%@+*+@@@@@++@@@@@@@@@+@@@@*@",
"@@@@@@@@@+@@@@!!@@+!+@+!@)@@@%%%%@@@@@@*@@@@*=@@+@@@@@@=@@=@@@*@",
"@@@@@@@@@@+@~+)+)%@~%%)@@))~++@++++@@@@*==*@@=@@+*@@@@@=**=**-*@",
"@@@@@@@@@@@++@)%%@%%%%@%+!%%@@+@@@@++;@*====*=***=***+-=======*>",
"@@@@@@@@@@@++%%@!!!@@+%%@!+{@@++@@@@@@+*===*======-========-==*@",
"@@++++@@@@@!@@!++%!!@%@!@)@+@@@@@@@@@+@*+---==++*****-+-+++-%=*+",
"@@++@@++@@@+!@!%@+))@%!@@)@@@@@++@@@@++**+----==+***-***--++%=*+",
"@+@@@@@++++*@@+@@)!+@)+))!){+++@@++@@@+*=----+-=*===*=%--=+*+=*@",
"@@@@=@@=@@@*@+@))!!%@!!!+!+^@@@@@@#++++*=+++**+-*==%*-**%*=-=+*+",
"@+++=**=**-*+!@!!%%%@!+#*!@+@@@@@+##@++=++++-==*+=-**==*===%=+*#",
"**+-=======*>,@@@!!!@%@+*!!@@*=@@+#$$$@+=@@=+*=*==;@*====*=***=*",
"========-==*@'$$$$@^$$+@*==*@@=@+@*$+%$$=**=**-*$$@+*===*======-",
"**-+-+++-%=*+@+&&&&+++;@*====*=***=***+-=======*>@+@*+---==++***",
"*-***--++%=*++@%%++@%@@+*===*======-========-==*@'++**+----==+**",
"===%--=+*+=*@+@@+%%@@@+@*+---==++*****-+-+++-%=*+@@+*=----+-=*==",
"%=-**%+=-=+*++@%@@@@%+++**+----==+***-***--++%=*++++*=+++**+-*==",
"*****==+%=+=@/+@++@+@@@+*=----+-=*=====%--=+*+=*@+++=+%==-===+=-",
"+*===-==*===+@@@#+@@@+++*=+++**+-*==%=-**%+=-=+*+@@@=***=@*=+===",
"*=**@@*====@@@+@$@@@+$++=+%==-===+=-*****==+%=+=@+++%===@++@**+*",
"+=@@++@====@+++$$@%+@@@@=***=@*=+===+*===-==*===++++===%+++@===+",
"+++++++@++@++++&&++@@+++%===@++@**+**=**@@*====@@@++%@++++++@+++",
"/+++++++/++++/&++&&@%+++===%+++@===++=@@++@====@++///+++++++++++"};
