/* XPM */
static char * city_c_xpm[] = {
"64 80 36 1",
" 	c None",
".	c #000000",
"+	c #BD4646",
"@	c #A54D4D",
"#	c #974D4D",
"$	c #B34F4F",
"%	c #AD4949",
"&	c #A45353",
"*	c #964F4F",
"=	c #877C95",
"-	c #A19AB9",
";	c #868674",
">	c #AAAE96",
",	c #6981B2",
"'	c #787182",
")	c #5D6B83",
"!	c #6C759A",
"~	c #C43C3C",
"{	c #854C4C",
"]	c #978FAA",
"^	c #9D5D5D",
"/	c #999A82",
"(	c #797565",
"_	c #526489",
":	c #6E6D6F",
"<	c #59524B",
"[	c #9F8683",
"}	c #BE9D9E",
"|	c #6C726D",
"1	c #7E8AA7",
"2	c #637799",
"3	c #837F7E",
"4	c #917973",
"5	c #646554",
"6	c #4A1D0F",
"7	c #091115",
"                                                                ",
"                                      +@                        ",
"                                    +++@@#                      ",
"                                  +++++##@##                    ",
"                                +++++++@#@@##@                  ",
"                              +++++++++@#@#@@###                ",
"                            +++++++++@+@@##@#@#@##              ",
"                          +++++++++++++##@@@#@@#####            ",
"$$$%$%%%%%$%$%$%%$$$%     +++++++++++++@###@@@@##@##$$$$%%$$$$%%",
"&*&*******&*&*&**&&**     +++++++++++++@@@###@#@@@@@***&***&&***",
"$$%$$%$$%$$$%$$%%$%$$     +++++++++++++@#@@########@$$%$$$$$%%$%",
"&&*&&*&&*&&**&&+@&*&&     ++++++++++++==@########@##&&*&&&&&**&*",
"$%%$$$$$%$$%%+++@@#$$     ++++++++++==--==@@@@#@###@$%%$%$$$$$%$",
"&**&&&&&**&+++++##@##     ++++++++==------==@@@##@@@&**&**&**&*&",
";;;;;;;;;+++++++@#@@##@   ++++++==----------==###### ;;;;;;;;;;;",
">>>>,,,+++++++++@#@#@@### ++++''==============''#@@@ >>,,,,>>,,,",
">>>>,+++++++++@+@@##@#@#@##+))!-!!!--!!~{--!!!]!))#@;>>,~{,>>,,,",
">>>+++++++++++++##@@@#@@#####!!-!!!--~~~^^^!!!]!!!=;;>~~~^^^>>>>",
">>>+++++++++++++@###@@@@##@##]]]]]]~~~~~^^^^^]]]]]];~~~~~^^^^^>>",
"///+++++++++++++@@@###@#@@@@@]]]]~~~~~~~^^{{^^^]]]~~~~~~~^^{{^^^",
"(((+++++++++++++@#@@########@''''~~~~~~~{{^^^^^'''~~~~~~~{{^^^^^",
"//,++++++++++++==@########@##)!])~~~~~~~^^{{^^^)!)~~~~~~~^^{{^^^",
";;_++++++++++==--==@@@@#@###@))=)~~~~~~~^^^^{{^!)!~~~~~~~^^^^{{^",
";;;++++++++==------==@@@##@@@====~~~~~~~^^^^{{{===~~~~~~~^^^^{{{",
"(((++++++==----------==######====~~~~~~~^^{{{{{===~~~~~~~^^{{{{{",
"(((++++''=====~{=======''#@@@::::~~~~~~~{{^^^^^:::~~~~~~~{{^^^^^",
"<<<++))!-!!!~~~^^^--!!!]!))#@))')~~~~~~[[^^{^^^)))~~~~~~[[^^{^^^",
"<<~{=!!!-!~~~~~^^^^^!!!]!!!=)))')~~~~[[}}[[^{{{)))~~~~[[}}[[^{{{",
"~~~^^^]]~~~~~~~^^{{^^^]]]]]]'''''~~[[}}}}}}[[{^'''~~[[}}}}}}[[{^",
"~~~^^^^^~~~~~~~{{^^^^^]]]]]]''''''|[[[[[[[[[[|'''''|[~{[[[[[[[~~",
"~~~^^{{^^^~~~~~^^{{^^^''$$$$%%$$$$%%$$$%$%%%%%$%$%$~~~^^^}}1~~~~",
"~~~{{^^^^^~~~~~^^^^{{^)=***&***&&***&*&*******&*&~~~~~^^^^^2~~~~",
"~~~^^{{^^^~~~~~^^^^{{{)=$$%$$$$$%%$%$$%$$%$$%$$~~~~~~~^^{{^^~~~~",
"~~~^^^^{{^~~~~~^^{{{{{==&&*&&&&&**&*&&*&&*&&*&&~~~~~~~{{^^^^~~~~",
"~~~^^^^{{{~~~~~{{^^^^^==$%%$%$$$$$%$$%%$$$$$%$$~~~~~~~^^{{^^~~~~",
"~~~^^{{{{{~~~~[[^^{^^^::&**&**&**&*&&**&&&&&**&~~~~~~~^^^^{{~~~~",
"~~~{{^^^^^~~[[}}[[^{{{)');;;;;;;;;;;;;;;;;;;;;;~~~~~~~^^^^{{~~~~",
"~~[[^^{^^^[[}}}}}}[[{^)')>>,,,,>>,,,>>>>,,,>>,,~~~~~~~^^{{{{~~~~",
"[[}}[[^{{{[[[[[[[[[[|'';;>>,,,,>>,,,>>>>,,,>>,,~~~~~~~{{^^^^~~~~",
"}}}}}}[[{^}1221}}122}'';;>((((((>>>>>>>>>>>>(((~~~~~~[[^^{^^~~[[",
"[[[[[[[[|}}2122}}212}33;;>((((((>>>>>>>>>>>>(((~~~~[[}}[[^{{{|[[",
"221}$$$$%%$$$$%%$$$%$%%%%%$%$%$%%$$$%///////(((~~[+@}}}}}[[{^}}1",
"122}***&***&&***&*&*******&*&*&**&&**(((((((((((+++@@#[[[[[33}}2",
"}}}}$$%$$$$$%%$%$$%~{%$$%$$$%$$%%$%$$/,__,//,_+++++##@##12233}}}",
"}}}}&&*&&&&&**&*&~~~^^^&*&&**&&**&*&&;____;;+++++++@#@@##@233}}}",
"}}}}$%%$%$$$$$%~~~~~^^^^^$$%%$$%$%$$$;;;;;+++++++++@#@#@@###3}}}",
"4444&**&**&**~~~~~~~^^{{^^^**&&*&*&&*(((+++++++++@+@@##@#@#@##44",
"[[[[[;;;;;;;;~~~~~~~{{^^^^^;;;;;;;;;((+++++++++++++##@@@#@@#####",
"@[[[[>>,,,,>>~~~~~~~^^{{^^^,,>>,,,>><<+++++++++++++@###@@@@##@#+",
"@@#;;>>,,,,>>~~~~~~~^^^^{{^,,>>,,,>>;;+++++++++++++@@@###@#@@+++",
"##@##>((((((>~~~~~~~^^^^{{{(((>>>>>+@;+++++++++++++@#@@####+++++",
"@#@@##@(((((>~~~~~~~^^{{{{{(((>>>+++@@#+++++++++++==@####+++++++",
"@#@#@@###(((/~~~~~~~{{^^^^^(((/+++++##@##+++++++==--==@+++++++++",
"@@##@#@#@##((~~~~~~[[^^{^^^((+++++++@#@@##@+++==-----+++++++++@+",
"##@@@#@@#####~~~~[[}}[[^{{{+++++++++@#@#@@###=-----+++++++++++++",
"@###@@@@##@##~~[[}}}}}}[[+++++++++@+@@##@#@#@##====+++++++++++++",
"@@@###@#@@@@@;|[[[[[[[[+++++++++++++##@@@#@@#####!!+++++++++++++",
"@#@@########@(}}1221}}1+++++++++++++@###@@@@##@##!!+++++++++++++",
"=@########@##3}}2122}}2+++++++++++++@@@###@#@@@@@]]++++++++++++=",
"-==@@@@#@###@3}}}}}}}}}+++++++++++++@#@@########@]]++++++++++==-",
"---==@@@##@@@3}}}}}}}}}++++++++++++==@########@##''++++++++==---",
"-----==######3}}}}}}}}}++++++++++==--==@@@@#@###@!)++++++==-----",
"=======''#@@@%%$%$%$%%$++++++++==------==@@@##@@@$%++++''=======",
"!!--!!!]!))#@**&*&*&**&++++++==----------==######**++))!-!!!--!!",
"!!]]!!!]!!!=$%$$$%$$%%$++++''==============''#@@@$%$=!!!-!!!--!!",
"]]]]]]]]]]]]&*&&**&&**&++))!-!!!--!!!!--!!!]!))#@&*&]]]]]]]]]]]]",
"]]]]]]]]]]]]$%$$%%$$%$%$=!!!-!!!--!!!!]]!!!]!!!=$$$$]]]]]]]]]]]]",
"''''''''''''&**&**&&*&*&]]]]]]]]]]]]]]]]]]]]]]]]&&&&''''''''''''",
"))==)))=)!)='';;;;;;;;;;]]]]]]]]]]]]]]]]]]]]]]]];;::]))!])!)]]!)",
"!)==!!)=!)!=::,,,,>>,,,>''''''''''''''''''''''''>,::=)))=)!)==)!",
"============::,,,,>>,,::]))!])!)]]!)))==)))=)!)=''::============",
"============::(((((>>>::=)))=)!)==)!!)==!!)=!)!=::::============",
"::::::::::::::(((((>>>::========================::::::::::::::::",
"'''')))')))'::(((((///::========================::55')))')))''''",
"'''')))')))'55((((((((::::::::::::::::::::::::::::55')))')))''''",
"6'''''''''''55__//////55')))')))'''''''')))')))'::55'''''''''''6",
"6'''''''''''55__;;;;;;55')))')))'''''''')))')))'5555'''''''''''6",
"6'''''''''''55;;;;;77;55'''''''''''66'''''''''''5555'''''''''''6",
"55555555555555(((((77(55'''''''''''66'''''''''''5555555555555555",
"55555555555555(((((77(55'''''''''''66'''''''''''5555555555555555"};
