/* XPM */
static char * city_a_xpm[] = {
"64 80 39 1",
" 	c None",
".	c #000000",
"+	c #C43C3C",
"@	c #854C4C",
"#	c #9D5D5D",
"$	c #B34F4F",
"%	c #AD4949",
"&	c #A45353",
"*	c #964F4F",
"=	c #9F8683",
"-	c #BD4646",
";	c #A54D4D",
">	c #BE9D9E",
",	c #974D4D",
"'	c #868674",
")	c #6C726D",
"!	c #AAAE96",
"~	c #6981B2",
"{	c #7E8AA7",
"]	c #637799",
"^	c #837F7E",
"/	c #999A82",
"(	c #797565",
"_	c #526489",
":	c #877C95",
"<	c #A19AB9",
"[	c #59524B",
"}	c #787182",
"|	c #5D6B83",
"1	c #6C759A",
"2	c #978FAA",
"3	c #39404C",
"4	c #6E6D6F",
"5	c #917973",
"6	c #492012",
"7	c #4A1D0F",
"8	c #646554",
"9	c #68645F",
"0	c #091115",
"                                                                ",
"                                 +@                             ",
"                               +++###           +@              ",
"                             +++++#####       +++###            ",
"                           +++++++##@@###   +++++#####          ",
"                           +++++++@@##### +++++++##@@###        ",
"                           +++++++##@@### +++++++@@#####        ",
"                           +++++++####@@# +++++++##@@###        ",
"$$$%$%%%%%$%$%$%%$$$%      +++++++####@@@ +++++++####@@#%%$$$$%%",
"&*&*******&*&*&**&&**      +++++++##@@@@@ +++++++####@@@***&&***",
"$$%$$%$$%$$$%$$%%$%$$      +++++++@@##### +++++++##@@@@@$$$$%%$%",
"&&*&&*&&*&&**&&**&*&&      ++++++==##@### +++++++@@#####&&&&**&*",
"$%%$$$$$%$$%%$$%-;$$$      ++++==>>==#@@@ ++++++==-;@###%$$$$$%$",
"&**&&&&&**&**&---;;,*      ++==>>>>>>==@# ++++==---;;,@@**&**&*&",
"''''''''''''-----,,;,,      )==========)  ++==-----,,;,,''''''''",
"!!!!~~~!!~-------;,;;,,;    >>{]]{>>{]]>   )-------;,;;,,;~!!~~~",
"!!!!~~~!---------;,;,;;,,,^^>>]{]+@>]{]>^^---------;,;,;;,,,!~~~",
"!!!!!!---------;-;;,,;,;,;,,>>>+++###>>>---------;-;;,,;,;,;,,!!",
"!!!!-------------,,;;;,;;,,,,,++++####-------------,,;;;,;;,,,,,",
"////-------------;,,,;;;;,,;,,++++##@@-------------;,,,;;;;,,;,,",
"((((-------------;;;,,,;,;;;;;++++@@##-------------;;;,,,;,;;;;;",
"//~_-------------;,;;,,,,,,,,;++++##@@-------------;,;;,,,,,,,,;",
"''__------------::;,,,,,,,,;,,++++####------------::;,,,,,,,,;,,",
"''''----------::<<::;;;;,;,,,;++++####----------::<<::;;;;,;,,,;",
"((((--------::<<<<<<::;;;,,;;;++++##@@--------::<<<<<<::;;;,,;;;",
"((((------::<<<<<<<<<<::,,,,,,++++@@##------::<<<<<<<<<<::,,,,,,",
"[[[[----}}::::::::::::::}},;;;+++==##@----}}::::::::::::::}},;;;",
"[[+@--||1<111<<1111$$$$%%$$$$%%$$$%$%%%%%$%$%$%%$$$%1<<11121||,;",
"+++###111<111<<1111***&***&&***&*&*******&*&*&**&&**1221112111:3",
"+++#####22222222222$$%$$$$$%%$%$$%$$%$$%$$$%$$%%$%$$2222222222++",
"+++##@@###222222222&&*&&&&&**&*&&*&&*&&*&&**&&**&-;&22222222++++",
"+++@@#####}}}}}}}}}$%%$%$$$$$%$$%%$$$$$%$$%%$$%---;;,}}}}}}}++++",
"+++##@@###|1|221|||&**&**&**&*&&**&&&&&**&**&-----,,;,,|||:|++++",
"+++####@@#|1|::|11|:'''''''''''''''''''''''-------;,;;,,;|:1++++",
"+++####@@@::::::::::!!~~~~!!~~~!!!!~~~!!~---------;,;,;;,,,:++++",
"+++##@@@@@:::::::-;'!!~~~~!!~~~!!!!~~~!---------;-;;,,;,;,;,,+++",
"+++@@#####4444$---;;,$$$%%$$$%$%%%%%$-------------,,;;;,;;,,,,,+",
"++==##@###|||-----,,;,,***&*&*******&-------------;,,,;;;;,,;,,+",
"==>>==#@@@|-------;,;;,,;%$$%$$%$$%$$-------------;;;,,,;,;;;;;+",
">>>>>>==@---------;,;,;;,,,&*&&*&&*&&-------------;,;;,,,,,,,,;=",
"=======---------;-;;,,;,;,;,,$$$$$%$$------------::;,,,,,,,,;,,=",
"]]{>>-------------,,;;;,;;,,,,,&&&**&----------::<<::;;;;,;,,,;{",
"{]]>>-------------;,,,;;;;,,;,,''''''--------::<<<<<<::;;;,,;;;]",
">>>>>-------------;;;,,,;,;;;;;~~!!~~------::<<<<<<<<<<::,,,,,,>",
">>>>>-------------;,;;,,,,,,,,;~~!!~~+@--}}::::::::::::::}},;;;>",
">>>>>------------::;,,,,,,,,;,,!!!(+++###1<111<<1111<<11121||,;>",
"55555----------::<<::;;;;,;,,,;!!+++++#####111<<1111221112111:55",
"=====--------::<<<<<<::;;;,,;;;+++++++##@@###22222222222222222==",
";====------::<<<<<<<<<<::,,,,,,+++++++@@#####22222222222222222=-",
";;,6=----}}:::::::+@:::::}},;;;+++++++##@@###}}}}}}}}}}}}}}}}---",
",,;,,--||1<111<<+++###11121||,;+++++++####@@#|221|||::|||:|-----",
";,;;,,;111<111+++++#####12111:'+++++++####@@@|::|11|::11|-------",
";,;,;;,,,222+++++++##@@###2222(+++++++##@@@@@::::::::::---------",
";;,,;,;,;,,2+++++++@@#####2222(+++++++@@#####::::::::---------;-",
",,;;;,;;,,,,+++++++##@@###}}}}[++++++==##@###444444-------------",
";,,,;;;;,,;,+++++++####@@#|1|:}++++==>>==#@@@|}}}}}-------------",
";;;,,,;,;;;;+++++++####@@@1|1:4++==>>>>>>==@#|}}}}}-------------",
";,;;,,,,,,,,+++++++##@@@@@::::44)==========)}}}}}77-------------",
":;,,,,,,,,;,+++++++@@#####::::44>>{]]{>>{]]>}}}}}77------------:",
"<::;;;;,;,,,++++++==##@###4444^^>>]{]]>>]{]>^^}}}77----------::<",
"<<<::;;;,,;;++++==>>==#@@@|||}^^>>>>>>>>>>>>^^88888--------::<<<",
"<<<<<::,,,,,++==>>>>>>=$$$$%%$$$$%%$$$%$%%%%%$%$%$%%$$$%-::<<<<<",
":::::::}},;;;)=========***&***&&***&*&*******&*&*&**&&**}:::::::",
"11<<11121||,;>>{]]{>>{]$$%$$$$$%%$%$$%$$%$$%$$$%$$%%$%$$<111<<11",
"11221112111^^>>]{]]>>]{&&*&&&&&**&*&&*&&*&&*&&**&&**&*&&<111<<11",
"222$$$$%%$$$$%%$$$%$%%%%%$%$%$%%$$$%%%$$$$$%$$%%$$%$%$$$22222222",
"222***&***&&***&*&*******&*&*&**&&****&&&&&**&**&&*&*&&*22222222",
"}}}$$%$$$$$%%$%$$%$$%$$%$$$%$$%%$%$$'''''''''''''''''''}}}}}}}}}",
"||:&&*&&&&&**&*&&*&&*&&*&&**&&**&*&&!!!~~~!!~~~~!!~~~!!12|1|221|",
"1|:$%%$%$$$$$%$$%%$$$$$%$$%%$$%$%$$$!!!~~~!!~~~~!!~~~!!''|1|::|1",
":::&**&**&**&*&&**&&&&&**&**&&*&*&&*!!!!!!!((((((!!!!!!'':::::::",
"::::'''''''''''''''''''''''''''''''!!!!!!!!((((((!!!!!!'':::::::",
"4444!!~~~~!!~~~!!!!~~~!!~~~~!!~~~!!////////((((((//////''4444444",
"}}''!!~~~~!!~~~!!!!~~~!!~~~~!!~~~!!''((((((((((((((((((((|||}}}}",
"}}''!((((((!!!!!!!!!!!!((((((!!!!!!''~__~//~__/////////((|||}}}}",
"7}''!((((((!!!!!!!!!!!!((((((!!!!!!''____''___'''''''''99}}}}}}7",
"7}''/((((((////////////((((((//////''''''''''''''00''''99}}}}}}7",
"7}(((((((((((((((((((((((((((((((((((((((((((((((00((((99}}}}}}7",
"88((////////_~_//~__~//~__/////////((((((((((((((00(((([[8888888",
"8899''''''''___''____''___'''''''''99[[[[[[[[[[[[[[[[[[[[8888888"};
