/* XPM */
static char * exit_xpm[] = {
"64 80 25 1",
" 	c None",
".	c #000000",
"+	c #6B542A",
"@	c #624D27",
"#	c #7D622D",
"$	c #725B2D",
"%	c #7E7F90",
"&	c #6F7083",
"*	c #564424",
"=	c #999A82",
"-	c #868674",
";	c #854C4C",
">	c #797565",
",	c #433722",
"'	c #39404C",
")	c #BE9D9E",
"!	c #383F4B",
"~	c #373E4A",
"{	c #383F4A",
"]	c #787182",
"^	c #A19AB9",
"/	c #974D4D",
"(	c #39404B",
"_	c #646554",
":	c #383E4A",
"                                                                ",
"                                                                ",
"                                                                ",
"                                                                ",
"                                                                ",
"                                                                ",
"                                                                ",
"                                                                ",
"                                                                ",
"                    ++@@        ++++ ++@@                       ",
"                   +@@++       ###$++++@++                      ",
"          %&%&     @+++@@++@@###$+##++@@++                      ",
"   &%%&&  &%&%     +++*+@+@+@##@++++##+#++@++@++@+@  =          ",
"  %%&&%%& &&&&%   ++@@++@@+@+@@++@@+@@++#+@+@@@@### %==&%%%%%%% ",
"%%&&&&&--&&&&&&&&+@+###+@+@@+@@@@+@@@@+@+#+@@+###+@@%=---&%%&&&%",
"%&-----------&@+@+#++++#+@@@@*+@+@@@@@@+@+@@@#++@@@@@#-%;---&%%&",
">>>>>%%%%%>>>>@@@#+@@@+@#@@+@@@@@@@@@@@@@@@##+@@*@@@@@@&%>>>%%&%",
"%%;%%&;&&&;;%%@@@+@@+@@+@#+@@@@*@@@*@@@@+@++@@@@@@@@@@@@;;%%&&&&",
"&&%%&&&&;&&%;;@@@@@@@@@@@@#@@@@@@@@*@@@@@@@@@@*@@@@@@@@@@;;;;&%;",
"%%&&&&;;;++@+@@+*@+@@@@@@@@*@@*@@@@@@@@@@@@@@*@@@@@@@@@@@;;;;;&&",
";&%&&;;%+@@@@@@@@@@@@@@@@**@*@@@*@*@*@*@#+##*@@@@@@@@@@@@@&;;;;;",
";&%&&;&@+@@@@@@@*@@@@@@@*@**@**@@*@*@*@*@*@*@#*@@@@@@@*@@@=&&&&;",
"--&&&&&@#####@@@*@@@@@*@*@@+#+#++#+#+@*@*@*@**#+@@@@@*@@*@@--&&&",
"------+@@@+@@+@@**@@*@@*@*#****@******@*@*@**@*@+@@**@@*@@@@----",
"%>>>>@*@@+@@@@@@@@@@@*@*#+**@***@*@*@*****@*@*@*@+@*@@@@@**@%%>%",
"%%%@*+@@*@@@@@@@@*@*@*@*+*******,************@*@@+#*@*@*@@@*@&%&",
"%+*@+@+@+@@@@@@*@@@*@**,************************@***@@+#++#+@@%%",
"+@*+@+@@@@*@@@@@**@*,*****************************@@*#*@@@*@@@@&",
"+*++@+@+@@*@@@*@@****************************@*@***@@+@@*@@@@@@@",
"&+@++@#$$$@*@@@*@***@************************@**@*@*@*@@@@@*@*@@",
"&++@+@@@@@#@*@@*******@********,*,*,*,********@**@*@*@@*@*@@@@*@",
"&+++@++@+@@+@**@*************,*********,*******@*@**@*@@@@@@*@@@",
"&++++@@@@@@@+@**,*@*@*********,*,*,*,,,,,,,*****@*@**@*@*@*@@@@@",
"&+++@+@+@@@@@**@***********,***,,*****,*********@***@*@@@@@@@@*@",
"++++@+@+@+@@@@@*@**@********,*,,*,*,,***,******@*@@*@@*@@@@@*@@@",
"+++@+++@@@@@@*@@*@********,*,,,*,****,***,******@*@@*@@@*@@@@@@@",
"%++++@@@@+@*@@*@*@**********,*,,,,,,,,,,,,*******@*@@*@@@@@@@@@'",
"&+@@@@++@@@+@@@*@**,,,,,,,,,,,,,,,,,,,,,,*,,,,*@*@*@*@@@@@@@@@@@",
"++++++@$$+$++@@@@,,******,,,,,,,,*,*,*,*,********@*@@@@@@@@@@@@@",
"+++++$$@+@+@+++@@*@********,,,,,,,,,,*,*,,*****,**@*@@@@@@@@@@@@",
"+++$+@+@+@+@@@+@@#******,*,*,*,,,*,*,,,,*,*********@@@@@@@@@@@@@",
"++$++++@+@@+@@@+@@+******,,,,,,,,,,,,,,,,,*****@**@@@@@@@@@@@@@@",
"$+$++@+++@+@+@@*@**@***,*,*,,,,,,,,,,,,,,,,****@@@@@@@@@@@@@@@@@",
"+++++++@+@+@@@@@+@@@@*@,,,,,,,,,,,,,,,,,,,*,****@*@@@@@@@@@@@@@@",
"+++++@++@+@@@+@+@+@+@@@@,,,,,,,,,,,,,,,,,,,****@@@*@@@@@@@@@@@@+",
"++++++@++@++@+@+@@+@#+#@*,,,,,,,,,,,,,,,,,,,**@@@@@@@@@@@@+@@+@@",
"+$+++++@@+@+@+@++#++@@@@**,,,,,,,,,,,,,,,,,*@@@@@@@@@@@@+@@+@@@+",
"+++++@+@+++$+++++@+@+@*@@@***,,,,,,,,,,,,,*+#++#@#@#@@@+@@+@@+@@",
"%$++++++++++++++++@+@@@+@+@@@@*,,,,,,,,,,,*@@@@@@@@@+#+@@+@@+@+@",
")++++++@+++@+@++@+@*+@+++@++@**,,,*,*,,,,**@@@@@@@@@@@@#@@+@+@+@",
"$+$++++@++++++@+++@+++@+#+#@#@@@@*@*@@@@@*@@*@@@+@+++@+@++@+@+@+",
"$+$++++++++@++++++@+@++#@**+@#+#+@@@@@@+@+@@+@@@+@+@+@+@++@+@++@",
"$+$+++++++++++++++@++#@+++#@+@+@@#*+++++++@+@@+@@+@+@+++@++@+@++",
"$$+$+$+$+++++++++++@+#@+++@#@#@+*@@@+@++@#@@+@++@@+++@+@++@+++@+",
"$++$+++++$+++++++++@+++#@#@++++#*@+++++++@@+++@+++@++++++++@+++@",
"$+$++$++++$+++++#+@+++++++#++#@+@+++#@#@#@#@@++@+++@++@+++++@+++",
"$+$&++++$+++$+++@@#++#++#@++++#@@#@#@++++#@+++++++++@++++@++++@+",
"&%%%$+$++$+$++$+#++++@#@+#+#+++@@+#@#+#+#@++++++++++#@#@+#@+++++",
"%%&&$+$+$+$+$+$+++++#+++#@#@#+#@#@#++#@#@#@#@#@#@#@++++++@+++++&",
"&&&$+$++$+$++$+$$+#++++#@#@#@#@#@#@#+#+#+#@++@#@#@#+++++++++++&&",
"&&&$+$+$+$+$++$+$+++#+++#+#@#+#@#+#+#@#+#@#@#@++@#@+#@#++++++&&&",
"&&&&$+$+$++$+$+$+$$+++#+++#+++#@#+#+#+#+#+#@#+#+++#@++++++++#+&&",
"&&&&&&&$+$++$+$$+$+#+++#+++#+#+#+#+#+#+#+#@#@+++#@+#@#@#++++++''",
"&&%%%%&$+$+$+++$$$++#+++##++#++#@#+#+#+#+#@#+#@#@#++#@#@+#@++#+!",
"&&%%&&%$+$+$+$$$$+#++#++++#++#+#+#+#+#+#+#++++#@#@#@#@#++++#@+~{",
"&%&&&&$+$+$++++$$$+$$+#+##+#+#++#+#+#+#+#+#+#@#@#@#++#@#+++++#'!",
"&&&&]&$+$+$+$$+$$$$$$+$+#+#+#+##+##+##+#+#@#@#@#@#@#@+#@+#++++''",
"&&&&]^$+$+$++$+$$$+$$$$$+#+#+#++#+##+#+##+#++#@#++#@#++#@++#+'^'",
"^^%/]]]]$+$$+$+$$$$$$$$#+#+##+##+#+##+##+#+#++#@#@#++#@#+#@+^^]^",
"]]]]]]]]/]$+$+$$$$$$$$+$#+#+#+#+###+##+###@#+#@#+#@#++++++#+]]]/",
"^^/%/%%%/;]^%&'$$$$$$$$$#$##+#+#+#+####+##++#@#+++#+#+#+#@+#%^^^",
"^/^^^//%%;]^%%'$$$$$$$$$$#+#########+###+#+#+#@#+#@#@#@#@#++]%^^",
"]]];//]%^%]^&%'$$$$$$$$$#$#+#++#+##+###+##+#+#++#@#+#+#+++%/]^]]",
";]/^^;%]/]%^%%&#$#$$$$$${~##$###+#########++#+(#+#+++++#+^^%/^]]",
"^^^^^]]%;]%]&_%{''$$#$!!''''#$############+#+#'''#+#+#++#/]]]%]/",
"%^]]]/]]^]]]%&~''!'''{'''{''##$#$!'~######+#@#+'!&#+#+#+]&^]%]]]",
"^]^^&&^]]]]&&&%'~:''!~!'~!'''!##!!'~'''###+#+##~&%%%;]]]&%%&^^%^",
"%]&&%%&]]]]&%%%':!'''''''~'~!''!'''~~'~!!'#+#@!''%%%]]];%%%&]]]%",
"%%%%%%%&%%&%%%''{'(''!'''''(''!'''~'!''''!(''':'''%%;&%%%%%%&%%%",
"_%%%%%%%_%%%%_''''{'~'!!'''''''''{'!!!{'''!~!''''{___%%%%%%%%%%%"};
