/* XPM */
static char * godjira_r_xpm[] = {
"64 96 106 2",
"  	c None",
". 	c #000000",
"+ 	c #3E7220",
"@ 	c #4B832B",
"# 	c #538638",
"$ 	c #4A7B2E",
"% 	c #447A2F",
"& 	c #497C3F",
"* 	c #528338",
"= 	c #2D5524",
"- 	c #142428",
"; 	c #335835",
"> 	c #407A1D",
", 	c #4A8823",
"' 	c #538C29",
") 	c #45851E",
"! 	c #284913",
"~ 	c #1D313D",
"{ 	c #447E21",
"] 	c #4A802A",
"^ 	c #3E731D",
"/ 	c #41751F",
"( 	c #467C20",
"_ 	c #518C28",
": 	c #65A433",
"< 	c #558E2A",
"[ 	c #41771F",
"} 	c #457925",
"| 	c #437820",
"1 	c #3C6C1D",
"2 	c #0B1704",
"3 	c #437532",
"4 	c #3C6F1C",
"5 	c #458121",
"6 	c #3D721C",
"7 	c #427A1E",
"8 	c #1F3E0E",
"9 	c #336119",
"0 	c #39671B",
"a 	c #538B29",
"b 	c #345623",
"c 	c #112406",
"d 	c #254711",
"e 	c #346617",
"f 	c #61A131",
"g 	c #407822",
"h 	c #142809",
"i 	c #131F27",
"j 	c #2B4E14",
"k 	c #0E2016",
"l 	c #2C5513",
"m 	c #274B15",
"n 	c #091D08",
"o 	c #2D4E28",
"p 	c #48793E",
"q 	c #305815",
"r 	c #244211",
"s 	c #B4CD34",
"t 	c #061306",
"u 	c #9FAB1C",
"v 	c #275B0F",
"w 	c #195306",
"x 	c #081D01",
"y 	c #0E3203",
"z 	c #153708",
"A 	c #142B21",
"B 	c #0D280D",
"C 	c #051501",
"D 	c #051301",
"E 	c #103504",
"F 	c #092002",
"G 	c #324932",
"H 	c #071402",
"I 	c #3F6E29",
"J 	c #0C2003",
"K 	c #4D743F",
"L 	c #202F20",
"M 	c #081103",
"N 	c #0C1A04",
"O 	c #274B12",
"P 	c #3F7622",
"Q 	c #4C8A23",
"R 	c #162215",
"S 	c #4A8224",
"T 	c #45861F",
"U 	c #264B11",
"V 	c #346618",
"W 	c #285211",
"X 	c #295512",
"Y 	c #3F711E",
"Z 	c #0D171A",
"` 	c #223521",
" .	c #081908",
"..	c #4E8627",
"+.	c #213E10",
"@.	c #3E6C1F",
"#.	c #549A27",
"$.	c #416F20",
"%.	c #377C15",
"&.	c #0E2305",
"*.	c #3F781C",
"=.	c #43821E",
"-.	c #4B951F",
";.	c #2E6213",
">.	c #4C9820",
",.	c #174E05",
"                              + @ # # # $ $                                                                                     ",
"                            + % & & & & & & *                                                                                   ",
"                          + = - - - - - ; & & $                                                 > , ' ' ' ' '                   ",
"                  ) , ' ' ! - - - ~ ~ ~ - ; & $               { ]                       > ^ / / ( _ _ _ : : : < '               ",
"        [ } $ $ | ( _ _ 1 2 ~ ~ ~ ~ ~ ~ ~ - 3 $             4 5 / 3 $ $ $ $           6 7 _ _ 1 8 9 8 8 0 a : : '               ",
"    + } # # # $ b 8 8 8 8 c c ~ ~ ~ ~ ~ ~ ~ * ( ' '         d = / & & & & & *       6 e 8 8 8 8 8 8 9 9 9 0 c f : <             ",
"  + g ; - - - - 2 8 8 8 8 8 h i i ~ ~ ~ ~ ~ j ( : ( ' '   4 k - 2 - - - ; & & *   6 l 8 8 c c c c 0 0 0 0 c c a ( / /           ",
"  m n - - - - ~ ~ 2 8 8 8 8 8 8 8 i i i i i 0 0 a : : ( / o - - 2 - - - - ; & p * q 8 8 8 0 0 r 2 2 c 0 c 0 c c j s <           ",
"  t n - ~ ~ ~ ~ ~ 2 0 0 8 8 8 8 8 8 8 8 8 8 0 0 0 0 a < q - - - 2 ~ - - - - ; p j c c 8 8 0 r u u u r c c 0 0 0 r s <           ",
"  t n k ~ ~ ~ ~ ~ 2 0 0 8 8 8 8 8 8 8 8 8 8 8 0 0 0 0 2 - - - - c ~ - - - - c 2 c 8 8 8 0 0 r u u u r r 0 0 0 0 0 / / <         ",
"  t n n ~ ~ ~ 2 2 0 0 v w x x y y z 8 8 8 8 8 8 8 0 2 ~ - - - - 2 c A B B A 2 c 8 8 8 8 c c c 2 2 2 2 c 0 0 0 0 0 a : f ' '     ",
"    C C c c 2 8 0 0 0 D D E F D y y y z 8 8 8 8 8 0 2 ~ - - - ~ G H D D x x H c 8 8 8 8 8 8 0 0 0 0 8 8 8 8 0 0 0 0 a : : f '   ",
"    D F h h 8 8 0 a <           D D x y z 8 8 8 8 2 ~ ~ - - - ~ I {     D D x c 8 8 8 8 8 8 8 8 0 8 8 8 8 8 2 r 0 0 0 0 a : /   ",
"    D y 8 8 8 0 0 : <               E x D J 8 8 8 2 ~ ~ ~ ~ ~ K 6         E x 8 8 8 8 8 8 8 c 8 8 8 8 8 8 c c c 2 0 0 0 0 ( ( ' ",
"    D y 8 8 8 0 0 : <                 E D y 8 8 8 2 ~ ~ ~ ~ K *           D x 8 8 8 8 8 c 2 h c c 8 8 8 8 8 8 8 c 2 0 0 0 q : ' ",
"    D x z 8 8 0 0 : <                   D x 8 8 0 i c ~ i L * ,           D x 8 8 8 2 2 h 8 8 h h c c 8 8 8 8 0 0 0 0 0 0 0 : ' ",
"    D x y 8 8 0 0 : <                   D z 8 0 0 0 M M N O f P           D z 8 8 c 8 8 8 8 8 8 8 h h 2 2 8 0 0 0 0 0 0 r 0 : , ",
"      D y z 8 0 0 : Q               6 ^ c 8 8 2 M M - N R b S           > x 8 8 8 8 8 8 8 8 8 8 8 8 8 8 8 2 2 c c c c c c 2 , T ",
"      D x y 8 0 0 : T             6 7 1 8 8 i c - - - - ~ & $ $         U y 8 8 8 8 2 8 8 8 8 8 8 8 8 8 8 8 0 r r r r r r V T   ",
"        D x x z e T             6 O c 8 8 8 0 2 - - ~ ~ ~ ; & # $       D z 8 8 8 0 c 2 2 8 8 8 8 8 8 8 8 0 v w w v v w W T     ",
"        F D x x > T           6 l 8 8 8 8 0 0 2 ~ ~ ~ ~ ~ - ; & $     > x 8 8 8 8 0 0 0 c 2 2 2 2 2 2 2 2 2 D D D E D U T       ",
"            X >           6 6 q 8 8 8 8 8 0 0 2 ~ ~ ~ ~ ~ ~ - & $     U J 8 8 8 8 8 8 8 8 8 8 0 0 0 0 0 a '     U 6             ",
"                          6 l 8 8 8 8 8 0 0 0 2 ~ ~ ~ ~ ~ ~ - & $   T J c 8 8 8 8 8 8 8 8 8 8 8 8 0 0 0 : '                     ",
"                        6 J c 8 8 8 8 0 0 0 0 2 ~ ~ ~ ~ ~ ~ - & & Y j 8 8 8 8 8 8 8 8 8 8 8 8 8 8 0 0 0 : '                     ",
"                    6 6 q c 8 8 8 8 0 0 0 0 0 0 2 ~ ~ ~ ~ ~ ~ ; & o c 8 8 8 8 8 8 8 8 8 8 8 8 8 8 0 0 0 : f '                   ",
"                    6 l c 8 8 8 8 0 0 0 0 O O O 2 c A B A ~ ~ ~ c 2 8 8 8 8 8 8 8 8 8 8 8 8 8 8 0 0 0 0 a f '                   ",
"                  6 J c 8 8 8 8 0 0 0 O M R R R 2 2 D x B B A 2 2 c 8 8 8 8 8 8 8 8 8 8 8 8 8 8 0 0 0 0 0 : f '                 ",
"                6 l 8 8 8 8 0 0 0 0 Z M - - - ` b '    .D x x H c 8 8 8 8 8 8 8 8 8 8 8 8 8 8 8 0 0 0 0 0 a f '                 ",
"              6 l 8 8 8 8 8 8 8 0 2 N - - ~ ~ - $ *       D D x 0 0 2 2 2 2 8 8 8 8 8 8 8 8 8 0 0 0 0 0 0 0 : '                 ",
"            6 W c 8 8 8 8 8 8 8 0 2 - - ~ ~ ~ - & *         D z 2 2 0 0 0 8 h h 8 8 8 8 0 0 0 0 0 0 0 0 0 0 : '                 ",
"            U J 8 8 8 8 8 8 8 8 c i - - ~ ~ ~ - & # *     > J c h 0 0 8 0 0 0 8 h 8 8 8 8 8 0 0 0 0 0 0 0 0 : f ' '             ",
"          6 J 8 8 8 8 8 8 8 8 M M ~ ~ ~ ~ ~ ~ - ; # *   6 e 8 c h 0 8 0 0 0 0 0 h 8 8 8 8 8 8 8 0 0 0 0 0 0 a < f <             ",
"        6 U 8 8 8 8 8 8 8 0 i N M ~ ~ ~ ~ ~ ~ ~ - & * / j 8 c 8 h 8 8 8 0 0 0 0 0 h 8 8 8 8 8 8 0 0 0 0 0 0 0 r f : '           ",
"        U z 8 8 8 8 8 8 8 0 2 - M ~ ~ ~ ~ ~ ~ ~ - o * q c 8 8 2 8 8 8 0 0 0 0 0 0 0 h 8 8 8 8 8 0 0 0 0 0 0 0 r ..: '           ",
"      > x c 8 8 8 8 8 8 8 0 2 - Z c ~ ~ ~ ~ ~ ~ - Z 2 c c 8 c 2 8 8 8 0 0 0 0 0 0 0 h 8 8 8 8 8 0 0 0 0 0 0 0 0 +.: '           ",
"      U x 8 8 8 8 8 8 0 0 0 2 ~ ~ 2 c ~ ~ ~ ~ ~ ~ 2 c c 8 8 2 8 8 8 0 8 0 0 0 0 0 9 h 8 8 8 8 0 0 0 0 0 0 0 0 0 +.: '           ",
"      D x 8 8 8 8 8 8 0 0 0 2 ~ ~ i c ~ ~ ~ ~ ~ i c c 8 8 8 2 8 8 0 8 8 0 0 0 0 9 9 h 8 8 8 8 8 0 0 0 0 0 0 0 0 +.: '           ",
"      D x 8 8 8 8 8 8 8 0 0 0 2 i ~ i c ~ ~ ~ i c c 8 8 8 c r 8 8 8 8 8 0 0 0 0 9 2 8 8 8 8 8 8 0 0 0 c c 2 +.+.+.' '           ",
"      D x 8 8 8 8 8 8 8 8 8 8 0 2 2 2 2 c i i c c 8 8 8 8 c r 8 8 8 8 0 0 0 0 9 +.8 8 8 8 8 8 0 0 0 c h h 8 0 0 0 f f '         ",
"      D z 8 8 8 8 8 8 8 8 8 8 8 0 0 0 ~ c i c 0 8 8 8 8 8 2 8 8 8 8 0 0 0 0 0 +.8 8 8 8 8 0 0 0 0 c r 8 8 8 8 0 c a : f '       ",
"    6 x 8 8 8 8 c 8 8 8 8 8 8 8 0 0 c 2 2 c c c c 8 8 8 8 2 8 8 8 8 0 0 0 0 0 2 8 8 8 8 8 0 0 0 0 c 2 c 0 0 0 2 h 8 a : '       ",
"    U J 8 8 8 8 8 8 8 8 8 8 8 0 0 r 2 c c c c 8 8 8 8 8 8 2 8 8 8 8 c r 2 2 2 2 +.+.+.9 9 0 0 0 0 0 0 h 2 2 2 0 8 0 0 : '       ",
"  6 x c 8 8 8 8 8 8 8 8 8 8 0 r h 8 c c 8 8 8 8 8 8 8 8 8 2 8 8 8 c h 0 0 0 0 0 0 0 r r 2 +.9 0 0 0 0 0 2 2 8 8 0 0 0 : '       ",
"  X x c 8 8 8 8 8 8 8 8 8 0 r c 8 c 8 8 8 8 8 8 8 8 8 8 8 h c 8 8 8 8 0 0 0 0 0 r 0 0 0 0 0 +.+.0 0 0 c r 8 0 0 0 0 0 : '       ",
"  D x c 8 8 8 8 8 8 8 8 8 c 0 c c 8 8 8 8 8 8 8 8 8 8 8 8 8 2 8 0 8 8 8 0 0 0 0 0 0 0 +.0 0 0 +.9 0 0 2 8 8 8 0 0 c 8 : '       ",
"  D x 8 8 8 8 8 8 8 8 8 c 8 0 8 8 8 8 8 8 8 8 8 8 8 8 8 8 0 2 r 0 8 8 8 0 0 0 0 0 0 0 0 +.0 0 0 +.0 0 2 8 8 0 c 2 2 8 : '       ",
"  D y 8 8 8 8 8 8 8 8 8 8 8 c 0 8 8 8 8 8 8 8 8 8 8 8 8 8 8 8 2 0 8 c 8 0 0 r 9 8 8 0 0 +.0 0 0 +.0 0 r 2 2 c 2 8 8 0 : ,       ",
"  D y 8 8 8 8 8 8 8 8 8 8 c 0 8 8 8 8 8 8 8 8 8 h h 8 8 8 8 8 h 2 0 2 8 8 0 0 +.8 8 0 0 9 r 0 0 +.0 0 0 0 0 2 0 0 z y 6 T       ",
"  D y 8 8 8 8 8 8 8 8 8 c 8 8 8 8 8 8 8 8 8 8 8 8 8 h h 8 8 8 8 8 h 2 8 8 0 0 +.8 8 0 0 9 2 2 0 +.0 0 0 0 0 2 0 v D U T         ",
"  D y 8 8 8 8 8 8 8 c c 8 8 8 8 8 8 8 8 8 8 8 0 0 0 0 8 h 8 8 8 8 8 8 2 0 0 r +.8 8 0 0 +.r 0 +.2 0 0 0 0 0 +.j 6               ",
"  D y 8 8 8 8 8 8 c 8 c 8 8 8 8 8 8 8 8 0 0 0 0 0 0 0 0 h 8 8 8 8 8 8 2 0 0 +.c 2 8 0 0 +.0 8 8 c 0 0 0 0 r @.'                 ",
"  D y 8 8 8 8 8 c 8 8 8 8 8 8 8 8 8 8 0 0 0 0 0 0 0 0 0 0 h 8 8 8 8 8 h c 0 +.8 h c 8 +.9 8 8 8 8 0 0 0 0 0 ' '                 ",
"  D y 8 8 8 8 c c 8 8 8 8 8 8 0 8 8 8 8 8 0 0 0 0 0 0 0 8 h 8 8 8 8 8 h 2 2 r 8 h c 8 +.8 8 8 8 8 0 0 0 0 +.: ' '               ",
"  D y 8 8 8 8 c c 8 8 8 8 8 8 8 8 8 8 8 8 0 0 0 0 0 0 0 8 c 8 8 8 8 8 h 2 8 8 8 h 2 +.9 8 8 8 8 8 0 0 0 0 +.a : '               ",
"  D x z 8 8 8 c 8 8 8 8 8 8 8 8 8 8 8 8 8 8 0 0 0 0 0 0 8 8 2 8 8 8 8 8 8 8 8 8 8 h 2 8 8 8 8 8 8 0 0 0 +.c 0 : : '             ",
"  D x y 8 8 8 2 8 8 8 8 8 8 8 8 8 8 8 8 8 0 0 0 0 0 0 0 0 8 2 8 8 8 8 8 8 8 8 8 8 8 8 8 8 8 8 8 8 0 0 0 +.r 0 a : '             ",
"    D y 8 8 c h 8 8 8 8 8 8 8 8 8 8 8 8 0 0 0 0 0 0 0 0 0 0 2 8 8 8 8 8 8 8 8 8 8 8 8 8 8 8 8 8 0 0 0 +.2 0 r 0 : '             ",
"    D x 8 8 c h 8 8 8 8 8 8 8 8 8 8 8 0 0 0 0 0 0 0 0 0 0 0 +.8 8 8 8 8 8 8 8 8 8 8 8 8 8 8 8 8 0 0 +.+.0 8 h 8 : '             ",
"    F x z 8 2 8 8 8 8 8 8 8 8 8 8 8 8 0 0 0 0 0 0 0 0 0 0 0 +.8 8 8 8 8 8 8 8 8 8 8 8 8 8 8 0 0 0 9 r 0 8 8 h 8 : '             ",
"    F x y z 2 8 8 8 8 8 8 8 8 8 8 8 0 0 0 0 0 0 0 0 0 0 0 0 +.c 8 8 8 8 8 8 8 8 8 8 8 8 8 8 0 0 0 +.r 8 8 8 8 8 : '             ",
"      F x D 8 8 8 8 8 8 8 8 8 8 8 0 0 0 0 0 0 0 0 0 0 0 0 0 +.c 8 8 8 8 8 8 8 8 8 8 8 8 8 8 0 0 c r r 8 8 8 8 8 : '             ",
"        y D 8 8 8 8 8 8 8 8 8 8 8 0 0 0 0 0 0 0 0 0 0 0 0 0 +.8 8 8 8 8 8 8 8 8 8 8 8 8 8 0 0 8 2 8 h 8 8 8 8 0 : ,             ",
"        D D 8 8 8 8 8 8 8 8 8 8 8 8 8 0 0 0 0 0 0 0 0 0 0 0 +.8 8 8 8 8 8 8 8 8 8 8 8 8 8 0 8 8 2 8 8 h h 8 0 0 : )             ",
"        D F 8 8 8 8 8 8 8 8 8 8 8 8 8 0 0 0 0 0 0 0 0 0 0 c +.8 8 8 8 8 8 8 8 8 8 8 8 8 8 8 8 2 8 8 8 8 8 8 0 a ,               ",
"        D D z 8 8 8 8 8 8 8 8 8 8 8 8 8 8 0 0 0 0 0 0 0 0 +.9 8 8 8 8 8 8 8 8 8 8 8 8 8 8 8 c 2 8 8 8 8 8 0 0 #.)               ",
"        D D y 8 8 8 8 8 8 8 8 8 8 8 8 8 8 8 0 0 0 0 0 0 0 +.0 8 8 8 8 8 8 8 8 8 8 8 8 8 8 c h 8 8 8 8 8 0 0 ..6                 ",
"          D y 8 8 8 8 8 8 8 8 8 8 8 8 8 8 8 0 0 0 0 0 9 0 9 8 8 8 8 8 8 8 8 8 8 8 8 8 8 8 2 h 8 8 8 8 8 0 ../                   ",
"          D y 8 8 8 8 8 8 8 8 8 8 8 8 8 8 0 0 0 0 0 0 0 +.+.8 8 8 8 8 8 8 8 8 8 8 8 8 8 2 8 8 8 8 8 8 0 9 f /                   ",
"          D x 8 c 8 8 8 8 8 8 8 8 8 8 0 0 0 0 0 0 0 0 0 9 +.8 8 8 8 8 8 8 8 8 8 8 8 8 8 2 8 8 8 8 8 8 9 c / ' ' ' ' '           ",
"          D x z 2 8 8 8 8 8 8 8 8 8 c 0 r r r 2 r c 0 0 0 9 h 8 8 8 8 8 8 8 8 8 8 8 2 2 8 8 8 8 8 8 0 c 0 $.: : : : ( ,         ",
"          F x x 2 8 8 8 8 8 8 8 8 8 2 r 0 0 0 c 2 0 0 0 0 9 2 8 8 8 8 8 8 8 8 8 c 2 h 8 8 8 8 8 8 0 c 0 r 0 0 0 0 a #.6         ",
"            F x H 8 8 8 8 8 8 8 8 8 2 0 0 0 0 c 2 0 0 0 0 8 +.8 8 8 8 8 8 8 8 2 r 2 h 8 8 8 8 8 0 c c r 0 0 0 0 v %.)           ",
"            F D x 8 8 8 8 8 8 8 8 8 2 0 0 0 0 0 2 0 0 0 0 c +.8 8 8 0 8 z y D &.8 c 8 2 8 8 8 0 c 0 r 0 0 0 9 c U 6             ",
"              D x 8 8 8 8 8 8 8 8 8 2 0 0 0 0 r r 0 0 0 0 9 +.8 8 8 v w D D F y z 8 8 8 c h 0 0 r r 0 0 0 c j '                 ",
"              D y 8 8 8 8 8 8 8 8 8 0 2 r 0 r 0 0 0 0 0 0 9 &.y y x U 6     D x y y y z 8 0 0 r 0 0 0 0 0 0 ( ( ' ' '           ",
"              D y 8 8 8 8 8 8 8 8 8 8 0 0 0 0 0 0 0 0 0 9 c D D U T           D D D y y y v 0 0 0 0 0 0 0 0 a : : ( f ,         ",
"              F x z 8 8 8 8 8 8 8 8 8 8 0 0 0 0 0 0 0 0 ..Q                         D x w w 0 0 0 0 0 0 0 0 0 0 0 a ( )         ",
"              F x y 8 8 8 8 8 8 8 8 8 8 0 0 0 0 0 0 0 c , )                             D w v 0 0 0 0 0 r J w w w %.6           ",
"                D x z 8 8 8 8 8 8 8 8 8 0 0 0 0 0 0 0 q )                               D x w v 0 0 0 9 2 E D D D 6 T           ",
"                F D y z 8 8 8 8 8 8 8 8 8 0 0 0 0 0 a ,                                   D x w v 0 0 @.'                       ",
"                  D x y z 8 8 8 8 8 8 8 8 0 0 0 0 0 #.)                                     E x w v 0 : f '                     ",
"                    D y y 8 8 8 8 8 8 8 8 0 0 0 0 a )                                         D x w v a f ,                     ",
"                      D J 8 8 8 8 8 8 8 8 0 0 0 a '                                             E x w w *.6                     ",
"                  > ^ 2 c c 8 8 8 0 0 0 0 0 0 0 ' / / ' ' ' ' '                                   D D U 6                       ",
"                6 *.e 8 h c c 8 8 0 0 0 0 0 0 +.a _ _ : : : : : ,                                                               ",
"                X y y z h h c 8 8 0 0 0 0 c 2 0 8 8 8 8 0 0 =.-.)                                                               ",
"                  D x y y z h 8 8 8 h h 2 r 0 0 8 8 h z w w ;.)                                                                 ",
"                    D D y y 8 8 8 8 8 8 8 8 8 0 9 h c D U )                                                                     ",
"                        F z 8 8 0 9 8 8 8 8 8 8 0 ..'                                                                           ",
"                      6 y 8 8 8 0 +.z y y z 8 8 8 : f /                                                                         ",
"                      U z 8 8 0 0 +.D D x x y y z 1 : '                                                                         ",
"                    6 x z 8 8 0 ..^     D D D x y y >.)                                                                         ",
"                    U x y 8 0 J -.T           D D D 6 6                                                                         ",
"                      D y w ,.;.T                                                                                               ",
"                      D D U 6                                                                                                   ",
"                                                                                                                                "};
