/* XPM */
static char * gojira_d_xpm[] = {
"64 96 22 1",
" 	c None",
".	c #000000",
"+	c #2E7C00",
"@	c #409500",
"#	c #243444",
"$	c #3B4F62",
"%	c #526A80",
"&	c #1A5500",
"*	c #2D7500",
"=	c #16222F",
"-	c #0F3E00",
";	c #3D5468",
">	c #D8D000",
",	c #D80000",
"'	c #F1BE90",
")	c #388C00",
"!	c #246A00",
"~	c #267100",
"{	c #1B5E00",
"]	c #1E3E00",
"^	c #345500",
"/	c #467C00",
"                                               +@@@@@ #$%%%%%   ",
"                                              &*******=###$%%   ",
"                                              -&&&&**=#####$%   ",
"                                              --&&&&&=#####$%   ",
"                           +@@@@@@@@@           -&&&&=#####$%%  ",
"                          -@@*******@@           -&&&&=####$$%  ",
"                         -&&&@@**&&&@@@           -&&&*=###$;;  ",
"                         -&&&&***&&**@@           -&&&**=#=#    ",
"                        -&>>&&**&&**>>*@           -&&***=@@    ",
"                        -&>>,>***&>,>>*@           -&&***@@@    ",
"                       -&&*@@*@@@@@@@@@*@           -&***@@@    ",
"                     -&&&-@**@@@&****@@@@@@         -&****@@    ",
"                     -&&-**&&&&-&&&&&*@*@@@         -*****@@    ",
"                    -&&&-&---&&&&---&&@*@@@@        -*****@@    ",
"                    -&&&&&&&&&&&&&&&&&**@@@@     =$%%%%***@@    ",
"                    -&&-&&&&&&&&&&&&&&*&++@@   =#$$$$%%%;*@@    ",
"                    -&-'-&&&&&&&&&&&&&-'@@*@ +@=$###$$$$**@+    ",
"                    -&&'&-&&&&&&&&&&--&'***@@**=#######=**@     ",
"                 =##-&&&&'----------&'&****@**=#######=***@     ",
"                 =#$--&&&'&''&''&''&&'***&-+***=###===***@+     ",
"                =#####--&&&&'&&'&'&&&&**--*****====******+      ",
"                =######--&&&&&&&&&&&&&*&)***************@       ",
"               =#######--&&&&&&&&&&&&&&-)**************++       ",
"             &*=######-&&--------------&))*********&&&+         ",
"           -***=######-&&&&&&&&&&&&&&&&)))&&&&&&&---            ",
"         -&&***==###=-&&&&&&&&&&&&&&&**))))&&&---               ",
"       -&&&******===*-&&&&&&&&&&******)))))---                  ",
"      -&&&*********-&&&&&&&&&&&&*****))*)))))                   ",
"      -&=$*****!+&&&&&&&&&&&&&&&&&*****)))))))@@@               ",
"     -&=#$-&&&&***&&&&&&&&&&&&&&&&&&*&~~~~~~)))***@@@@          ",
"    -&&=$%-&&*****&&-----------&&&&-&*))))))~~~)****@@          ",
"    -=#$$-&&*******&&&&&&&&&&&&-&-&*******))))~)*****@@         ",
"    -=#$-&&********&&&&&&&&&&&&&&&***********))~******@@        ",
"   -=##$-&&********+&&&&&&&&&&&&*&************))&&****@@        ",
"   -=##$-&&&*******@&&&&&&&&&&&&*&************))&&****@@        ",
"   -&=#$-&&&******@+&&&&&&&&&&&&*&************))&&****@@        ",
"   -&=-&&&&******@+&&&&&&&&&&&&&&&***********)))&&&***&*@@      ",
"  -&&-&&&&******@+&&&&&&&&&&&&&&&&***********)))&+@@*-**@@@     ",
"  -&&-&&******@@+-&&&&&&&&&&&&&&&&***********))-&&*@!-&*@@@@    ",
"  -&&-&-*@@@@@@@@-&&&&&&&&&&&&&&&&**********))) -**@@-&*@@*@@   ",
"  -&&-&-***+@@@@@-&&&&&&&&&&&&&&&-&&******))))) -&**@&-*@+&+@@  ",
"  -&&--***-*@@@@-&@&&&&----------&&&-----&~))+@ -&&*@&-&@&-*@!@ ",
"  -&&-&***-**@@*-&@&&--&&&&&&&&&&&&-&&****)~-**@+-&*+&-&+&-&*@@ ",
"  -&&-&***-&*@+&&&*@-&&&&&&&&&&&&&&&&*******-&*@@&-&**--*&-&*@@ ",
"   -&-&-@&-&*@&-&**@&&&&&&&&&&&&&&&&********-&&*@*&-&&&&&*-&*@! ",
"   -&-&-*@&-*@&-&**+&-@&&&&&&&&&&&&&********-&&*+&&&&&&&&+-&*@  ",
"   -&--**@&-&@&-&*+*-&@@&&&&&&&&&&&&*********-&*-&&&&&&&+!!-*+  ",
"   -&&-&*@&&--&&-+&-&&*@&&&&&&&&&&&&*********-&&)-&&&&&!!---&   ",
"    -&-&@@&&&&&&-&&-&&*@&&&&&&&&&&&&**********-*))-----    -    ",
"    -&-&*+&&&&&&&&&-&*@+&&&&&&&&&&&*************)))             ",
"    -&-&&&--&&&&&&&&-*@&&&&&&&&&&&&&&***********)))             ",
"     -&-&&**--&&&&&&-*+&&&&&&&&&&&--*&&*********)~)             ",
"      ---&**-&----&&&!&&&&&-------&&&**&&&&&&&&&~~))            ",
"     -&&&&&&-&&&&&&&-------&&&&&&&&&&************))~@           ",
"     -&&&&&&&-&&&&&&&&&&&&&&&&&&&&&&&************))+@@          ",
"    -&&&&&&&&-&&&&&&&&&&&&&&&&&&&&&&&***********)))&@@@         ",
"    -&&&&&&&&-&&&&&&&&&&&&&&&&&&&&&*************)))&*@@@@       ",
"   -&&&&&&&&&-&&&&&&&&&&&&&&&&&&&&&*************)))&***@@@@     ",
"   -&&&&&&&&&-&&&&&&&&&&&&&&&&&&&&&************)))~&****@@@     ",
"   -&&&&&&&&&&--&&&&&&&&&&&&&&&&&&&************)))&&*****@@@    ",
"   -&&&&&&&&&&-&--&&&&&&&&&&&&&&&&&&***********)))&******@@@    ",
"   -&&&&&&&&&&-&&&---&&&&&&&&&&&&&&&&&*********)~~&*******@@@   ",
"  -&&&&&&&&&&&&-&&&&&----&&&&&&&&-----&&&*****)~)&&*******@@@   ",
"  -&&&&&&&&&&&&-&&&&&&&&&--------&&&&****&&&&&~)~&*********@@   ",
" -&&&&&&&&&&&&&&-&&&&&&&&&&&&&&&&&&&**********))&&*********@@   ",
" -&&&&&&&&&&&&&&-&&&&&&&&&&&&&&&&&&**********)))&&&********@@   ",
" -&&&&&&&&&&&&&&-&&&&&&&&&&&&&&&&&&**********))~&&&********@@@  ",
" -&&&&&&&&&&&&&&&-&&&&&&&&&&&&&&&&&*********)))&&&&&*******@@@  ",
"  -&&&&&&&&&&&&&&-&&&&&&&&&&&&&&&&&*********)~~&&&&&&*******@@@ ",
"  -&&&--&&----&&&&--&&&&&&&&&&&&&&&&&******~~)&&&&&&&*******@@@ ",
"  ---&-&&&&&&&-&&&-&----&&&&&&&&&---&****&&))~&&&&&&&*******@@@ ",
"  --&&-&&&&&&&&&++ -&&&&---------&&&&&&&&*)*)&&&&&&&*********@@ ",
" --&&&&&&&&&&&-&+@ -&&&&&&&&&&&&&&&********)~&&&&&&&********@@  ",
"-&&&&&&&&&&&&&&&@@  --&&&&&&&&&&&&********~~-&&&&&&&&*@@****@@  ",
"-&&&&&-&&&&&&&***@    -&&&&&&&&&&&*******~   -&&&&&-****@@*@@@  ",
"-&&&&&&-&&&&-****@@    --&&&&&&&&&&****&~     -&&&&-&&****@@@@  ",
"-&&&&&&&----&****@+      -&&&&&&&&&***~       ---&&-&&****@@@@@ ",
"-&&&&&&&&&&&*****@        --&&&&&&**~~        -&&&&-&&****@@@@@@",
"-&&&&&&&&&&*****@@          -----{{~          -&&&&-&&****@**@@@",
"-&&&&&&&&&&*****@+                           -&&&&&-&*@*@@***@@@",
"-&&&&&&&&&*****@@                            -&&&&&&&&*******@@@",
" -&&&&&&&&****@@+                             -&&&&&&&*******@@@",
" -&&&&&&&&****@@                              -&&&&&&&&******@@@",
" ---&&-&&&@@@@@@                              -&&&&&&&&******@@@",
" -&&&&-&&&-&**@@                               -&&&&&&&******@@+",
"-&&&&-&+&+&-&&&@@                              -&&&&&&&&*****@@ ",
"-&&&+-&&@@@&&&&*@                               -&&&&&&&&&***@@ ",
"-&]^+-&&***+&&&*@                               -&--&&&&&&&&*+@ ",
"-]]^/+&&]^*+&]]^@+                              --&+----&&&--&* ",
" -]^/--]]^^!]]^^/                              -&@@@-&&@@*&-&**@",
" -]^+  -]]^ -]^^+                              -&**@!&&**+&-&**@",
"  --   ---&  --+                               -&**@!&&**++&]^*@",
"                                              -&]^^*!&]^*@+]]^^+",
"                                               -]]^^!]]^^+-]]^/ ",
"                                               -]]^& -]^^  &]]+ ",
"                                                --&  &--&   --  "};
