/* XPM */
static char * godjira_l_xpm[] = {
"64 96 111 2",
"  	c None",
". 	c #000000",
"+ 	c #325A1B",
"@ 	c #335A1C",
"# 	c #477233",
"$ 	c #365D2C",
"% 	c #365F1E",
"& 	c #335B24",
"* 	c #3B6639",
"= 	c #366519",
"- 	c #38661B",
"; 	c #467823",
"> 	c #497B24",
", 	c #203E18",
"' 	c #142428",
") 	c #2B4B32",
"! 	c #315C17",
"~ 	c #447821",
"{ 	c #5A952D",
"] 	c #39661A",
"^ 	c #345D18",
"/ 	c #375F21",
"( 	c #213D12",
"_ 	c #08140D",
": 	c #1D313D",
"< 	c #315917",
"[ 	c #264A12",
"} 	c #1F3E0E",
"| 	c #477D24",
"1 	c #3D6528",
"2 	c #091307",
"3 	c #060D0B",
"4 	c #335546",
"5 	c #406F1F",
"6 	c #37671A",
"7 	c #0F2306",
"8 	c #336119",
"9 	c #112406",
"0 	c #39671B",
"a 	c #4C8226",
"b 	c #234010",
"c 	c #202F20",
"d 	c #2F5615",
"e 	c #1D380D",
"f 	c #223E1C",
"g 	c #0B1704",
"h 	c #356019",
"i 	c #131F27",
"j 	c #244211",
"k 	c #264C12",
"l 	c #425F09",
"m 	c #456E32",
"n 	c #2A4731",
"o 	c #0F2506",
"p 	c #4C5F0C",
"q 	c #142809",
"r 	c #9FAB1C",
"s 	c #284B12",
"t 	c #050D02",
"u 	c #30561E",
"v 	c #0E1B1A",
"w 	c #0C1B14",
"x 	c #071402",
"y 	c #0D2205",
"z 	c #2F561C",
"A 	c #3C731C",
"B 	c #081403",
"C 	c #050D01",
"D 	c #152811",
"E 	c #081603",
"F 	c #244210",
"G 	c #355F18",
"H 	c #0D1A0B",
"I 	c #0A1411",
"J 	c #203E0F",
"K 	c #264911",
"L 	c #0E2205",
"M 	c #0F1A0E",
"N 	c #2F5616",
"O 	c #08110D",
"P 	c #153608",
"Q 	c #091903",
"R 	c #0C1A04",
"S 	c #081103",
"T 	c #0A1309",
"U 	c #162215",
"V 	c #0A1604",
"W 	c #264516",
"X 	c #183909",
"Y 	c #254025",
"Z 	c #18360B",
"` 	c #274B12",
" .	c #152D09",
"..	c #315920",
"+.	c #223521",
"@.	c #0D171A",
"#.	c #0E1D0B",
"$.	c #2F5A16",
"%.	c #254216",
"&.	c #101E0E",
"*.	c #213E10",
"=.	c #102307",
"-.	c #2C5A13",
";.	c #315B17",
">.	c #305B16",
",.	c #37661A",
"'.	c #112507",
").	c #1B390C",
"!.	c #39631C",
"~.	c #41751F",
"{.	c #2F5C14",
"                                                                                    + @ # # # # $                               ",
"                                                                                  % & * * * * * * $                             ",
"                  = - ; ; ; ; >                                                 + , ' ' ' ' ' ) * * $                           ",
"              = ! ~ { { { ~ ~ ] ^ ^ ^ >                       % /               ( _ ' ' : : : ' ) * < ; ; ; ;                   ",
"              = [ } } } } } | ~ ~ { { ] ^           + @ 1 1 $ ^ # <             2 3 ' : : : : : : 4 ^ { { { ] 5 1 1 1 1         ",
"            6 7 8 9 } 8 8 8 } } } 0 a { { ^       % & * * * ) b * <         = - 9 c : : : : : : : 9 9 0 0 a { 1 1 # # # 1 $     ",
"          d e 9 } 9 9 } } } } 9 9 9 9 a { ] ^   % f ' ' ' ' ' g * * <   = - ] h 9 g : : : : : i i j 0 0 0 0 0 g ' ' ) * * * $   ",
"          k l g 9 9 } 9 } 9 g g j 0 0 0 a { ] m n ' ' ' ' ' ' g ) * $ ^ ] h } } } } i i i i i } } } } } } 0 g : : ' ' ' ) * $   ",
"          o p q } } } 9 9 j r r r j 0 0 0 s ] b i ' ' ' ' ' : g ' ) * s q } } } } } 0 } } } } } } } } } } } g : : : : : ' * $   ",
"        6 t g 0 0 0 0 0 j j r r r j 0 0 0 0 } 9 g 9 ' ' ' ' : 9 ' ' ' ' g } } } } } } } } } } } } } } } } } g : : : : : ' * u   ",
"    = - | 0 0 0 0 0 0 0 9 g g g g 9 9 9 0 0 } } 9 g : : v w x t ' ' ' ' : g } } } } } } } } } } 7 x x y y y 7 g g : : : ' * z   ",
"  = A a 0 0 0 0 0 0 0 0 0 0 } } } } } 0 0 0 } } 9 g 9 B C C C D v ' ' ' : g } } } } } } } } 7 y C E E C C y y } } g 9 9 F G     ",
"  e 7 0 0 0 0 } q g } } } } } } } } } 0 0 0 0 0 9 9 b d     H D w I ' ' : : g } } } } } } B e d           E y } } 0 j j > ^     ",
"= x 9 } 0 0 } g 9 9 9 } } } } } } 9 } } 0 0 0 0 0 s >         C D w : : : : g } } 0 9 g J 6               E y } } } 0 0 { ^     ",
"K y 9 } } } g 9 } } } } } } } 9 9 q g 9 0 0 0 0 0 ] ^           H D : : : : g } } 0 0 b 6                 E y } } } 0 0 { ^     ",
"L y } } } } } } } } } } } 9 9 q q } } q g g 0 0 0 ] ^           L H M i : 9 i } } 0 s ^                   E y } } } 0 0 ] N     ",
"L y 7 q } } } } } } } g g q q } } } } } } 0 9 0 0 { ^           O P Q R S S } } } } { ^                   E y } } } 0 0 ] d     ",
"E L C B 9 9 9 9 9 g g } } } } } } } } } } 0 0 0 0 { ] >           Q T U R ' S S g } { ] ^ ^               E y 7 } } 0 a N       ",
"  E L E V q q q q } } } } } } } } } } } } g 0 0 0 a { ^         + T ' : ' ' ' ' 9 i h { { ] ^             E y y } 0 0 ] d       ",
"    E x y y y 7 7 y y 7 } } } } } } } g g 9 0 0 0 0 { ^       + W ' ' : : : ' ' g } } } a ] ^ ^             E y X B J d         ",
"      o C C E C C C C C g g g g g g g 9 } 0 0 0 0 0 { ] >     ( _ ' ' : : : : : g } } } } a { ] ^           o o x x d 6         ",
"            e d     L y } } } } } } } } } } 0 0 0 0 a ] ^     2 _ ' : : : : : : g } } } } } a { ] ^ ^           k 6             ",
"                    L y } } } } } } } } } } 0 0 0 0 0 ] ] >   2 I ' : : : : : : g } } } } } 0 a { ] ^                           ",
"                    L 7 } } } } } } } } } 0 0 0 0 0 0 a { ^ < ' ' ' : : : : : : g } } } } } } 0 0 ] ] ^                         ",
"                  = P } } } } } } } } } } 0 0 0 0 0 0 0 a ] Y ' ' : : : : : : g } } } } } } } 0 0 a ] ] ^ ^                     ",
"                  K Z } } } } } } } } } 0 0 0 0 0 0 0 0 0 0 g 9 : : : : : v x t `  . .} } } } } 0 0 a ] ] ^                     ",
"                = P } } } } } } } } } } 0 0 0 0 0 0 0 0 0 0 9 g g : : v x C C C U U U S  .} } } } 0 0 0 ] ] ^                   ",
"                K P } } } } } } } } } } 0 0 0 0 0 0 0 0 0 0 0 9 g 9 B e ..  L 2 +.' ' ' S @.} } } 0 0 0 a { ] ^                 ",
"                L y } } } } } } } } } } 0 0 0 0 0 0 g g g g 0 0 9 b d       H 2 ' : : ' ' R g } } } 0 0 0 a { ] ^               ",
"                L 7 } } } } } } } } } } } 0 0 0 j j 0 0 0 0 g g a ^         H I ' : : : ' ' g } } } } 0 0 0 a ] ] ^             ",
"            = = 8 } } } } } } } } } } } } 0 0 j } } } 0 0 0 0 j ] ] >     % #.' ' : : : ' ' i 9 } } } 0 0 0 0 a ] ^             ",
"            ! $.q } } } } } } } } } } } } 0 } q } } } 0 0 0 0 j s { { ^   %.&.' ' : : : : : : S S } } } 0 0 0 0 { ] ^           ",
"          = y 8 q } } } } } } } } } } } } 0 q } } } } 0 0 0 0 j 0 s { ^ ^ c ' ' : : : : : : : S R i } } } 0 0 0 a { ^ ^         ",
"          K y 8 q } } } } } } } } } } } } q } } } } } 0 0 0 0 0 g 0 a ] s c @.' : : : : : : : S ' g } } } 0 0 0 0 a { ^         ",
"          L y *.} } } } } } } } } } } } } q } } } } } } 0 0 0 0 g 9 0 9 9 g @.' : : : : : : 9 @.' g } } } } 0 0 0 0 ] ] >       ",
"          L y *.} } } } } } } } } } } } } q 8 } } } } } } 0 0 0 0 g 0 0 9 9 g : : : : : : 9 g : : g } } } } 0 0 0 0 a ] ^       ",
"          L y *.0 } } } } } } } } } } } } q 8 8 } } } } } 0 0 0 0 g 0 0 0 9 9 i : : : : : 9 i : : g } } } } } 0 0 0 0 ] ^       ",
"          L =.*.*.*.g 9 9 } } } } } } } } } g 8 } } } } } 0 0 0 0 j 9 0 0 0 9 9 i : : : 9 i : i g } } } } } } 0 0 0 0 ] ^       ",
"        = Z 8 0 0 0 0 j j 9 } } } } } } } } } *.8 } } } } 0 0 0 0 j 9 0 0 0 0 9 9 i i 9 g g g g } } } } } } } 0 0 0 0 ] ^       ",
"      = -.} } 9 } } } 0 0 j 9 } } } } } } } } } *.} } } } } 0 0 0 0 g 0 0 0 0 0 0 9 i 9 : } } } } } } } } } } } 0 0 0 { ^       ",
"      K y } } q g } } 0 9 g 9 } } } } } } } } } g } } } } 0 0 0 0 0 g 0 0 0 0 9 9 9 9 g g 9 } } } } } } } } } 9 0 0 0 { ] ^     ",
"      L y } } 0 0 g g g q } } } } } 0 8 8 *.*.*.g g g g j 9 0 0 0 0 g 0 0 0 0 0 0 9 9 9 9 g q } } } } } } } } } } 0 0 a ] ^     ",
"      L y } } 0 0 0 g g } } } } } 8 *.g j j 0 0 0 0 0 0 0 j 9 0 0 0 g 0 0 0 0 0 0 0 0 0 9 9 } q q } } } } } } } } 0 0 0 ] ] ^   ",
"      L y } 0 } } 0 0 j 9 } } } *.*.0 0 0 0 0 j 0 0 0 0 0 0 0 0 0 9 j 0 0 0 0 0 0 0 0 0 } } 9 } 9 q } } } } } } } 0 0 0 s ] >   ",
"      L y } 9 0 0 } 0 0 g } } 8 *.0 0 0 *.0 0 0 0 0 0 0 0 0 0 0 0 g 0 0 0 0 0 0 0 0 0 0 0 } } 9 9 } 9 } } } } } } 0 0 0 9 ] ^   ",
"      L y } g g 9 } } } g } } *.0 0 0 *.0 0 0 0 0 0 0 0 0 0 0 0 j g 0 0 0 0 0 0 0 0 0 0 0 0 } } } } } 9 } } } } 0 0 0 0 0 ] ^   ",
"      L y 7 } } g 9 g g q } } *.} 0 0 *.} 0 0 0 8 q } 0 0 9 } 0 g 0 0 0 0 0 0 0 0 0 0 0 0 0 0 0 } 9 } } } } } 0 0 0 0 0 0 { ^   ",
"      E C y y y 7 g } } } } } *.} } q 8 0 0 0 0 *.} } 0 0 g } g j 0 0 0 0 0 j j 0 0 0 0 0 0 0 0 0 0 9 } } } } 0 0 0 0 0 0 { ^   ",
"        E C C y y t } } } } } *.} g g 8 0 0 0 } *.} 0 0 0 g q } 0 0 0 0 j j } } } } } 0 0 0 0 0 0 0 0 9 } } } 0 0 0 0 0 0 { ^   ",
"              C C L } } } } } g *.} q *.0 0 0 } *.j 0 0 g } } } 0 0 0 q } } } } } } } 0 0 0 0 0 0 0 0 0 9 9 0 0 0 0 0 0 0 { ^   ",
"                L L q } } } } 9 } } } *.0 0 } g 9 *.0 0 g } } } 0 0 0 q } } } } } } } } 0 0 0 0 0 0 0 0 9 0 9 0 0 0 0 0 0 { ^   ",
"                L =.} } } } } } } } } 8 *.0 9 q } *.0 9 q } } } } 0 q } } } } } } } } } 0 0 0 0 0 0 0 0 0 0 0 9 0 0 0 0 0 { ^   ",
"              = L } *.} } } } } } } } } *.} 9 q } j g g q } } } } 0 q } } } } } } } } } 0 0 0 0 0 0 0 0 0 0 0 9 9 0 0 0 0 { ^   ",
"              K 7 } *.} } } } } } } } } 8 *.g q } } } g q } } } } } 9 } } } } } } } } } 0 0 0 0 0 0 0 0 0 0 0 9 9 0 0 0 0 { ^   ",
"            = y } } 9 *.} } } } } } } } } g q } } } } } } } } } } g } } } } } } } } } 0 0 0 0 0 0 0 0 0 0 0 0 0 9 0 0 0 0 ] N   ",
"            K y } } q *.} } } } } } } } } } } } } } } } } } } } } g } } } } } } } } } 0 0 0 0 0 0 0 0 0 0 0 0 0 g 0 0 0 0 ] d   ",
"            L y } q } g *.} } } } } } } } } } } } } } } } } } } } g } } } } } } } } } 0 0 0 0 0 0 0 0 0 0 0 0 0 j 9 0 0 a ^     ",
"            L y } q } } *.*.} } } } } } } } } } } } } } } } } } } *.} } } } } } } } 0 0 0 0 0 0 0 0 0 0 0 0 0 0 j 9 0 0 ] ^     ",
"            L y } q } } } q 8 } } } } } } } } } } } } } } } } } } *.} } } } } } } 0 0 0 0 0 0 0 0 0 0 0 0 0 0 0 0 g 0 0 ] 0     ",
"            L y } } } } } q *.} } } } } } } } } } } } } } } } } 9 *.} } } } } } } 0 0 0 0 0 0 0 0 0 0 0 0 0 0 0 0 g 0 0 ;.6     ",
"            L y } } } } } q q 9 } } } } } } } } } } } } } } } } 9 *.} } } } } } } 0 0 0 0 0 0 0 0 0 0 0 0 0 0 0 0 0 g s 6       ",
"            L y 7 } } } } q } g } } } } } } } } } } } } } } } } } *.} } } } } } } 0 0 0 0 0 0 0 0 0 0 0 0 0 0 0 0 0 b {         ",
"            L y y } } q q } } g } } } } } } } } } } } } } } } } } *.} } } } } } } 0 0 0 0 0 0 0 0 0 0 0 0 0 0 0 0 0 ^ ^         ",
"              L y 7 } } } } } } g } } } } } } } } } } } } } } } } *.9 } } } } } } 0 0 0 0 0 0 0 0 0 0 0 0 0 0 0 0 0 > ^         ",
"              L P y 7 } } } } } g 9 } } } } } } } } } } } } } } } 8 *.} } } } } } 0 0 0 0 0 0 0 0 0 0 0 0 0 0 0 0 0 ^ N         ",
"                C P y } } } } } } q 9 } } } } } } } } } } } } } } } *.} } } } } } 0 0 0 0 0 0 0 0 0 0 0 0 0 0 0 0 0 ^ d         ",
"                  C P } } } } } } q g } } } } } } } } } } } } } } } 8 } 8 } } } } 0 0 0 0 0 0 0 0 0 0 0 0 0 0 0 0 a ^           ",
"                  C Z 8 } } } } } } } g } } } } } } } } } } } } } } *.*.} } } } } 0 0 0 0 0 0 0 0 0 0 0 0 0 0 0 0 { ^           ",
"          = - ; ; *.g 9 8 } } } } } } g } } } } } } } } } } } } } } *.8 } } } } } 0 0 0 0 0 0 0 0 0 0 0 0 0 0 9 0 ] ^           ",
"        = >.,.~ h } q } 9 } } } } } } } g g } } } } } } } } } } } q 8 } } } 9 q g j j j 0 9 0 0 0 0 0 0 0 0 0 g 0 ] N           ",
"        e P y 7 } } } q } 9 } } } } } } } q g 9 } } } } } } } } } g 8 } } } } g 9 0 0 0 j g 0 0 0 0 0 0 0 0 0 g 9 ] 6           ",
"          L y y y 7 } } q 9 9 } } } } } } q g q g } } } } } } } } *.} } } } } g 9 0 0 0 0 g 0 0 0 0 0 0 0 0 0 g s 0             ",
"            C C x P } } } q } 9 } } } } g } 9 0 j g 7 y y 7 } } } *.9 } } } } g } 0 0 0 0 g 0 0 0 0 0 0 0 0 0 9 ^ 6             ",
"                L t 9 } } } q q } } q 9 } } } 0 0 '.C C X X X ).0 *.8 } } } } q q 0 0 0 0 g 0 0 0 0 0 0 0 0 0 s ^               ",
"          = - ; 9 9 } } } } } } q } } } } } 7 X } d     C C x X X o P 7 } } } } } j 0 j g 0 0 0 0 0 0 0 0 0 0 { ^               ",
"        = A ;.h } } } } } } } } } } } } 7 y C e d           o C C C x P } } } } } 0 0 0 0 0 0 0 0 0 0 0 0 0 0 { ^               ",
"        K x y } } } } } } } } } } 0 } } } d                         E P 7 } } } } } 0 0 0 0 0 0 0 0 0 0 0 0 0 ] 0               ",
"          C y y y y x E 7 } } } } 0 a N                             L L x 7 } } } } } 0 0 0 0 0 0 0 0 0 0 0 0 ] 6               ",
"          E C C C C E C P } } } } 0 ;.d                               L x y } } } } } } 0 0 0 0 0 0 0 0 0 0 s N                 ",
"                      L =.} } } 0 J d                                   L y 7 } } } } } 0 0 0 0 0 0 0 0 0 0 N 6                 ",
"                    = P } } } } J 6                                     L P y 7 } } } } } 0 0 0 0 0 0 0 0 J d                   ",
"                    K P 7 } } J d                                         L y y } } } } } 0 0 0 0 0 0 0 a d                     ",
"                    C x y X } 6                                             L 7 } } } } } 0 0 0 0 0 0 s ^                       ",
"                      C C e d                                   = - ; ; ; ^ g *.} } } } } } 0 0 0 0 9 ] ^ ^ >                   ",
"                                                              = = ,.~ ~ ~ a } } *.} } } } } 0 0 0 9 9 !.{ { ] N                 ",
"                                                              K P y y 7 } } 0 } } g 9 } } 0 0 0 0 9 j j 0 a ~.6                 ",
"                                                                L L y y y E 7 } 0 0 j g j j 0 0 0 j 0 0 ).} d                   ",
"                                                                    L C C x E 8 } 0 0 0 0 0 0 0 0 0 0 0 e d                     ",
"                                                                          L Z } } 0 0 0 0 } 8 } } 0 a >                         ",
"                                                                        d P } } } 0 0 0 ).y L 7 } } { { ^                       ",
"                                                                        K y } } 0 ).x x C C L y } } h { ^                       ",
"                                                                        L y y y x C e d     C P 7 } } { ] N                     ",
"                                                                        C C C e d           E P x y 7 a ] d                     ",
"                                                                                              E L P y {.d                       ",
"                                                                                                  C C d d                       ",
"                                                                                                                                "};
