/* XPM */
static char * gojira_u_xpm[] = {
"64 96 12 1",
" 	c None",
".	c #000000",
"+	c #16222F",
"@	c #243444",
"#	c #3B4F62",
"$	c #526A80",
"%	c #1A5500",
"&	c #2D7500",
"*	c #409500",
"=	c #2E7C00",
"-	c #0F3E00",
";	c #3D5468",
"   +@@@#$$ %&&&&&                                               ",
"   +@@@@#%&&&&&&&*                                              ",
"   +@@@%&&&&&&&***                                              ",
"   +@@@%&&%&&&**==                                              ",
"  +@@@%&&%&&&**=           -&********                           ",
"  +@@@%&%&&&**=           -%&&&&&&****                          ",
"  ++@%&%%%%&=*           -%%&&&&&&&****                         ",
"    +%&&&&&**=           -%%&&&&&&&&***                         ",
"    -&&&&&&**           -%%&&&&&&&&&&&**                        ",
"    -&&&&&&*=           -%%&&&&&&&&&&&**                        ",
"    -&&&&&&*           -%%&&&&@$&&&&&&&**                       ",
"    -%&&&&&*         -%%%%&&&+#$$&&&&&&&***                     ",
"    --&&&&&*         -%%%&&&&+##$&&&&&&&&**                     ",
"    ---%%&&&@#$$##  -%%%%&%%+@##$$&&&&&&&***                    ",
"    -%%&%%%%%@@@@@#$-%%%%&%%+@###$&&&&&&&&**                    ",
"    -%%%&&&&&&*@@@@#-%%%%%%%+@@##$&&&&&&%%=*                    ",
"    -%%%%&&&&&&****#-%%%%%%%%+@##$&&&&&&%%=*                    ",
"     -%%%%&&&&&&&******%%%%%%+@##;&&&&@###$$                    ",
"     -%%%%&&&&&&&&&&&*****%%%+@#$&&&&@@@@###$$$                 ",
"     -%%%%%&&&&&%%&&&&&&&&********&*+@@@@@@###$                 ",
"      -%%%%%%&&&&&%%&&&&&&&&&&&*********@@@@@@#$                ",
"       -%%%%%--%%%&&&&&&&&&&&&&&&&&&*********@@#                ",
"       --%%--%%%%&&&&&&&&%%&&&&&&&&&&&&**********               ",
"         ---%%%%%%%%&&&&&&&%&&&&&&&&&&&&&&&********             ",
"            ---%%%%%%%%&&&%&&&&&&%%%&&&&&&&&&&&******           ",
"               ---%%%%%%%%&&&&&&&&&%&&&&&&&&&&&&&&*****         ",
"                  ---%%%-%%&&&&&&&&%&&&&&&&%&&&&&&&&*****       ",
"                   -----%%%%%%&&&&&%&&&&&&&&%%&&&&&&&*****      ",
"               =**-%%%%%----%%%%%%%&&&&&&&&&&&%%&&&&&&****      ",
"          -%%&&&%-%%%%%%%%%%----%--%%%&&&&&&&&&&%%&&&&&****     ",
"          -%%&%%-%%%%%%%%%%%+@#----%%%%%%%&&&&&&%%&&&&&&****    ",
"         -%%%%%%-%%%%%%-%%%+@@###&&----%%%-%%%%%&&&&&&&&&***    ",
"        -%%%%%%%-%%%%--%%%+@@@####*****-%--%%&&&&&&&&&&&&***    ",
"        -%%%%%%%-%%%-%%%%%+@@@####&&&&&&-%%%%%&&&&&&&&&&&&***   ",
"        -%%%%%%%-%%-%%%%%%+@@@####&&&&&&&-%%%%%&&&&&&&&&&&***   ",
"        -%%%%%%%---%%%%%%%+@@@#####&&&&&&&-%%%%%&&&&&&&&&%&**@$ ",
"      -%%%%%%%%&--%%%%%%%%+@@@#####&&&&&&&&--%%%%&&&&&&&&&%**@$ ",
"     -%%%%%%%%%&-%%%%%%%%%+@@@####@&&&&&&&&&*-%%%%&%&&&&&&&=**#$",
"    --%%%%%%%%&*=-%%%%-%%%%+@@####&&&&&&**&&**-%%%%&%&&&&&&=**#;",
"   -%-%%%%%%%%&* -%%%-%%%%%+@@###@&&&&&&&&***--%%%%&%&&&&&&*=*# ",
"  -%%-%%%%%%%%*= -%--%%%%%%%+@##@&&&&&&&&&&**-%-%%%%%&&&&&%=**@ ",
" -%%%-%%%%%%%**  --%%%%%%%%%+@@@&&&&&&&&&&&&%-------&&%%%%&***  ",
" -%%%-%%%%%%%*=**--%%%%%%%%%%@&&&&&@##$$&&&&%&%%-%%%&&&&&&&&**  ",
" -%%%-%%%%%%&*&&--%%%%%%%%%%%%%&&+@####$&&&%&&%%-%%%%&&&&&&&*=  ",
" -%%%%-%%%%&%=&&-%%%%%%%%%%%%%%&&+@@@@#$&&*%&&%%-%%%%&&&&&&&*   ",
" --%%%%-----==&-%%%%%%%%%%%%%%%+@@@@@@#$&&%&&&%%-%%%%%&&&&&&*   ",
"-%*--%%%%&%=&&%-%%%%-%%%%%%%%%%+@@@@@@#;&%&&&&%%-%%%%%&&&&&&*   ",
"-%&* --%==%%%%-%%%--%%%%%%%%%%+@@@@@@#$&&%&&&%%%-%%%%%&%&&&&=   ",
"-%%* -%%&------%--%%%%%%%%%%%%+@@@@@@#$%&&&&&%%%------%%%&&&    ",
"-%%=  -%% -%&---%%%%%%%%%%%%%%+@@@@@@%&&&&&&%%%%%%%%%%%&&%%&    ",
"-%%   -%% -%%-%%%%%%%%%%%%%%%%+@@%&&&&&&&&&%%%%-%%%%%%%&&&&%    ",
" -%    --  ---%%%%%%%%%%%%%%%%&&&&%%%%%%%%%%%%-%%%%%%%%&&&%     ",
"  -        --%%%%%%%%%%%%%%&&%%%%%%%%%%%%%%%%%-%%%%%%%%&&&      ",
"           -%%%%%%%%%%%%-%%%%%%%%%%%%%%%%%%%%%-%%%%%%%%&&%*     ",
"          -%%%%%%%%%%%-%%%%%%%%%%%%%%%%%%%%%%%%--%%%%%-%%**     ",
"         -%%%%%%%%%%-%%%%%%%%%%%%%%%%%%%%%%%%%%%%-----%&&***    ",
"       -%%%%%%%%%%%-%%%%%%%%%%%%%%%%%%%%%%%%%%%%%%%%%%%%&&**    ",
"     -%%%%%%%%%%%%-%%%%%%%%%%%%%%%%%%%%%%--%%%%%%%%%%%%%&&&**   ",
"     -%%%%%%%%%%%-%%%%%%%%%%%%%%%%%%%%%%-%%%%%%%%%%%%%%&&&&**   ",
"    -%%%%%%-%%%%-%%%%%%%%%%%%%%%%%%%%%--%%%%%%%%%%%%%%%&&&&**   ",
"    -%%%%%%-%%%-%%%%%%%%%%%%%%%%%%%%%%--%%%%%%%%%%%%%%%&&&&**   ",
"   -%%%%%%%-%%%-%%%%%%%%%%%%%%%%%%%%%%%%-%%%%%%%%%%%%%&&&&&**   ",
"   -%%%%%%%-%%-%%%%%%%%%%%%%%%%%%%%%%%%%%-----------%-&&&&&&**  ",
"   -%%%%%%%-%%-%%%%%%%%%%%%%%%%%%%-%%%%%%%%%%%%%%%%--%&&&&&&**  ",
"   -%%%%%%%-%%-%%%%%%%%%%%%%%%%%--%%%%%%%%%%%%%%%%%%%%&&&&&&*** ",
"   -%%%%%%%-%%-%%%%%%%%%%%%%%%%-%%%%%%%%%%%%%%%%%%%-%%&&&&&&&** ",
"  -%%%%%%%%-%%-%%%%%%%%%%%%%%%-%%%%%%%%%%%%%%%%%%%-%%%&&&&&&&** ",
"  -%%%%%%%%-%%-%%%%%%%%%%%%%%%%-%%%%%%%%%%%%%%%%%-%%%%&&&&&&&** ",
" -%%%%%%%%%-%%-%%%%%%%%%%%%%%%%%-%%%%%%%%%%%%%%%%%%%%%%%&&&&&*  ",
" -%%%%%%%%-%%%%%%%%%%%%%%-%%%%%%--%%%%%%%%%%%%%%-%%%%%%%&%&&**  ",
" -%%%%%%%%-%%%%-%%%%%%%--%%%%%%%%%--%%%%%%%%%%%-%%%%%%%&%&&&**  ",
" -%%%%%%%-%-%%%-%%%%%%-%%%%%%%%%%%%%--------%%----%%&&&&&&%%**  ",
"  -%%%%%%%%%-%%%%%%%%-%%%%%%%%%%%%%%%%%%%%%-%--%------%%%%&&*** ",
"  -%%%%%%%%%-%%%%%%%%%-%%%%%%%%%%%%%%%%%%%%%- -%%%--%%--%%%%%***",
"  -%--%%%%%%%%%%%-%%%%%--%%%%%%%%%%%%%%%%%%%  -%%-%%%%%%&&&&%&**",
"  -%%%%%%%%%%%%%%%-%%%%%%----%%%%%%%%%%%%%%- -%%-%%%%%%&&&&&%&**",
" -%%%-%%%%%%-%--%% -%%%%%%%%%-------%%%%%%-  -%-%%%%%%&&&&&&&&**",
"-%%%%-%%%%%%-%%%%& %-%%%%%%%%%%%%%%%--%---    -%%%%%%&&&&&&&&&**",
"-%%%%-%%%%%%-%%&&*   -%%%%%%%%%%%%%%%---      -%%%%%%&&&&&&&&&**",
"-%%%-%%%%%%%-%&&&**   ----%%%%%%%%%--         -%%%%%%&&&&&&&&&**",
"-%%%-%%%%%%%-&&&&*=       ---------            -%%%%%&&&&&&&&**=",
"-%%-%%%%%%%%&&&&**                             -%%%%%%&&&&&&&** ",
"-%%%%%%%%%%&&&&&**                              -%%%%%&&&&&&&** ",
"-%%%%%%%%%%&&&&**=                              -%%%%%%&&&&&&** ",
"--%%%%%%%%%%&&&*=                               -%%%%%%&&&&&&&* ",
" -%%%%%%%%%%&&&==                              -%-------&&&%%%**",
" --%%%%%%%%%&%=*                               -%%---%%%%%%&&&**",
" -%%%%%%%%%%%&&*                               -%%%%%%%-&&&&&&**",
" -%%%%%%%%%%&&%=                              -%%%%%%%%%&&&&&&&&",
"-%%%%%%%%%%%&&%**                              -%%%%%%%%%&&&&&%%",
"-%%%%%%%%%%&%%&***                             -%%%%%%%%%%%%%%--",
"-%%%%%%%%%%%&&&&**                              --------------  ",
"-%%%%%%%%%%%&&&&**                                              ",
" -%%%%%%%%%%&&&&**                                              ",
" -%%%%%%%%%%%&&*==                                              ",
"  ------------%=                                                "};
