/* XPM */
static char * gojira_r_xpm[] = {
"64 96 31 1",
" 	c None",
".	c #000000",
"+	c #3D5165",
"@	c #526A80",
"#	c #409500",
"$	c #15202C",
"%	c #243444",
"&	c #3B4F62",
"*	c #2D7500",
"=	c #1A5500",
"-	c #0F3E00",
";	c #233140",
">	c #D8D000",
",	c #D80000",
"'	c #2E7C00",
")	c #F1BE90",
"!	c #266D00",
"~	c #388C00",
"{	c #0E3900",
"]	c #194E00",
"^	c #1F5D00",
"/	c #154B00",
"(	c #1B5A00",
"_	c #1F7700",
":	c #053900",
"<	c #467C00",
"[	c #345500",
"}	c #1E3E00",
"|	c #0B3900",
"1	c #216700",
"2	c #062900",
"                                                                ",
"                     +@@@                                       ",
"   +@@@@@########## $%%%&@@@                                    ",
"  $&&&&&@***########$%%%%%@@@@                                  ",
" $%%%%%&&======******$%%%%%@@@             =########            ",
" $%%%%%%&=========***$%%%%%&@@           -*=*#*****##           ",
" $%%%%%%;==========**$%%%%%%&@          -===**###**###          ",
" $%%%%%%=============*$%%%%%&+         -======**#*==**#         ",
"  $%%$$$=============**$%%%%;          -==-=>>****=**>#         ",
"  $$$=================*$%%%% +@@@@@@  -===-=>>>,****,>#         ",
"  -=======---------====*$%%;#;&&&&@@@---==-===--====**#         ",
" -===**#''         -====$$;##$%%%&&&@-==========*****####       ",
" -==*#''           -====***##$%%%%%&-==========-'###**==*##     ",
"-==*##             -====***#$%%%%%%&-=========-====*#====*##    ",
"-=*##'            -=====***#$%%%%%%--==========--==***=*==##    ",
"-=*##            -======***#$%%%%%%-=-==========*********##     ",
" -'''            -======***# $%%%%-==-==----=======******##     ",
"                -=======**##  $%%%-==--===))----===******##     ",
"               -=====;&@**##  $%%-=====-==)===))-========''     ",
"              -===$%&&@@**#'   $%-======-======)=*)))**)))      ",
"             -==$%%%&&@@*##     $-=======--======**)****)#      ",
"            -=$%%%%&&&@@##'      -=========-======****###'      ",
"           -=$%%%%&&&&@@##       -==========--====--=='''       ",
"          -==$%%%%&&&&@@#'       -======***====---=!!##         ",
"          -==$%%%&&&&@@@#       -=======****=======###          ",
"         -===$%%%&&&&@@+'       -======************###          ",
"         -===$%%%&&&&@@#        -======*************##          ",
"        -=====$%&&&&@@@'   +@@  -=====**************###         ",
"        -=====$%%&&@+++  ;&&@@@ -==*###*************###         ",
"       -=====*$$%&@+##';&&&&&&@-===***###***********###         ",
"      -=====****;;+##';&%%%%%&-===*****###**********###=!       ",
"      -=====******### ;%%%%%%%-==*******##***********###=#      ",
"     -=====*******##' $%%%%%%-====******##'**********###==!##   ",
"     -=====******###  $%%%%%%-====******##*==********####==*#   ",
"    -=====******###'  $%%%%%%-====*****###***====****##-=*###   ",
"    -=====******###    $%%%%%-====*****##'*******=*==#!-****'!!#",
"    -====******###'    $%%%%%-=====****##**-=#******==!-==*#==!#",
"    -====*****####      $%%%%-======***##**-=*#**-=*==!-===*=**#",
"   -=====*****###' +@@   $%%%--=====***##**-**#**-*#==!!===!####",
"   -=====*****###$&&@@    $$$-=-===***=*~~~-=*#~*-*#==-==****#'*",
"   -=====*****$%%%%%&@@     -===-==={]****~-=*#**-*#=*-=***#!#**",
"  -======****$%%%%%%&&@     -===-=={]]]]]]^~-****-*#==-***==*#==",
"  -======****$%%%%%%&&@    -====-=={]]]]-#]]]--]]-*#*=-==--=*#=-",
" -=======***$%%%%%%%%&@    -====-=={]]]]-*#]]]]^/-=#*=---((-*#= ",
"-=========**$%%%%%%%%&@   -=====-={]]]]]-=#*]]{/**-=*===!!-=*#- ",
"-=========**$%%%%%%%&&+  -=======-{]]]]]-=*#{==###****==#-==#=  ",
"-==========*$%%%%%%%&@   -========{]]]]]]-=**==**#******#----   ",
"-===========$%%%%%%&&+  -=========={{]]]]--==-==********###     ",
"-===========*$%%%%%&+* -============={{{{{****----**=***####    ",
"-============$$$%%;;*=================*************=*==='###    ",
"-==============*$;=====================********====*****#'##    ",
"-====================================*=========*********##'#    ",
"-===================================********************####    ",
"-===================================*********************##'    ",
"--=================================*********************###     ",
"--=======================****####=**********************###     ",
"-=====================*******#####**=***************=***##'     ",
"-=====================*********####**=************==*=='##      ",
"-=====================**********####**===********==****#'#      ",
"-=====================***********####****==****==******##'      ",
"-=====================************###******====*******###'      ",
"-=====================************###*****************####      ",
"-===-=========-========************##****************####'      ",
" -==-========-==========***********##****************####=      ",
" -==-========-===========**********##***************''##'=#     ",
"  -=-========-===========**********##==***********=*##''=*#     ",
"  -=-========-============*********##**==*******==**###'=*#     ",
"   --=====-===-============********##****=======***####=*#_     ",
"   --=====-===-============********###************#####:*#      ",
"    -=====-===-============********###***********#####'*__      ",
"     -===-====-=============**~~~~~*###*********####''=#_       ",
"     -===-====-==============*******~##********####'==*_        ",
"      -==-====-=============-******~###*******###''==*#         ",
"       -==-====-============-******~###==*****#''===*##         ",
"       --=--===--==========-=******~###=*====#''====!!**#       ",
"         -=-===-=---========-******~##'==***''========***#      ",
"          ---==--===========-******###====-'========***=***<<   ",
"            ------============**==####==--:=======******==[<<   ",
"               -============**==**###'--  :::==********#!=[[<   ",
"                -===========*****####        :=***#===}[<<}|1   ",
"                -==========******####        :==**#===}}[<2     ",
"                -==========******###=         :=*[<!:=}}[1      ",
"               -==========*******###           :}[<< :222       ",
"               -===========******##'            2[[<            ",
"              -=============*****##             22|1            ",
"              -==============****##                             ",
"              -==================**###                          ",
"              -====================**##                         ",
"               -===============*#====[[<                        ",
"               -==============***#-=}}[<                        ",
"                ---====***#==}}[[< -}}}[                        ",
"                   -==}[[*#(=}}}[<  ---=                        ",
"                    -}}}[<# --}}}'                              ",
"                    -}}}[<=   ---                               ",
"                     -}}['                                      ",
"                      --=                                       "};
