/* XPM */
static char * gojira_l_xpm[] = {
"64 96 25 1",
" 	c None",
".	c #000000",
"+	c #3F546A",
"@	c #526A80",
"#	c #263546",
"$	c #3B4F62",
"%	c #1A5500",
"&	c #2D7500",
"*	c #172330",
"=	c #243444",
"-	c #2E7C00",
";	c #409500",
">	c #0F3E00",
",	c #D8D000",
"'	c #D80000",
")	c #F1BE90",
"!	c #1F5118",
"~	c #286418",
"{	c #266D00",
"]	c #1B5A00",
"^	c #388C00",
"/	c #1E3E00",
"(	c #458A31",
"_	c #345500",
":	c #356F31",
"                                                                ",
"                                       +@@@                     ",
"                                    #$$$$$@@ %&&&&&&&&&#@@@@@   ",
"                                  *==$$$$$@+&&&&&&&&&&&#$$$$$@  ",
"            -;&&&&;;;             *==$$$$$$&&&&&&&&&&&&#====$$@ ",
"           %&%%%%%&&;;;           *==$$$$==%%&&&&&&&&&&*=====$@ ",
"          >>%%%%>>>%&;;;          #==$$$==*%%&&&&&&&&&&*=====$@ ",
"         >%%>%%>%%%%&&;;;         #===$==*%%%&&&%%%%%%%%*====$+ ",
"         >,%%%%%%%,,&&&&;          *=====%%%&&%%%%%%%%%%#**==$  ",
"         >,'%%%%',,,&&&;;;  #$@@@@@ *===*%&&&&%%%%%%%%%%%%&**#  ",
"         >%%%%%%%%&&&&;;&;;*=$$$@@@>*===%&&&&%>>>>%%%>%%%%%&&&  ",
"       >%%%%%%%%%%%%%&&&&&;===$$$$@>%***%&&&&         >>%%%%&&& ",
"     >>>>%%%>>>>%%%%%&&&&&;;==$$$$@>%%%%&&&&&           >>%%%&& ",
"    >%%%%>%>%%%%%%%&&&&&&&;;===$$$$$%%%%&&&&&             >%%&&&",
"    >%>>%%%%%>>%&&&&&&&&&&;-;===$$$$%%%%&&&&&&            >%%%&&",
"     >%%%%%%%%%&&&&&&&&&&&;&;===$==*>%%%&&&&&&&            >%%%%",
"     >%%%%%%%%%&&%%%>>>>&&;&;;====* >%%%&&&&&&&            >>>> ",
"     >%%%%%%%%%>>>>>))&&%%-&&;====  >%%%%&&&&&&&                ",
"     >>>>>>>>>>>))%&&)&&%&&&&;;==*  >%%%*@@&&&&&&               ",
"      )))%%)))%%)&&&&&&>&&&&&&;=*   >%%%*=$@@@&&&&              ",
"      >)%%%%)%%%%&&&&>>&&&&&&&;*     >%%*=$$$@@@&&&             ",
"      >%%%%%%%%%%&&&>&&&&&&&&&;      >%%*=$$$$$@@@&&            ",
"       >>>>>>>%%%%>>&%%&&&&&&&;       >%*==$$$$$$@@&&           ",
"         >%%%&>>>>&&%%%&&&&&&&;       >%*==$$$$$$$@&&&          ",
"          >%%&&&&&&%%%%&&&&&&&;;       >*===$$$$$$@&&&          ",
"          >%%%&&&&%%%%&&&&&&&&;;       %*====$$$$$$&&&&         ",
"          >%%%&&%%%%%&&&&&&&&&;;        %*====$$$=*&&&&         ",
"         >%%%%%%%%%%&&&&&&&&&&;;  #$@   %*=====$==&&&&&&        ",
"         >%%%%%%%%%&&&&&&>%%&;;& *=$$@@  ***======&&&&&&        ",
"         >%%%%%%%%&&&&&>%%%%&&;;&==$$$$@@%%%*===**%&&&&&&       ",
"       !~>%%%%%%%%&&&&>%%%%&&&&;;&=$$$$$@@>%%***%%%&&&&&&&      ",
"      >%>%%%%%%%%%%&&&>%%%%&&&&;;&=$$$$$$@ >%%%%%%%%&&&&&&      ",
"   !~~%%>%>>%%>>>>>>%%%%%%&&&&&&;;&$$$$$$@ >%%%%%%%%&&&&&&&     ",
"   !%%&>%%%>%>%%%%%%&&>%%%&&&&&&&;&$$$$$$$  >%%%%%%%%&&&&&&     ",
"   >{;;;&%%%>>%%%%%%%&>%%%%&&&&&&;&$$$$$$#  >%%%%%%%%%&&&&&&    ",
">~~>%&&;&%%>>%%%%%%%%%>%%%%&&&&&&;&=$$$==    >%%%%%%%%&&&&&&    ",
">~%%>%%%&%%>%%%%%%>{%%&>%%%%&&&&&;&=$$==*    >%%%%%%%%&&&&&&    ",
">%%%-;{%>%>%%]&%%>%;&%&>%%%%&&;;;;%====*      >%%%%%%%%&&&&&    ",
">>%&&&;&%%>%>;&%%>%;&&&>%%%%&&;;;%;===*   +@@ >%%%%%%%%&&&&&&   ",
">>%&&&&;;&>%>{&%->%;&;;;;&%%&&;;%;;***    #$$$@>%%%%%%%&&&&&&   ",
">%>%%&&&&&>%>{&%%>%;%&&&;;;&&&;&&;;;     *=$$$$$@@%%%%%%&&&&&   ",
">%>%%%%&&%>>>{&%%>{%{{%&&;;;&&;&&;;;     *==$$$$$@@%%%%%&&&&&&  ",
"%%]&&>>%%%%%>{&%%]>%%%]&%&&;&;;&&&;;;    *==$$$$$$@%%%%%&&&&&&  ",
" >>;&>%>>>%%>%%>%%%%%>;&%&&;&;{%&&&;;    *==$$$$$$$@%%%%&&&&&&& ",
" >>%;&%%%%%%>>>%>>%%%>;&%&&;;&%>&&&&;;   *==$$$$$$$@%%%%&&&&&&&&",
"  >%%{&%%%%%%%>;;&&>>>;%%%%&;%>&&&&&&;&  *==$$$$$$$$%%%%&&&&&&&&",
"   >>>>%%%%%%%>&&;&%%>%%%%%%%%&&&&&&&;;   *====$$$$$%%%&&&&&&&&&",
"     >%%%%%%%%>%%%>>>>>%%%%>%&&&&&&&&&;;  *=====$$$#%%%&&&&&&&&&",
"    >%%%%%%%%%>>>>%%%%%>>>>&&&&&&&&&&&&&; >*=======%%%%&&&&&&&&&",
"    >%%%%%>%%%%%%%%%%%%%%%%&&&&&&&&&&&&&{%%%**==***%%%&&&&&&&&&&",
"    >%%%%%>%%%%%%%%%%%%%%%>%&&&&&&&&&&&&{%%%%%**%%%%%&&&&&&&&&&&",
"    >%%%>>%>%%%%%%%%%%%%%%>&&&&&&&&&&&&&{%%%%%%%%%&&&&&&&&&&&&&&",
"    >%%>>%%>>%%%%%%%%%%%>>%%&&&&&&&&&&&&&&&&&&&&&&&&&&&&&&&&&&&&",
"    >>>%%%%%%>>>%%%%%%>>%%%%%&&&&&&&&&&&&&&&&&&&&&&&&&&&&&&&&&&&",
"     >%%%%%%%%%%>>>>>>%%%%%%%%&&&&&&&&&&&&&&&&&&&&&&&&&&&&&&&&&&",
"     >%%%%%%%%%%%%%%%%%%%%%%%%%>%%%%&&&&&&&&&&&&&&&&&&&&&&&&&&&&",
"     >%%%%%%%%%%%%%%%%%%%%%%%%>%%%%%&&&&&&&&&&&&&&&&&&&&&&&&&&&&",
"      >%%%%%%%%%%%%%%%%%%%>>%>%%%%%%&&&&&&&&&&&&&&&&&&&&&&&&&&&&",
"      >%%%%%%%%%%%%%%%%%%>>%>%%%%%%%%&&&&&&&&&&&&&&&&&&&&&&&&&&^",
"      >%%%%>%%%%%%%%%%%>>%%>%%%%%%%%%%&&&&&&&&&&&&&&&&&&&&&&&^^&",
"      >%%%>>>>%%%%>>>>>%%%%>%%%%%%%%%%%&&&&&&&&;;&&&&&&&&&&&^&&&",
"      >>>>%%%%>>>>%%%%%%%%%>%%%%%%%%%%%&&&&&&&&;;&&&&&&&&&&&^&&&",
"      >%%%%%%%%%%%%%%%%%%%%>%%%%%%%%%%%%&&&&&&&;;;&&&&&&&&&^&&%>",
"      >>%%%%%%%%%%%%%%%%%%&>%%%%%%%%%%%%&&&&&&&;;;;&&&&&&&&^&&% ",
"     >%>%%%%%%%%%%%%%%%%%%%>%%%%%%%%%%%%%&&&&&&;;;;&&&&&&^&%%%> ",
"     >%&>%%%%%%%%%%%%%%%%%%>%%%%%%%%%%%%%&&&&&&&;;;&&&&&^&&>%%  ",
"     >%&>%%%%%%%%%%%%%%%%%%>%%%%%%%%%%%%%&&&&&&&;;-&&&&&&&%>%>  ",
"     >%%&>%%%>%%%%%%%%%%%%>>%%%%%%%%%%%%%&&&&&&&;;&&&%&&&%%>%   ",
"      >>%>%%>>>>%%%%%%%%>>>%%%%%%%%%%%%%%&&&&&&&;;%>>%>%%%%>>   ",
"      >%%>%>%%%%>>>>>>>>%%>%%%%%%%%%%%%%%&&&&&&&;;%%%%%%%%%>    ",
"       >%%>>%%%%%%%%%%%%%>%%%%%%%%%%%%%%%&&&&&&&;;%%%%>%%%%     ",
"        >%%%>%%%%%%%%%%%%>%%%%>>>>>%%%%%%&&&&&&;;;%%%%>%%%>     ",
"         >%%%>>%%%%%%%%%%>%%%%%%%%%%%%%%%&&&&&&;;-%%%%>%%>      ",
"         >%%%%%>%%%%%%%%%>%>%%%%%%%%%%%%%&&&&&;;;%%%%>>%%       ",
"       >%%%%%%%%>>%%%%%%%>%>%%%%%%%%%%%%%&&&&&;;;%%%>%%>>       ",
"      >%%%%%%%%%%%>>>>>>>>%>%%%%%%%%%%%%%&&&&&;;;%%%>%%         ",
"   >/%%%&%%%%%%%%%%%>>%%%%>>%%%%%%%%>%%%%&&&&&;;;%%>%%          ",
"   >//&%%%%%%%%%%%%%~(>>%%>>%%%%%%%%>%%%%%&&&;;;;>%%            ",
"   >_/%%%%%&&%%%%&(:::  >>>%>>%%%%%>>%%%%%&&&;;;-               ",
"   %%////_&%%%%%&((        >%%>>>>>>%%%%%%%&&;;;                ",
"     >/___&%%%%%&(:        >%%%%%%%%%%%%%%%%&;;;                ",
"      >//_&%%//&&:         >%%%%%%%%%%%%%%%%%;;;                ",
"       >>%% >/__%           >%%%%%%%%%%%%%%%%&;;;               ",
"            >//_            >%%%%%%%%%%%%%%%%&;;;               ",
"            >>>%             >%%%%%%%%%%%%%%%&&;;;              ",
"                             >%%%%%%%%%%%%%%%&;;;;              ",
"                          >%%%%%%%%%%%%%%%%%%&;;&&              ",
"                         >%%%%%%%%%%%%%%%%%%&&&&&%              ",
"                        >//&&&&%%%%%&&%%%%%%&&&&&               ",
"                        >//_&%%%%%&&&&%%%%%&&&&&%               ",
"                        >/__% >//__&&&%%%%&&&%%%                ",
"                        >>%%  >//__&%&%///&&%                   ",
"                              >//_%% %////_&                    ",
"                               %%%   %///__%                    ",
"                                      >//_%                     ",
"                                       >>%                      "};
