/* XPM */
static char * godjira_r_xpm[] = {
"64 96 104 2",
"  	c None",
". 	c #000000",
"+ 	c #2F561C",
"@ 	c #386221",
"# 	c #477233",
"$ 	c #3D6528",
"% 	c #335B24",
"& 	c #3B6639",
"* 	c #456E32",
"= 	c #223E1C",
"- 	c #142428",
"; 	c #2B4B32",
"> 	c #315C17",
", 	c #38661B",
"' 	c #467823",
") 	c #366519",
"! 	c #203B0F",
"~ 	c #1D313D",
"{ 	c #365F1E",
"] 	c #375F21",
"^ 	c #2F5616",
"/ 	c #345D18",
"( 	c #39661A",
"_ 	c #447821",
": 	c #5A952D",
"< 	c #497B24",
"[ 	c #325A1B",
"} 	c #335A1C",
"| 	c #36611A",
"1 	c #356019",
"2 	c #0B1704",
"3 	c #365D2C",
"4 	c #2D5315",
"5 	c #36611E",
"6 	c #2F5615",
"7 	c #315B17",
"8 	c #1F3E0E",
"9 	c #336119",
"0 	c #39671B",
"a 	c #4C8226",
"b 	c #2D4920",
"c 	c #112406",
"d 	c #1C340D",
"e 	c #264A12",
"f 	c #55912B",
"g 	c #315B20",
"h 	c #142809",
"i 	c #131F27",
"j 	c #234010",
"k 	c #0A1411",
"l 	c #203E0F",
"m 	c #1D3814",
"n 	c #08140D",
"o 	c #254025",
"p 	c #3A6338",
"q 	c #284B12",
"r 	c #244211",
"s 	c #AFC42E",
"t 	c #050D09",
"u 	c #9FAB1C",
"v 	c #1B390C",
"w 	c #183909",
"x 	c #071402",
"y 	c #0D2205",
"z 	c #0F2306",
"A 	c #0E1B1A",
"B 	c #0C1B14",
"C 	c #050E01",
"D 	c #050D01",
"E 	c #0F2506",
"F 	c #081603",
"G 	c #324932",
"H 	c #050D02",
"I 	c #2F4F20",
"J 	c #081403",
"K 	c #46693B",
"L 	c #202F20",
"M 	c #081103",
"N 	c #0C1A04",
"O 	c #274B12",
"P 	c #315920",
"Q 	c #162215",
"R 	c #3D6D1D",
"S 	c #37671A",
"T 	c #1D380D",
"U 	c #274A12",
"V 	c #1D380E",
"W 	c #203F0F",
"X 	c #315917",
"Y 	c #0D171A",
"Z 	c #223521",
"` 	c #08110D",
" .	c #477D24",
"..	c #213E10",
"+.	c #37601B",
"@.	c #3F731E",
"#.	c #39631C",
"$.	c #2F5C14",
"%.	c #0A1604",
"&.	c #305B16",
"*.	c #3C731C",
"=.	c #264911",
"-.	c #3F751C",
";.	c #153608",
"                              + @ # # # $ $                                                                                     ",
"                            + % & & & & & & *                                                                                   ",
"                          + = - - - - - ; & & $                                                 > , ' ' ' ' '                   ",
"                  ) , ' ' ! - - - ~ ~ ~ - ; & $               { ]                       > ^ / / ( _ _ _ : : : < '               ",
"        [ } $ $ | ( _ _ 1 2 ~ ~ ~ ~ ~ ~ ~ - 3 $             4 5 / 3 $ $ $ $           6 7 _ _ 1 8 9 8 8 0 a : : '               ",
"    + } # # # $ b 8 8 8 8 c c ~ ~ ~ ~ ~ ~ ~ * ( ' '         d = / & & & & & *       6 e 8 8 8 8 8 8 9 9 9 0 c f : <             ",
"  + g ; - - - - 2 8 8 8 8 8 h i i ~ ~ ~ ~ ~ j ( : ( ' '   4 k - 2 - - - ; & & *   6 l 8 8 c c c c 0 0 0 0 c c a ( / /           ",
"  m n - - - - ~ ~ 2 8 8 8 8 8 8 8 i i i i i 0 0 a : : ( / o - - 2 - - - - ; & p * q 8 8 8 0 0 r 2 2 c 0 c 0 c c j s <           ",
"  t n - ~ ~ ~ ~ ~ 2 0 0 8 8 8 8 8 8 8 8 8 8 0 0 0 0 a < q - - - 2 ~ - - - - ; p j c c 8 8 0 r u u u r c c 0 0 0 r s <           ",
"  t n k ~ ~ ~ ~ ~ 2 0 0 8 8 8 8 8 8 8 8 8 8 8 0 0 0 0 2 - - - - c ~ - - - - c 2 c 8 8 8 0 0 r u u u r r 0 0 0 0 0 / / <         ",
"  t n n ~ ~ ~ 2 2 0 0 v w x x y y z 8 8 8 8 8 8 8 0 2 ~ - - - - 2 c A B B A 2 c 8 8 8 8 c c c 2 2 2 2 c 0 0 0 0 0 a : f ' '     ",
"    C C c c 2 8 0 0 0 D D E F D y y y z 8 8 8 8 8 0 2 ~ - - - ~ G H D D x x H c 8 8 8 8 8 8 0 0 0 0 8 8 8 8 0 0 0 0 a : : f '   ",
"    D F h h 8 8 0 a <           D D x y z 8 8 8 8 2 ~ ~ - - - ~ I {     D D x c 8 8 8 8 8 8 8 8 0 8 8 8 8 8 2 r 0 0 0 0 a : /   ",
"    D y 8 8 8 0 0 : <               E x D J 8 8 8 2 ~ ~ ~ ~ ~ K 6         E x 8 8 8 8 8 8 8 c 8 8 8 8 8 8 c c c 2 0 0 0 0 ( ( ' ",
"    D y 8 8 8 0 0 : <                 E D y 8 8 8 2 ~ ~ ~ ~ K *           D x 8 8 8 8 8 c 2 h c c 8 8 8 8 8 8 8 c 2 0 0 0 q : ' ",
"    D x z 8 8 0 0 : <                   D x 8 8 0 i c ~ i L * ,           D x 8 8 8 2 2 h 8 8 h h c c 8 8 8 8 0 0 0 0 0 0 0 : ' ",
"    D x y 8 8 0 0 : <                   D z 8 0 0 0 M M N O f P           D z 8 8 c 8 8 8 8 8 8 8 h h 2 2 8 0 0 0 0 0 0 r 0 : , ",
"      D y z 8 0 0 : 0               6 ^ c 8 8 2 M M - N Q b R           > x 8 8 8 8 8 8 8 8 8 8 8 8 8 8 8 2 2 c c c c c c 2 , S ",
"      D x y 8 0 0 : S             6 7 1 8 8 i c - - - - ~ & $ $         T y 8 8 8 8 2 8 8 8 8 8 8 8 8 8 8 8 0 r r r r r r U S   ",
"        D x x z e S             6 V c 8 8 8 0 2 - - ~ ~ ~ ; & # $       D z 8 8 8 0 c 2 2 8 8 8 8 8 8 8 8 0 v w w v v w 8 S     ",
"        F D x x > S           6 l 8 8 8 8 0 0 2 ~ ~ ~ ~ ~ - ; & $     > x 8 8 8 8 0 0 0 c 2 2 2 2 2 2 2 2 2 D D D E D T S       ",
"            W >           6 6 q 8 8 8 8 8 0 0 2 ~ ~ ~ ~ ~ ~ - & $     T J 8 8 8 8 8 8 8 8 8 8 0 0 0 0 0 a '     T 6             ",
"                          6 l 8 8 8 8 8 0 0 0 2 ~ ~ ~ ~ ~ ~ - & $   S J c 8 8 8 8 8 8 8 8 8 8 8 8 0 0 0 : '                     ",
"                        6 J c 8 8 8 8 0 0 0 0 2 ~ ~ ~ ~ ~ ~ - & & X j 8 8 8 8 8 8 8 8 8 8 8 8 8 8 0 0 0 : '                     ",
"                    6 6 q c 8 8 8 8 0 0 0 0 0 0 2 ~ ~ ~ ~ ~ ~ ; & o c 8 8 8 8 8 8 8 8 8 8 8 8 8 8 0 0 0 : f '                   ",
"                    6 l c 8 8 8 8 0 0 0 0 O O O 2 c A B A ~ ~ ~ c 2 8 8 8 8 8 8 8 8 8 8 8 8 8 8 0 0 0 0 a f '                   ",
"                  6 J c 8 8 8 8 0 0 0 O M Q Q Q 2 2 D x B B A 2 2 c 8 8 8 8 8 8 8 8 8 8 8 8 8 8 0 0 0 0 0 : f '                 ",
"                6 l 8 8 8 8 0 0 0 0 Y M - - - Z b '   ` D x x H c 8 8 8 8 8 8 8 8 8 8 8 8 8 8 8 0 0 0 0 0 a f '                 ",
"              6 l 8 8 8 8 8 8 8 0 2 N - - ~ ~ - $ *       D D x 0 0 2 2 2 2 8 8 8 8 8 8 8 8 8 0 0 0 0 0 0 0 : '                 ",
"            6 8 c 8 8 8 8 8 8 8 0 2 - - ~ ~ ~ - & *         D z 2 2 0 0 0 8 h h 8 8 8 8 0 0 0 0 0 0 0 0 0 0 : '                 ",
"            T J 8 8 8 8 8 8 8 8 c i - - ~ ~ ~ - & # *     > J c h 0 0 8 0 0 0 8 h 8 8 8 8 8 0 0 0 0 0 0 0 0 : f ' '             ",
"          6 J 8 8 8 8 8 8 8 8 M M ~ ~ ~ ~ ~ ~ - ; # *   6 e 8 c h 0 8 0 0 0 0 0 h 8 8 8 8 8 8 8 0 0 0 0 0 0 a < f <             ",
"        6 T 8 8 8 8 8 8 8 0 i N M ~ ~ ~ ~ ~ ~ ~ - & * / j 8 c 8 h 8 8 8 0 0 0 0 0 h 8 8 8 8 8 8 0 0 0 0 0 0 0 r f : '           ",
"        T z 8 8 8 8 8 8 8 0 2 - M ~ ~ ~ ~ ~ ~ ~ - o * q c 8 8 2 8 8 8 0 0 0 0 0 0 0 h 8 8 8 8 8 0 0 0 0 0 0 0 r  .: '           ",
"      > x c 8 8 8 8 8 8 8 0 2 - Y c ~ ~ ~ ~ ~ ~ - Y 2 c c 8 c 2 8 8 8 0 0 0 0 0 0 0 h 8 8 8 8 8 0 0 0 0 0 0 0 0 ..: '           ",
"      T x 8 8 8 8 8 8 0 0 0 2 ~ ~ 2 c ~ ~ ~ ~ ~ ~ 2 c c 8 8 2 8 8 8 0 8 0 0 0 0 0 9 h 8 8 8 8 0 0 0 0 0 0 0 0 0 ..: '           ",
"      D x 8 8 8 8 8 8 0 0 0 2 ~ ~ i c ~ ~ ~ ~ ~ i c c 8 8 8 2 8 8 0 8 8 0 0 0 0 9 9 h 8 8 8 8 8 0 0 0 0 0 0 0 0 ..: '           ",
"      D x 8 8 8 8 8 8 8 0 0 0 2 i ~ i c ~ ~ ~ i c c 8 8 8 c r 8 8 8 8 8 0 0 0 0 9 2 8 8 8 8 8 8 0 0 0 c c 2 ......' '           ",
"      D x 8 8 8 8 8 8 8 8 8 8 0 2 2 2 2 c i i c c 8 8 8 8 c r 8 8 8 8 0 0 0 0 9 ..8 8 8 8 8 8 0 0 0 c h h 8 0 0 0 f f '         ",
"      D z 8 8 8 8 8 8 8 8 8 8 8 0 0 0 ~ c i c 0 8 8 8 8 8 2 8 8 8 8 0 0 0 0 0 ..8 8 8 8 8 0 0 0 0 c r 8 8 8 8 0 c a : f '       ",
"    6 x 8 8 8 8 c 8 8 8 8 8 8 8 0 0 c 2 2 c c c c 8 8 8 8 2 8 8 8 8 0 0 0 0 0 2 8 8 8 8 8 0 0 0 0 c 2 c 0 0 0 2 h 8 a : '       ",
"    T J 8 8 8 8 8 8 8 8 8 8 8 0 0 r 2 c c c c 8 8 8 8 8 8 2 8 8 8 8 c r 2 2 2 2 ......9 9 0 0 0 0 0 0 h 2 2 2 0 8 0 0 : '       ",
"  6 x c 8 8 8 8 8 8 8 8 8 8 0 r h 8 c c 8 8 8 8 8 8 8 8 8 2 8 8 8 c h 0 0 0 0 0 0 0 r r 2 ..9 0 0 0 0 0 2 2 8 8 0 0 0 : '       ",
"  W x c 8 8 8 8 8 8 8 8 8 0 r c 8 c 8 8 8 8 8 8 8 8 8 8 8 h c 8 8 8 8 0 0 0 0 0 r 0 0 0 0 0 ....0 0 0 c r 8 0 0 0 0 0 : '       ",
"  D x c 8 8 8 8 8 8 8 8 8 c 0 c c 8 8 8 8 8 8 8 8 8 8 8 8 8 2 8 0 8 8 8 0 0 0 0 0 0 0 ..0 0 0 ..9 0 0 2 8 8 8 0 0 c 8 : '       ",
"  D x 8 8 8 8 8 8 8 8 8 c 8 0 8 8 8 8 8 8 8 8 8 8 8 8 8 8 0 2 r 0 8 8 8 0 0 0 0 0 0 0 0 ..0 0 0 ..0 0 2 8 8 0 c 2 2 8 : '       ",
"  D y 8 8 8 8 8 8 8 8 8 8 8 c 0 8 8 8 8 8 8 8 8 8 8 8 8 8 8 8 2 0 8 c 8 0 0 r 9 8 8 0 0 ..0 0 0 ..0 0 r 2 2 c 2 8 8 0 : ,       ",
"  D y 8 8 8 8 8 8 8 8 8 8 c 0 8 8 8 8 8 8 8 8 8 h h 8 8 8 8 8 h 2 0 2 8 8 0 0 ..8 8 0 0 9 r 0 0 ..0 0 0 0 0 2 0 0 z y 6 S       ",
"  D y 8 8 8 8 8 8 8 8 8 c 8 8 8 8 8 8 8 8 8 8 8 8 8 h h 8 8 8 8 8 h 2 8 8 0 0 ..8 8 0 0 9 2 2 0 ..0 0 0 0 0 2 0 v D T S         ",
"  D y 8 8 8 8 8 8 8 c c 8 8 8 8 8 8 8 8 8 8 8 0 0 0 0 8 h 8 8 8 8 8 8 2 0 0 r ..8 8 0 0 ..r 0 ..2 0 0 0 0 0 ..j 6               ",
"  D y 8 8 8 8 8 8 c 8 c 8 8 8 8 8 8 8 8 0 0 0 0 0 0 0 0 h 8 8 8 8 8 8 2 0 0 ..c 2 8 0 0 ..0 8 8 c 0 0 0 0 r +.'                 ",
"  D y 8 8 8 8 8 c 8 8 8 8 8 8 8 8 8 8 0 0 0 0 0 0 0 0 0 0 h 8 8 8 8 8 h c 0 ..8 h c 8 ..9 8 8 8 8 0 0 0 0 0 ' '                 ",
"  D y 8 8 8 8 c c 8 8 8 8 8 8 0 8 8 8 8 8 0 0 0 0 0 0 0 8 h 8 8 8 8 8 h 2 2 r 8 h c 8 ..8 8 8 8 8 0 0 0 0 ..: ' '               ",
"  D y 8 8 8 8 c c 8 8 8 8 8 8 8 8 8 8 8 8 0 0 0 0 0 0 0 8 c 8 8 8 8 8 h 2 8 8 8 h 2 ..9 8 8 8 8 8 0 0 0 0 ..a : '               ",
"  D x z 8 8 8 c 8 8 8 8 8 8 8 8 8 8 8 8 8 8 0 0 0 0 0 0 8 8 2 8 8 8 8 8 8 8 8 8 8 h 2 8 8 8 8 8 8 0 0 0 ..c 0 : : '             ",
"  D x y 8 8 8 2 8 8 8 8 8 8 8 8 8 8 8 8 8 0 0 0 0 0 0 0 0 8 2 8 8 8 8 8 8 8 8 8 8 8 8 8 8 8 8 8 8 0 0 0 ..r 0 a : '             ",
"    D y 8 8 c h 8 8 8 8 8 8 8 8 8 8 8 8 0 0 0 0 0 0 0 0 0 0 2 8 8 8 8 8 8 8 8 8 8 8 8 8 8 8 8 8 0 0 0 ..2 0 r 0 : '             ",
"    D x 8 8 c h 8 8 8 8 8 8 8 8 8 8 8 0 0 0 0 0 0 0 0 0 0 0 ..8 8 8 8 8 8 8 8 8 8 8 8 8 8 8 8 8 0 0 ....0 8 h 8 : '             ",
"    F x z 8 2 8 8 8 8 8 8 8 8 8 8 8 8 0 0 0 0 0 0 0 0 0 0 0 ..8 8 8 8 8 8 8 8 8 8 8 8 8 8 8 0 0 0 9 r 0 8 8 h 8 : '             ",
"    F x y z 2 8 8 8 8 8 8 8 8 8 8 8 0 0 0 0 0 0 0 0 0 0 0 0 ..c 8 8 8 8 8 8 8 8 8 8 8 8 8 8 0 0 0 ..r 8 8 8 8 8 : '             ",
"      F x D 8 8 8 8 8 8 8 8 8 8 8 0 0 0 0 0 0 0 0 0 0 0 0 0 ..c 8 8 8 8 8 8 8 8 8 8 8 8 8 8 0 0 c r r 8 8 8 8 8 : '             ",
"        y D 8 8 8 8 8 8 8 8 8 8 8 0 0 0 0 0 0 0 0 0 0 0 0 0 ..8 8 8 8 8 8 8 8 8 8 8 8 8 8 0 0 8 2 8 h 8 8 8 8 0 : ,             ",
"        D D 8 8 8 8 8 8 8 8 8 8 8 8 8 0 0 0 0 0 0 0 0 0 0 0 ..8 8 8 8 8 8 8 8 8 8 8 8 8 8 0 8 8 2 8 8 h h 8 0 0 : )             ",
"        D F 8 8 8 8 8 8 8 8 8 8 8 8 8 0 0 0 0 0 0 0 0 0 0 c ..8 8 8 8 8 8 8 8 8 8 8 8 8 8 8 8 2 8 8 8 8 8 8 0 a ,               ",
"        D D z 8 8 8 8 8 8 8 8 8 8 8 8 8 8 0 0 0 0 0 0 0 0 ..9 8 8 8 8 8 8 8 8 8 8 8 8 8 8 8 c 2 8 8 8 8 8 0 0 @.)               ",
"        D D y 8 8 8 8 8 8 8 8 8 8 8 8 8 8 8 0 0 0 0 0 0 0 ..0 8 8 8 8 8 8 8 8 8 8 8 8 8 8 c h 8 8 8 8 8 0 0  .6                 ",
"          D y 8 8 8 8 8 8 8 8 8 8 8 8 8 8 8 0 0 0 0 0 9 0 9 8 8 8 8 8 8 8 8 8 8 8 8 8 8 8 2 h 8 8 8 8 8 0  ./                   ",
"          D y 8 8 8 8 8 8 8 8 8 8 8 8 8 8 0 0 0 0 0 0 0 ....8 8 8 8 8 8 8 8 8 8 8 8 8 8 2 8 8 8 8 8 8 0 9 f /                   ",
"          D x 8 c 8 8 8 8 8 8 8 8 8 8 0 0 0 0 0 0 0 0 0 9 ..8 8 8 8 8 8 8 8 8 8 8 8 8 8 2 8 8 8 8 8 8 9 c / ' ' ' ' '           ",
"          D x z 2 8 8 8 8 8 8 8 8 8 c 0 r r r 2 r c 0 0 0 9 h 8 8 8 8 8 8 8 8 8 8 8 2 2 8 8 8 8 8 8 0 c 0 #.: : : : ( ,         ",
"          F x x 2 8 8 8 8 8 8 8 8 8 2 r 0 0 0 c 2 0 0 0 0 9 2 8 8 8 8 8 8 8 8 8 c 2 h 8 8 8 8 8 8 0 c 0 r 0 0 0 0 a @.6         ",
"            F x H 8 8 8 8 8 8 8 8 8 2 0 0 0 0 c 2 0 0 0 0 8 ..8 8 8 8 8 8 8 8 2 r 2 h 8 8 8 8 8 0 c c r 0 0 0 0 v $.)           ",
"            F D x 8 8 8 8 8 8 8 8 8 2 0 0 0 0 0 2 0 0 0 0 c ..8 8 8 0 8 z y D %.8 c 8 2 8 8 8 0 c 0 r 0 0 0 9 c T 6             ",
"              D x 8 8 8 8 8 8 8 8 8 2 0 0 0 0 r r 0 0 0 0 9 ..8 8 8 v w D D F y z 8 8 8 c h 0 0 r r 0 0 0 c j '                 ",
"              D y 8 8 8 8 8 8 8 8 8 0 2 r 0 r 0 0 0 0 0 0 9 %.y y x T 6     D x y y y z 8 0 0 r 0 0 0 0 0 0 ( ( ' ' '           ",
"              D y 8 8 8 8 8 8 8 8 8 8 0 0 0 0 0 0 0 0 0 9 c D D T S           D D D y y y v 0 0 0 0 0 0 0 0 a : : ( f ,         ",
"              F x z 8 8 8 8 8 8 8 8 8 8 0 0 0 0 0 0 0 0  .0                         D x w w 0 0 0 0 0 0 0 0 0 0 0 a ( )         ",
"              F x y 8 8 8 8 8 8 8 8 8 8 0 0 0 0 0 0 0 c , )                             D w v 0 0 0 0 0 r J w w w $.6           ",
"                D x z 8 8 8 8 8 8 8 8 8 0 0 0 0 0 0 0 q )                               D x w v 0 0 0 9 2 E D D D 6 S           ",
"                F D y z 8 8 8 8 8 8 8 8 8 0 0 0 0 0 a ,                                   D x w v 0 0 +.'                       ",
"                  D x y z 8 8 8 8 8 8 8 8 0 0 0 0 0 @.)                                     E x w v 0 : f '                     ",
"                    D y y 8 8 8 8 8 8 8 8 0 0 0 0 a )                                         D x w v a f ,                     ",
"                      D J 8 8 8 8 8 8 8 8 0 0 0 a '                                             E x w w &.6                     ",
"                  > ^ 2 c c 8 8 8 0 0 0 0 0 0 0 ' / / ' ' ' ' '                                   D D T 6                       ",
"                6 &.e 8 h c c 8 8 0 0 0 0 0 0 ..a _ _ : : : : : ,                                                               ",
"                W y y z h h c 8 8 0 0 0 0 c 2 0 8 8 8 8 0 0 > *.)                                                               ",
"                  D x y y z h 8 8 8 h h 2 r 0 0 8 8 h z w w =.)                                                                 ",
"                    D D y y 8 8 8 8 8 8 8 8 8 0 9 h c D T )                                                                     ",
"                        F z 8 8 0 9 8 8 8 8 8 8 0  .'                                                                           ",
"                      6 y 8 8 8 0 ..z y y z 8 8 8 : f /                                                                         ",
"                      T z 8 8 0 0 ..D D x x y y z 1 : '                                                                         ",
"                    6 x z 8 8 0  .^     D D D x y y -.)                                                                         ",
"                    T x y 8 0 J *.S           D D D 6 6                                                                         ",
"                      D y w ;.=.S                                                                                               ",
"                      D D T 6                                                                                                   ",
"                                                                                                                                "};
