/* XPM */
static char * nuke_dest_xpm[] = {
"64 96 200 2",
"  	c None",
". 	c #000000",
"+ 	c #535454",
"@ 	c #5F5F5F",
"# 	c #999A82",
"$ 	c #BEC2B3",
"% 	c #313D42",
"& 	c #727272",
"* 	c #5F5F5F",
"= 	c #7E7F90",
"- 	c #A2A892",
"; 	c #989D89",
"> 	c #747474",
", 	c #868674",
"' 	c #6F7083",
") 	c #5E5F5E",
"! 	c #5B6366",
"~ 	c #854C4C",
"{ 	c #464647",
"] 	c #4A4A4A",
"^ 	c #39404C",
"/ 	c #373E4A",
"( 	c #383F4B",
"_ 	c #383F4A",
": 	c #383E4A",
"< 	c #797565",
"[ 	c #313131",
"} 	c #3E3F40",
"| 	c #575757",
"1 	c #6E6F6F",
"2 	c #787B6A",
"3 	c #5C5C5C",
"4 	c #39404B",
"5 	c #5D5E5E",
"6 	c #595B5B",
"7 	c #575B5E",
"8 	c #646768",
"9 	c #4B5356",
"0 	c #747868",
"a 	c #51534A",
"b 	c #4C5356",
"c 	c #4D5254",
"d 	c #5B5C5D",
"e 	c #4E5354",
"f 	c #5A5C5C",
"g 	c #5E5E5E",
"h 	c #565757",
"i 	c #484848",
"j 	c #676767",
"k 	c #575A5C",
"l 	c #3A3B3B",
"m 	c #767969",
"n 	c #454A4C",
"o 	c #6A6B6C",
"p 	c #6C6C6C",
"q 	c #686868",
"r 	c #434A4D",
"s 	c #424242",
"t 	c #5E5F60",
"u 	c #5E6263",
"v 	c #696969",
"w 	c #575758",
"x 	c #5A5B5C",
"y 	c #616161",
"z 	c #59524B",
"A 	c #555555",
"B 	c #666666",
"C 	c #7E7E7E",
"D 	c #717171",
"E 	c #6F6F6F",
"F 	c #606163",
"G 	c #818181",
"H 	c #878787",
"I 	c #737373",
"J 	c #C3C63C",
"K 	c #373737",
"L 	c #7D7D7D",
"M 	c #4E535B",
"N 	c #5E6062",
"O 	c #737577",
"P 	c #7D7E7E",
"Q 	c #323334",
"R 	c #343432",
"S 	c #5B5B5B",
"T 	c #676A6E",
"U 	c #BFC138",
"V 	c #626364",
"W 	c #6D6D6D",
"X 	c #4C4C4C",
"Y 	c #464646",
"Z 	c #545454",
"` 	c #606060",
" .	c #62635E",
"..	c #41484B",
"+.	c #5D5D5D",
"@.	c #7B7B7B",
"#.	c #515151",
"$.	c #B0B137",
"%.	c #4F4F50",
"&.	c #4B4B4A",
"*.	c #6E6E6E",
"=.	c #BE9D9E",
"-.	c #C0C239",
";.	c #737369",
">.	c #727353",
",.	c #6A6A6A",
"'.	c #3B3B3B",
").	c #917973",
"!.	c #45484E",
"~.	c #A9AA46",
"{.	c #2D2D2D",
"].	c #30302F",
"^.	c #7F7F7D",
"/.	c #C7CA41",
"(.	c #837F7E",
"_.	c #535351",
":.	c #72735E",
"<.	c #646464",
"[.	c #9DA030",
"}.	c #9D9D9D",
"|.	c #8D8E74",
"1.	c #676763",
"2.	c #373732",
"3.	c #656565",
"4.	c #7A7A68",
"5.	c #5A5A5A",
"6.	c #848579",
"7.	c #4F4F4F",
"8.	c #2E2E2E",
"9.	c #9C9F31",
"0.	c #8B8B8B",
"a.	c #80807C",
"b.	c #6C726D",
"c.	c #9B9E33",
"d.	c #999B35",
"e.	c #6B6B6B",
"f.	c #797979",
"g.	c #787878",
"h.	c #939436",
"i.	c #989A2F",
"j.	c #9A9C2F",
"k.	c #595959",
"l.	c #8E902F",
"m.	c #93953C",
"n.	c #979930",
"o.	c #9A9C2D",
"p.	c #8C8E2F",
"q.	c #4F5038",
"r.	c #565656",
"s.	c #414141",
"t.	c #474747",
"u.	c #525247",
"v.	c #8C8F2F",
"w.	c #82842F",
"x.	c #61635C",
"y.	c #4D4D4D",
"z.	c #5F6466",
"A.	c #636363",
"B.	c #56575A",
"C.	c #424345",
"D.	c #90922C",
"E.	c #95972D",
"F.	c #999B2D",
"G.	c #454545",
"H.	c #707070",
"I.	c #51595D",
"J.	c #666728",
"K.	c #505050",
"L.	c #626262",
"M.	c #535354",
"N.	c #9A9F8B",
"O.	c #636529",
"P.	c #434343",
"Q.	c #969929",
"R.	c #878928",
"S.	c #2B373C",
"T.	c #82842C",
"U.	c #3D434E",
"V.	c #393939",
"W.	c #3E3E3E",
"X.	c #34342A",
"Y.	c #414129",
"Z.	c #50522B",
"`.	c #303236",
" +	c #2C2D30",
".+	c #585858",
"++	c #424750",
"@+	c #464950",
"#+	c #363D47",
"$+	c #404345",
"%+	c #3E444C",
"&+	c #525354",
"*+	c #40454E",
"=+	c #A19AB9",
"-+	c #974D4D",
";+	c #787182",
">+	c #6A6A64",
",+	c #6B6A66",
"'+	c #6C6B69",
")+	c #646554",
"                                                                                                                                ",
"                                                                                                                                ",
"                                                                                                                                ",
"                                                                                                                                ",
"                                                                                                                                ",
"                                                                                                                                ",
"                                                                                                                                ",
"                                                                                                                                ",
"                                                                                                                                ",
"                                                                                                                                ",
"                                                                                                                                ",
"                                                                                                                                ",
"                                                                                                                                ",
"                                                                                                                                ",
"                                                                                                                                ",
"                                                                                                                                ",
"                                                                                                                                ",
"                                                                                                                                ",
"                                                                                                                                ",
"                                                                                                                                ",
"                                                                                                                                ",
"                        +                                                                                                       ",
"                      +                                                                                                         ",
"                    + +                                                                                                         ",
"                    + +                                             +                                                           ",
"                  +   +                         +                   +                                                           ",
"                  + +                   +     + +         +       +                                                             ",
"                  + +   +               +     +           +       +                                                             ",
"                  + +   + + + + + +     +   +             +     + +     + + +                                       #           ",
"      # #   $ $ $ + + $ $ + $ $ $ + $   & + + $ & & + + + $ $ $ + + + + $ $ $ $ + $ * $ $ $ $           $ $ $     = # #         ",
"      = # - $ - - - + - - + - - - + - & & ; + > & + & & + + + + + + - - + - - - + - * - - - -           - - $ -   = # , , ,   = ",
", , = ' # = $ * - + > + - > > - - + - & & ) + + > + > > + > > + + ! ! ! + ! - + + - * - - - - - - -   - - - $     ' # , = ~ , , ",
"= = ' ' # = $ * > { > > > + * * * + * & & + * + > + & * > * & > + & & ! + ! + + + ] * ^ / ( $ - $ $ ( _ ( ^ $ ^ : ' # = ' = < < ",
"~ ' ~ ' = ' $ * [ } > * & & * * > + * & & * * * + + & * * & & + + * * * * + * + + + $ $ + ^ ^ - - - - : - ( - ^ ^ ~ # ' ~ ~ ~ = ",
"' ' = = # ' = * ] * | & & & 1 > > * + + + * * + + + * * * 2 2 + + + + + + + + * * 3 * 2 $ 2 ^ - ( ^ / ^ $ _ - 4 ^ ' # ' ~ ~ ~ ~ ",
"~ = ' = # $ + * + + * & & & > 5 > > 2 * + + > * 2 2 2 2 2 2 + 2 2 2 * & & * * 6 * * * 2 2 ( ^ ^ ^ - - - ^ ^ - ^ ^ ~ # ' ' ~ ~ ~ ",
"' ' < < < ' = * + + + 7 & 8 & 9 > 2 > > * > + > > * 2 2 2 + * 2 2 2 2 2 0 & & 2 + 2 * 2 2 2 ^ ' ' ' ' / ^ 4 - ^ ( ' ' = = ~ ~ ' ",
"' # # # # ' ~ * > + 2 2 a > 2 2 b * * * > > * + > > & & & + 2 * + & 2 2 c + 2 * + & * 2 2 + ' ' ' ' ' - $ $ - ^ / ' # # ' = = # ",
"= , , , = = > * * + * > + & 2 & * d e f > * > > > > & & & & 2 2 2 2 * * g h & * + + * & > ' ' ' ' ^ - $ - - - - ^ ~ ' , ' ' , , ",
"' = , , = = ' * > + + + + + + + + + + i > & > * * * & & 2 2 + * + + j + + + + + + * * > > & & > / _ / - - - $ ^ ^ ' ' = , , , = ",
"' ' = < = ' > * > + > > > + + + * + * k & & + + + l + m + + + + + n ! ! + + + > + > * > > ^ > ^ ( ^ ( ^ - ^ $ ( ^ ' ' = < < = = ",
"~ ' ' = < ~ > * * + * * > + * * * + & & o p + & q q j r s + + + + ! ! ! + > > + + * * > ^ > > > > > - / ^ ^ $ ^ ^ ' ~ ~ = = ' ' ",
"~ ~ ' ' ' ' ' * > + * * > + > > * + & + & t u v q q q * w 6 * * x ! ! ! + ! * * + * * 4 > ^ ' ' ' ' ' ' 4 ( $ ^ ^ ' ' = = ' = = ",
"= ' ' ' ' ' $ * ] + * > * + * * * + * + + + y q q q q q + * * * + ! ! ! + ! ! * + ] * ( ^ = = = = = = = ' ^ ^ ^ $ z ' ' ' = ' ' ",
"' = ' ' ' ' $ * A ] * * * * = = = = = * * + q q q q q q * * * * * * * * * * * * ] A * ^ ' ' ' ' ' ' ' = ' - - ^ - - = = = ' ' = ",
"= = = = = = = * * * * ' = = ' ' ' ' ' * * B q q q q q q q * * * C D * ' ' = = = = = ' ' ' ' ' ' ' ' ' ' $ ( - / _ = ' ' ' ' ' ' ",
"' ' ' ' = = = _ = = = = ' ' ' ' ' ' ' ' = = E q q q q q q q F ^ G C = = = ' ' ' ' ' ' ' ' ' ' ' H H ' 4 $ - $ ^ = ' ' ' ' ' ' ' ",
"' ' ' ' ^ 4 $ ^ ' ' ' ' ' ' ' ' ' = = = = I I I q q q q q q q q ( G C ' ' ^ ^ _ ' ' J K L H H H H H ^ ^ - ^ $ ' = ' ' ' ' ' ' ' ",
"= ' ^ ' ' ' $ $ $ $ $ _ $ ^ ^ ' = ' ' ' I I I I I I q q q q q q _ M G C ( ^ ^ ^ ^ J K L L H H H H H ^ ^ - _ $ ' = ' ' ' ' ' ' ' ",
"= = = = = ' ' ' ^ ^ - - $ - $ ^ = ' ' ( ^ I I I I I I q q q q q N ^ O C P ( ^ ^ ^ J K L L H H H H H ^ : ^ ( $ ^ ^ ^ ^ ^ ' ' ' ' ",
"' ' ' ' ' = = = ^ ^ - - $ ^ - ( ' ' ' ^ Q R I I I I I I q q q q j 4 S q C T ( ^ J J K L L H H H H H ^ _ / ( $ ^ ^ ( ^ ^ = = = = ",
"' ' ' ' ' ' ^ _ ^ ^ ^ ^ $ ^ ^ - ^ ' ' ' U U R I I I I I I q q q q V ( S W C ^ ^ J K L L L H H H H H ^ ^ _ ^ $ ^ ^ $ ^ = = ' ' ' ",
"= = ' ' ' ' ^ ^ ^ _ - ( $ $ - $ _ ' ' ' U U X R I I I I & E I I q q Y Z ` C C J J K L L L H H H H H ^ ^ ^ ( - ^ _ ^ ' = ' ' ' ' ",
"' ' = = _ ( ^ ^ ( ^ $ $ - (  .- ^ ( ^ ^ ..U U R I I I D W W E I I I Y Y +.@.C K K L L L L H H H H H ^ ( / ^ - _ _ = ' ' ' ' ' ' ",
"= = = = ' = = ' ^ ^ ( ( - - #.#.#.^ 4 ^ ^ $.U R I I I I W W W D I I I Y S q C C L L L L L H H H H H ^ ^ ^ ^ ^ ^ ^ ' ' ' ' ' ' = ",
"' ' ' ' = = = = ^ / - / $ - %.#.#.#.%.^ Y U R I I R R &.W W W W I & I Y Y S *.C L L L L L H H H H H ^ $ $ $ $ - - ' ' = = = = ' ",
"' ' ' ' ^ ^ ^ / =.^ ^ - ^ - - #.#.#.#.#.] Y I I R -.-.;.W W W p p I I q Z >.S C ,.L L L L '.H H H H ^ ^ - - - $ - ^ ' ' ' =.' ' ",
"= ' =.=.).=./ ^ =._ ^ - 4 / - !.q #.#.#.#.#.I R -.U ~.,.,.{.{.{.].I I W I S S C ^.K L L /./.'.H H H ^ _ ( ^ - - - ^ ( ^ = =.=.=.",
"' =.).).).).=.=.=.~ (.( ^ ( - ^ q #.#.#.#.#.#._.-.U :.<.{.{.[.[.R I I I }.}.S |.C J K J J /.'.H H ^ ^ ^ ( ^ 4 ( - - ^ = ' =.).' ",
"' = ).= ' = ).' =.' ' ^ _ ^ Y q q #.#.#.#.#.#.#.#.1.+.{.[.[.[.[.2.I I }.}.+.S |.C J J J J K H H H H ( ^ ^ / $ ^ ^ ( ^ ' ' ).).' ",
"~ ' (.~ ~ =.' ' =.=.(.^ $ ^ q q q #.#.#.#.#.#.#.#.3.{.[.[.[.[.[.4.I }.}.5.S |.C 6.J J J J K H H H H H ^ ^ ^ $ ^ ^ ^ ( (.= =.= =.",
"' ~ ~ ~ ~ ' ~ = ).~ ~ ^ $ ( q q q 7.#.#.q #.& & 8.5.{.[.[.[.[.9.I 0.}.5.W |.|.C a.J J J K L L H H H H ( ^ ^ $ $ $ ^ ^ = ' =.~ ~ ",
").).' ' = ~ ~ ' ).= b.^ $ ^ q q q Y Y q q q & c.{.3 {.[.[.[.[.[.d.e.,.,.f.g.G & A Y J K L L L L H H H ^ : ^ - - ^ ^ / = ~ ~ ' ).",
"~ ).).' ~ ' ).' =.' = ( $ / q q q q q q h.i.j.[.{.k.{.l.[.[.[.[.[.m.,.,.,.,.5.v 5.A K L L L L L H H H ^ ^ ^ - - _ - ).' ' ).= = ",
"= =.=.' ~ ).' ' =.' ' ( $ ( q q q k.q n.o.o.o.[.{.` {.{.{.{.p.[.[.[.q.,.,.5.5.5.5.A L L L L L L L L H ^ ^ / r.^ 4 - - ).' ).~ ' ",
"=.).= ' =.= =.=.).=.b./ $ ( q q #.{.[.[.[.[.[.{.s.g g i t.u.{.v.[.w.{.q 5.5.5.5.A A L L L L L L L L H 4 ^ | r.- ( - - ' ' = ' ' ",
"= = = ' ).).).= ).= x._ $ ^ q q +.{.{.{.{.{.{.{.+.+.+.+.<.<.y.{.{.{.#.B I L A A L L L L L L L L L L L ^ z.| r.- ^ $ / ' = ' =.= ",
"' ' ' = = = = = ).' = ^ $ ^ _ ` +.| k.k.k.3 Z +.+.+.+.+.+.+.A.3.3.A.3.I I L L L L L L L L L L L L L ^ _ z.| r./ : $ ^ = ).= = ' ",
").' ' ' ' ' ' ' $ $ = $ $ ^ B.{.{.{.{.{.{.'.+.+.+.+.+.+.+.+.g <.3.3.3.I I L L L L L L L L L L L L L ^ ^ z.| r.( : $ ^ x.' = ' ' ",
"' ' ' ' ' ' ' ' - - - = ( ^ C.{.[.o.D.E.F.{.G.+.+.+.+.+.+.+.+.* j 3.H.I I L L L L L L L L L L L L ^ ^ ^ I.| r.^ ( $ ^ x.= ' ' ' ",
"= = ' ' ' ' ' ' - - - ' - ' {.J.[.o.[.[.o.{.K.+.+.W L.* * * I v I I I I I L L L L L L L L L L L ^ ( ^ I.I.| r./ ( $ ^ ' ' ' ' ' ",
"' ' = = = ' ' ' ' ' ' ' ' ' {.[.[.[.[.[.o.{.Z +.y I I I r.I I I I I I I I L L L L L L L L L L + / : z.z.z.| r.- ^ $ 4 ' ' ' = = ",
"' ' ' ' = = - / - 4 ^ M.{.{.[.[.[.[.[.[.[.[.{.+.v I I I r.| z.I I + I I I L L L L z.z.z.L L + ^ ( z.z.z.z.| r.- - $ ( ' ' ' ' ' ",
"' ' ' ' ' ' = = - N.Z Z {.O.[.[.[.[.[.[.o.[.{.+.+.I I I r.| z.z.z.+ I I I L L L z.z.z.z.+ + ^ ( z.z.z.+ z.| r.( - $ ^ ^ ^ ' ' ' ",
"' ' ' ' ' ' $ ' = = Z Z P.{.Q.R.[.[.[.[.o.[.{.3 +.I I I r.| I I I I + * * * L L z.z.z.+ ^ ( z.z.^ ^ + ^ S.| r./ ^ ^ ( = = ' = = ",
"' = = = = ' $ ' ' = = Z Z '.{.{.{.[.[.[.[.T.{.+.+.U.( / r.V.S.I I I + * * * _ ( ^ _ ( + : ^ ( ^ S.+ S.S.( V.r.( ^ = = ' ' = ' ' ",
"' ' ' ' ' ' $ ' ' ' = = = Z Z W.X.{.{.Y.Z.`. +.+++_ ( ^ r.V.z.z.z.* + * * * + r.r.r.+ r.r.r.z.z.z.+ z.z.z.| r.- - = ' ' ' ' ' = ",
"_ ' ' ' ' ( $ ' $ ' ' ' M.Z Z Z @+^ #+^ 4 : ^ ( + + : ^ r.| z.z.* * * + + * + + + + r.r.z.z.z.+ + z.z.z.z.| r.- - ' ' ' ' = = ' ",
"' ' ' ' $ : $ ^ ^ ^ 4 ^ ( Z Z Z ^ ^ ^ _ 4 ( ^ ^ ^ : $++ r.| z.* * * * V.* + + * * + * * * V.+ V.V.V.V.z.z.| r.: / / ' ' = = ' ' ",
"' ' ' ' ' ' $ ( ^ ^ ^ ( _ %+Z &+^ ( ( / 4 4 ^ ^ 4 ^ $+$+$+$+z.+ + * r.r.r.* + z.* + * * * * + * * z.z.z.z.| r.^ ^ ^ - = ' ' ' ' ",
"' ' ' $ - ' $ _ / $ ^ ( ^ ^ *+_ ^ ^ ^ ^ ( ( : ^ ( _ ( ^ r.r.* * * + + + r.z.z.* * * + * * * * z.z.z.z.z.z.$+$+( + _ ^ = ' ' ' ' ",
"^ ^ =+^ $ - $ = = = = ^ ^ ^ ^ ( ^ ^ ^ ^ ( ( ( ( z.z.z.4 r.| * * * * r.r.z.* z.z.r.r.r.+ r.r.r.r.+ r.r.* * $+$+$+^ - ^ ' ' =+' ' ",
"( ^ =+^ - - - ^ ' ' = ^ ^ : ^ _ ^ ( ^ ( ^ ^ ^ ^ / z.^ * r.| I.I.* * r.r.z.z.z.z.* * * * * * r.r.r.I.+ + S.| $+$+^ $ ^ ' ' =+= = ",
"=+-+=+: - ( ( - $ $ $ = ^ ( _ _ ( _ / / ( z.z.^ ( ^ ^ * $+| z.z.z.* * + z.z.+ z.* * * * * * + + + z.z.z.z.| r.z.^ $ ^ ^ = =+;+;+",
";+;+=+>+,+- - ^ - - ^ ^ ^ / ^ ( ^ ^ ( ^ z.z.z.^ + + + + $+| z.z.z.z.+ * z.z.r.z.* * * * * + * * r.r.z.z.z.| r.z.^ $ ^ '+' =+;+;+",
";+;+=+' - $ - ' = = = = ' ( ^ ^ ( : ^ ^ 4 ^ / ^ / + + + $+| z.z.z.z.z.r.r.z.z.r.* * r.r.r.r.r.r.r.* z.z.z.| r.^ ( $ / ' = =+;+;+",
"~ ;+=+$ $ - ' ' $ $ ' ' ' : ^ ( ^ : ( ^ ^ ( z.z.z.z.z.^ $+| r.S.r.r.r.I.r.z.r.r.r.+ + + + + + + r.* * * I.| r.^ / $ ' = ' =+= -+",
"~ ;+=+= - ^ ^ $ $ $ ^ ^ ^ ^ ^ / _ ^ / _ ^ ^ ^ z.z.z.z.$+$+V.r.r.S.S.S.S.z.z.r.r.r.r.r.r.r.r.r.+ r.r.r.S.S.V.r./ ( $ _ = = =+=+= ",
"= ;+=+' - - $ ^ - - - _ ^ ^ ^ ( / ^ : ( ^ ^ ( z.z.z.z.$+$+$+$+$+z.z.z.z.z.z.z.z.z.z.z.z.z.r.+ r.z.z.z.z.z.V.r.( _ $ ' ' = =+;+-+",
";+= =+- = ' - - ^ - - - ^ ^ / ^ ^ ( ( ^ ^ ( ^ ^ z.z.z.4 $+s $+$+z.z.z.z.z.z.z.r.r.r.+ + + + z.z.z.z.z.z.$+$+r.^ ^ $ = = = =+;+= ",
";+= ;+' )+= $ ^ ' ' - - ^ / 4 _ ^ ^ ^ 4 ( / ( ( ^ ^ ^ ^ $+$+$+$+V.V.V.V.V.V.V.V.r.r.r.r.V.V.V.V.V.V.V.V.s $+$+- - $ ^ = = ;+= ~ ",
";+;+;+= ' ^ $ _ ' ' ^ ^ ^ ^ / ^ ^ ( ^ ^ ^ $ ^ ^ ^ _ $+$+$+r.r.r.r.r.r.r.r.r.r.r.r.r.r.r.r.r.r.r.r.r.r.r.r.$+- - - - ' ' ' ;+=+=+",
";+;+' ' ' = $ / ^ ^ : ^ ^ ^ ^ ^ / : ^ ^ ( / - ^ / ( ^ ^ ^ ( _ ^ ( ( ^ / ^ ^ ^ ^ ^ _ $ ( ^ ^ $ / ^ ^ ^ ^ ^ ( ^ - - - - = = ~ ;+;+",
";+;+' = = = $ $ $ $ $ $ ^ $ $ ^ : $ $ $ $ $ ^ ^ ^ / $ $ $ $ $ $ $ $ $ $ $ ^ / ( ( $ - - ^ $ $ - ^ $ $ $ $ $ $ $ ^ : = = = ;+;+;+",
"= ' = = = ( - - - - - _ ( ^ $ ^ - - - - - - - - - - - - - - - - - - - - - - - ^ ^ ( - ^ ^ $ - - ^ - - - - - - - - ^ ^ = = ~ ' = ",
"= = = = )+^ - - - - - - - - - - - - - - - - - - - - - - - - - - - - - - - - - - - ^ ( / - - - - ^ - - - - - - - - - ^ )+)+)+= = "};
