/* XPM */
static char * nuke_xpm[] = {
"64 96 201 2",
"  	c None",
". 	c #000000",
"+ 	c #848589",
"@ 	c #717173",
"# 	c #727479",
"$ 	c #747778",
"% 	c #757880",
"& 	c #5D625E",
"* 	c #000000",
"= 	c #AD4949",
"- 	c #B34F4F",
"; 	c #000000",
"> 	c #202122",
", 	c #A4A4A4",
"' 	c #964F4F",
") 	c #A45353",
"! 	c #000000",
"~ 	c #313D42",
"{ 	c #5B6366",
"] 	c #60CA67",
"^ 	c #747474",
"/ 	c #00FF12",
"( 	c #909090",
"_ 	c #717171",
": 	c #707070",
"< 	c #6E6E6E",
"[ 	c #6C6C6C",
"} 	c #6B6B6B",
"| 	c #6A6A6A",
"1 	c #6F6F6F",
"2 	c #BEC2B3",
"3 	c #7F8177",
"4 	c #737373",
"5 	c #727272",
"6 	c #6D6D6D",
"7 	c #696969",
"8 	c #676767",
"9 	c #666666",
"0 	c #686868",
"a 	c #868674",
"b 	c #000000",
"c 	c #A2A892",
"d 	c #6C7061",
"e 	c #656565",
"f 	c #646464",
"g 	c #636363",
"h 	c #6981B2",
"i 	c #AAAE96",
"j 	c #000000",
"k 	c #626262",
"l 	c #606060",
"m 	c #5F5F5F",
"n 	c #313131",
"o 	c #616161",
"p 	c #8E8E8E",
"q 	c #878787",
"r 	c #383F4B",
"s 	c #373E4A",
"t 	c #39404C",
"u 	c #383E4A",
"v 	c #383F4A",
"w 	c #2F353F",
"x 	c #1C2026",
"y 	c #8C8C8C",
"z 	c #2F343E",
"A 	c #797565",
"B 	c #4A4A4A",
"C 	c #1C2025",
"D 	c #999A82",
"E 	c #3F3F3F",
"F 	c #7D7D7D",
"G 	c #2F353E",
"H 	c #68645F",
"I 	c #323232",
"J 	c #373737",
"K 	c #1C1F25",
"L 	c #091115",
"M 	c #BFC138",
"N 	c #C3C63C",
"O 	c #080F13",
"P 	c #726F5F",
"Q 	c #59524B",
"R 	c #403B36",
"S 	c #45403A",
"T 	c #4F4942",
"U 	c #544D47",
"V 	c #39404B",
"W 	c #323842",
"X 	c #262B33",
"Y 	c #312D29",
"Z 	c #36322E",
"` 	c #C43C3C",
" .	c #854C4C",
"..	c #363C48",
"+.	c #9D5D5D",
"@.	c #A8AC9F",
"#.	c #5A5A5A",
"$.	c #555555",
"%.	c #323943",
"&.	c #2C323B",
"*.	c #292E37",
"=.	c #22262D",
"-.	c #1F2329",
";.	c #22272D",
">.	c #1E2229",
",.	c #252A32",
"'.	c #9F8683",
").	c #252931",
"!.	c #BE9D9E",
"~.	c #282D36",
"{.	c #1B1F25",
"].	c #2E2E2E",
"^.	c #2B3139",
"/.	c #6C726D",
"(.	c #BABD33",
"_.	c #3B3B3B",
":.	c #637799",
"<.	c #7E8AA7",
"[.	c #C7CA41",
"}.	c #23272E",
"|.	c #837F7E",
"1.	c #917973",
"2.	c #666C67",
"3.	c #606561",
"4.	c #806B66",
"5.	c #89726D",
"6.	c #967F7C",
"7.	c #545855",
"8.	c #4E524F",
"9.	c #73615F",
"0.	c #7B6866",
"a.	c #8D7774",
"b.	c #A54D4D",
"c.	c #262B32",
"d.	c #424643",
"e.	c #3C3F3C",
"f.	c #584A48",
"g.	c #615250",
"h.	c #BD4646",
"i.	c #974D4D",
"j.	c #411C10",
"k.	c #363936",
"l.	c #656667",
"m.	c #393939",
"n.	c #2E343E",
"o.	c #61635C",
"p.	c #615B5B",
"q.	c #7C777E",
"r.	c #2B3039",
"s.	c #505861",
"t.	c #877C95",
"u.	c #333943",
"v.	c #A19AB9",
"w.	c #595959",
"x.	c #5F6466",
"y.	c #565656",
"z.	c #262626",
"A.	c #2B373C",
"B.	c #51595D",
"C.	c #6C759A",
"D.	c #978FAA",
"E.	c #4C4C5B",
"F.	c #5A5868",
"G.	c #3A404C",
"H.	c #3D434F",
"I.	c #504F5E",
"J.	c #5A5768",
"K.	c #787182",
"L.	c #3A3F4A",
"M.	c #3D404B",
"N.	c #474651",
"O.	c #4A4954",
"P.	c #5D6B83",
"Q.	c #393F4E",
"R.	c #444B60",
"S.	c #6E6D6F",
"T.	c #464553",
"U.	c #444A60",
"V.	c #3E414D",
"W.	c #464552",
"X.	c #524E5E",
"Y.	c #413F37",
"Z.	c #3D404D",
"`.	c #524E5D",
" +	c #3A3E46",
".+	c #3D4046",
"++	c #45474B",
"@+	c #424242",
"#+	c #41424D",
"$+	c #3D4655",
"%+	c #646554",
"&+	c #4C4C4C",
"*+	c #373D4A",
"=+	c #41414C",
"-+	c #4A1D0F",
";+	c #3A3E49",
">+	c #41424C",
",+	c #4A4854",
"'+	c #3B3F4A",
")+	c #565048",
"!+	c #544D46",
"                                                                                                                                ",
"                                                                                                                                ",
"                                                                                                                                ",
"                                                                                                                                ",
"                                                                                                                                ",
"                                                                                                                                ",
"                                                                                                                                ",
"                                                                                                                                ",
"                                                                                                                                ",
"                                                                                                                                ",
"                                                                                                                                ",
"                                                                                                                                ",
"                  + + + + + + + + + + + @ @ @ @ @ @ @ @ @ + + + + + + + + + + + +                                               ",
"                  + # # # # # # # # # # @ @ @ @ @ @ @ @ @ # # # # # # # # # # # +                                               ",
"                  + $ $ $ $ $ $ $ $ $ $ % % % % % % % % % $ $ $ $ $ $ $ $ $ $ $ +                                               ",
"                  + $ $ $ $ $ $ $ $ $ $ % % % % % % % % % $ $ $ $ $ $ $ $ $ $ $ +                                               ",
"                  + $ $ $ $ $ $ $ $ $ $ % % % & & % % % % $ $ $ $ $ $ $ $ $ $ $ +                                               ",
"                  + $ $ $ $ $ $ $ $ $ $ % % % & & % % % % $ $ $ $ $ $ $ $ $ $ $ +                                               ",
"                  + $ $ $ $ $ $ $ $ $ $ % % % & & % % % % $ $ $ $ $ $ $ $ $ $ $ +                                               ",
"                  + $ $ $ $ $ $ $ $ $ $ $ $ $ $ $ $ $ $ $ $ $ $ $ $ $ $ $ $ $ $ +                                               ",
"                  + $ $ $ $ $ $ $ $ $ $ $ $ $ $ $ $ $ $ $ $ $ $ $ $ $ $ $ $ $ $ +                                               ",
"                  + $ $ $ $ $ $ $ $ $ $ $ $ $ $ $ $ $ $ $ $ $ $ $ $ $ $ $ $ $ $ +                                               ",
"                  + + + + + + + + + + + + + + + + + + + + + + + + + + + + + + + +                                               ",
"                  # # # # # # # # # # # # # # # # # # # # # # # # # # # # # # # #                                               ",
"= = - - - =       > > > > > > > > > > > > > > > > > > > , , , , , , , , , > > > >                                 - - - - = = - ",
"' ' ) ) ' '       > ~ { > { { ~ ~ > ~ ~ ~ ~ > ~ , , , , ] ^ ^ ^ / ^ ^ ^ ( , , , ,                                 ' ' ' ) ' ' ' ",
"= = - = - -       > ~ { > { { { ~ > ~ ~ ~ ~ , , ( ^ ^ / / ^ ^ ^ ^ ^ ^ ^ ^ ^ ^ ^ ( , / / /                         - - = - - - - ",
"' ' ) ' ) )       > ~ ~ > { { { ~ > ~ ~ ~ , ( ^ ^ ^ ^ / / ^ ^ ^ ^ ^ ^ / / ^ ^ ^ ^ / / / /                         ) ) ' ) ) ) ) ",
"= - = - - -       > ~ ~ > { { { { > ~ ~ / ( ^ ^ ^ _ : < / [ } | ^ | } } / / 1 _ ^ ^ / ( , /                       - = = - = - - ",
"' ) ' ) ) ' 2 2 3 > > > > > > > > > > / / / 4 5 _ 1 6 [ | 7 8 8 9 8 8 0 / } 6 1 _ 5 4 4 , / / 2 2 2 2 2 2 2 2     ) ' ' ) ' ' ) ",
"a a a a a   2 c d > ~ ~ > { { { { > / / / / / / 1 6 } 7 8 e f g g g f e 9 0 } 6 1 _ 5 4 , / / c c c c c c c 2 c     a a a a a a ",
"h h h i i   2 c d > ~ ~ > ~ { { { > { / , ] / / < } 7 9 f k l m m / / / g 9 0 / / / _ ( , / c c c c c c c c 2       i i h h h h ",
"h h h i i a 2 m n > ~ ~ > ~ ~ { { > { / 0 , / / [ 7 9 f o / / / / / / / / g 9 / / / p / q r s s t u r v r w 2 x a a i i h h h h ",
"i i i i i a 2 m n > ~ ~ > ~ ~ { { > { { / / / , ] 8 / / / / / / / / / / / / / 8 y , , / q t t t t v t u r z 2 x a a i A A A A A ",
"i i i i i a 2 m B > > > > > > > > > > > / / 0 0 , , , , ] / / / / / / / ] , , / / q q / q t t t r t s t u z 2 C a a i A A A A A ",
"D D D D D a 2 m E > ~ ~ > ~ ~ ~ ~ > ~ ~ / / / 0 0 0 4 4 , , , , , , , , , F F / / / q q / r t t t t t t t w 2 x a a D A A A A A ",
"A A A A A A 2 m E > ~ ~ > ~ ~ ~ ~ > ~ ~ / / / 0 0 0 4 4 4 4 4 4 4 F F F F F F F / q q q / t t v t s t s t G 2 x A A A A A A A A ",
"D D D D D A 2 m E > ~ ~ > ~ ~ ~ ~ > ~ ~ / / / 0 0 0 4 4 4 4 4 4 4 F F F F F F / / / q q / / t t t t r t v w 2 x A A D D D D D D ",
"a a a a a H 2 m E > ~ ~ > ~ ~ ~ ~ > ~ / / / 0 0 0 0 4 4 4 I I I I J J J J F F / q / q q / / t t s t t t t w 2 K H H a a a a a a ",
"L a a a a H 2 m E > > > > > > > > > > / / / 0 0 0 4 4 4 I M M M M N N N N J F F / q q q q / t r s v s r t w 2 x H H a a a a a L ",
"L A A A A H 2 m E > ~ ~ ~ > ~ ~ ~ > / / / / / 0 0 4 4 I M M M M M N N N N N J F / q q q q / / t r t r t t w 2 K H H A A A A A L ",
"O P A A A Q 2 m E > ~ ~ ~ > ~ ~ ~ > / / / / / 0 0 4 4 4 I M M M M N N N N J F F / / q q q / / t t t t s t w 2 x Q Q A A A A P O ",
"R S T U Q Q 2 m E > ~ ~ ~ > ~ ~ ~ > / / / / / 0 0 4 4 4 I M M M M N N N N J F F q / / q q / / / t t s t V W 2 X Q Q Q Q U T S R ",
"Y Z `  .T U 2 m B > ~ ~ ~ > ~ ~ ~ > ~ ~ / / / 0 0 4 4 4 I M M M M N N N N J F F q / / q q / / / t t t r t ..2 w Q Q U T S R Z Y ",
"` ` ` +.+.+.@.#.$.B E E E E E E E E E E 0 0 0 0 0 4 4 4 4 I M M M N N N J F F F / / / / q / / r v t t t t s 2 t ..%.&.*.=.-.x x ",
"` ` ` +.+.+.+.+.m m m m m m m m m m m m 0 0 0 0 0 4 4 4 4 I M M M N N N J F F F q / / / q t r t r t t u t r 2 s W &.;.>.C x ` ` ",
"` ` ` +.+. . .+.+.+.r r t t v r v t t r 0 0 0 0 0 4 4 4 4 4 I I I J J J F F F F q / / / q t t r t t v V r t 2 t z ,.x K ` ` ` ` ",
"` ` `  . .+.+.+.+.+.t u t t s t t r t t 0 0 0 0 0 4 4 4 4 4 4 4 4 F F F F F F F q / / / / s s s u r t t t t 2 v w X x x ` ` ` ` ",
"` ` ` +.+. . .+.+.+.2 2 2 t t t t V r v 0 0 / 0 0 4 4 4 4 4 4 I I J J F F F F F q q / / / t r t t t t t t v 2 r w X x K ` ` ` ` ",
"` ` ` +.+.+.+. . .+.c c 2 s t t r t t r 0 0 / 0 0 4 4 4 4 4 I M M N N J F F F F q q / q / t v V t r t u t r 2 t w X x x ` ` ` ` ",
"` ` ` +.+.+.+. . . .c c 2 t t r t t t t 0 0 / 0 0 4 4 4 4 I M M M N N N J F F F q q q / q t t t r t t v s r 2 t w ,.x x ` ` ` ` ",
"` ` ` +.+. . . . . .t t 2 t t v t t v 0 0 0 / 0 0 4 4 4 I M M M M N N N N J F F F q q q q q t t r t t t v t 2 t w X x K ` ` ` ` ",
"` ` `  . .+.+.+.+.+.t r 2 u s u v v t 0 0 / / 0 0 4 4 4 I M M M M N N N N J F F F q q q q q t t t r t t t r 2 t z X x x ` ` ` ` ",
"` ` '.'.+.+. .+.+.+.t r 2 r r t t r 0 0 / 0 / 0 4 4 4 4 I M M M M N N N N J F F F q q q q q q v t t t r s t 2 v z ).x K ` ` ` ` ",
"'.'.!.!.'.'.+. . . .r r 2 t s r v t 0 / / / 0 0 4 4 4 4 I M M M M M N N N J F F F F q q q q q u t v t t t t 2 t %.~.-.{.` ` ` ` ",
"!.!.!.!.!.!.'.'. .+.t s 2 t t t t 0 0 0 0 0 0 ].I I I 4 4 I M M M M N N J F F J J J J q q q q q r t t t r t 2 r ..^.=.x ` ` '.'.",
"'.'.'.'.'.'.'.'./.t t t 2 r V t t 0 0 0 ].].].(.M M M I 4 4 I M M M M J F F J N N N N _._._.q q r r t t t t 2 ..W *.=.x C /.'.'.",
":.:.<.!.!.<.:.:.!.v t t 2 s v t 0 0 0 ].(.(.(.(.M M M M I 4 4 I I I I F F J N N N N N N [.[._.q q t t v r t 2 %.&.}.-.x {.!.!.<.",
"<.:.:.!.!.:.<.:.!.|.|.r 2 r t t 0 0 0 ].(.(.(.(.M M M M M I 4 4 4 4 4 F J N N N N N N N N [._.q q t t t r t 2 z X {.x |.|.!.!.:.",
"!.!.!.!.!.!.!.!.!.|.|.t 2 t t 0 0 0 0 0 ].(.(.(.M M M M M I 4 4 4 4 4 4 J N N N N N N N N J q q q q r t t s 2 w X K x |.|.!.!.!.",
"!.!.!.!.!.!.!.!.!.|.|.t 2 t 0 0 0 0 0 0 ].(.(.M M M M M I 4 4 4 4 4 4 4 F J N N N N N N N J q q q q q t t t 2 w X x K |.|.!.!.!.",
"!.!.!.!.!.!.!.!.!.|.|.t 2 r 0 0 0 0 0 0 0 ].(.M M M M I 4 4 4 4 4 4 4 4 F F J N N N N N J F F q q q q r t t 2 2 2 2 x |.|.!.!.!.",
"1.1.1.1.1.1.1.1.1.|.|.t 2 t 0 0 0 0 0 0 0 0 ].M M M M I 4 4 4 4 4 4 4 4 4 F J N N N N J F F F F q q q t u t c c c 2 {.2.3.4.5.1.",
"6.'.'.'.'.:.:.:.'././.r 2 s 0 0 0 0 0 0 0 0 0 I M M I 4 4 4 4 4 4 4 4 4 4 F F J N N J F F F F F q q q t t t c c c 2 C 7.8.9.0.a.",
"b.a.6.'.'.:.:.:.'././.r 2 r 0 0 0 0 0 0 0 0 0 4 I I 4 4 4 4 4 4 4 4 4 4 4 F F F J J F F F F F F F F q t t s t w c.2 K d.e.f.g.h.",
"b.b.i.j.'.'.'.'.'././.s 2 r 0 0 0 0 0 0 0 0 0 4 4 4 4 4 4 4 4 4 4 4 4 4 4 F F F F F F F F F F F F F q V t t s w ,.2 K k.k.h.h.h.",
"i.i.b.i.1.1.1.1.1././.v 2 t 0 0 0 0 0 0 0 0 0 4 4 4 4 4 4 4 k k k l.l.l.l.l.l.l.l.l.k k k k k k k k k k k t r z X 2 {.h.h.h.h.h.",
"b.i.b.b.1.1.1.1.1././.t 2 t v 0 0 0 0 0 0 0 0 4 4 4 4 4 4 4 k m.m.l.l.l.l.l.l.l.l.l.m.m.m.m.m.m.m.m.m.m.k t t n.).2 x h.h.h.h.h.",
"b.i.b.i.o.o.2 2 2 2 2 2 2 t t 0 0 0 0 0 0 0 0 4 4 4 4 4 4 4 k p.p.q.q.q.q.q.q.q.q.q.p.p.p.p.p.p.p.p.p.p.k s v W r.2 X h.h.h.h.h.",
"b.b.i.i.o.o.2 c c c c c c t t r 0 0 0 0 0 0 0 4 4 4 4 4 4 4 k p.p.q.q.q.q.q.q.q.q.q.p.p.p.p.p.p.p.p.p.p.k t r ..W 2 w h.h.h.b.h.",
"i.i.b.b.v v 2 c c c c c c s r v t 0 0 0 0 0 0 4 4 4 4 4 4 4 k p.p.q.q.q.s.s.q.q.q.q.p.p.p.p.p.p.p.p.p.p.k t t s r 2 t h.h.h.h.h.",
"b.i.i.i.t t 2 t t r t t r r t t t / 0 0 0 0 0 4 4 4 4 4 4 4 k p.p.q.q.q.s.s.q.q.q.q.p.p.p.p.p.p.p.p.p.p.k t t t t 2 V h.h.h.h.h.",
"b.b.b.i.t s 2 s s V t r s r v r t / / / 0 0 0 0 4 4 4 4 4 4 k p.p.q.q.q.s.s.q.q.q.q.p.p.p.p.p.p.p.p.p.p.k V t t r 2 r h.h.h.h.h.",
"b.i.b.b.v t 2 v t r t r r / / / / / t / / / 0 0 4 4 4 4 4 4 k k k k k k k k k k k k k k k k k k k k k k k t r r r 2 t h.h.h.h.h.",
"t.b.i.i.r t 2 t s r r t t t v r / / / / / / / / 4 / 4 4 4 9 m.m.m.m.m.m.m.m.m.m.m.m.m.m.m.m.m.m.m.m.m.m.m.u.r s t 2 r h.h.h.h.t.",
"v.t.t.b.V t 2 t t t r t V r s t t / / / / / / / / / / s 4 w.x.x.x.x.x.x.x.x.x.x.x.x.x.x.x.x.x.x.x.x.x.x.x.^.s r t 2 t h.h.t.t.v.",
"v.v.v.t t t 2 r u t s s t r t t r v / / / / r t t v r t y.z.A.A.A.A.A.A.A.A.B.B.B.B.A.A.A.A.A.A.A.A.A.A.A.z.y.v v 2 r t r v.v.v.",
"v.v.v.u u r 2 t t V t t t t t V t t v t V u t r r t u t y.z.A.A.A.A.A.A.A.A.A.B.B.B.B.A.A.A.A.A.A.A.A.A.A.z.y.t t 2 v t t v.v.v.",
"t.t.t.t t u 2 t t t V t r s t t t t t v V r t t t u t t y.z.x.x.x.x.x.x.x.x.x.x.x.x.x.x.x.x.x.x.x.x.x.x.x.z.y.u s 2 t r r t.t.t.",
"C.C.v.r r t 2 r t t t r v v u t t r r s V V t t V t r t y.z.x.x.x.x.x.x.x.x.x.x.x.x.x.x.x.x.x.x.x.x.x.x.x.z.y.t t 2 t r t v.C.C.",
"C.C.D.t r v 2 v s t t r t t t v t t t t r r u t r v r t y.z.x.x.x.x.x.x.x.x.x.x.x.x.x.x.x.x.x.x.x.x.x.x.x.z.y.r t 2 t t t v.C.C.",
"D.D.D.t t t 2 t u r V t t t t r t t t t r r r r t v t V y.z.B.B.B.A.A.A.A.A.A.A.A.A.A.A.A.B.B.B.B.A.A.A.A.z.y.t t 2 E.F.F.D.D.D.",
"D.D.D.t t V 2 t t r v t t u t v t r t r t t t t s t t t y.z.B.B.B.B.A.A.A.A.A.A.A.A.A.A.A.A.B.B.B.B.A.A.A.z.y.G.H.2 I.J.F.D.D.D.",
"K.K.K.u s r 2 t r t t t t r v v r v s s r t t t r t t t y.z.x.x.x.x.x.x.x.x.x.x.x.x.x.x.x.x.x.x.x.x.x.x.x.z.y.L.M.2 N.O.O.K.K.K.",
"P.P.t.K.K.t 2 t t t t t t s t r t t r t t t t t t t v s y.z.x.x.x.x.x.x.x.x.x.x.x.x.x.x.x.x.x.x.x.x.x.x.x.z.y.Q.E.2 R.P.D.D.C.P.",
"C.P.t.S.S.t 2 t t t s t t r t t r u t t V t s t s t t t y.z.x.x.x.x.x.x.x.x.x.x.x.x.x.x.x.x.x.x.x.x.x.x.x.z.y.s T.2 U.P.t.t.P.C.",
"t.t.t.S.S.u 2 v t r u v t u t r t u r t t r v v s t t t y.z.A.A.A.A.A.B.B.B.B.A.A.A.A.A.A.A.A.A.A.A.A.A.B.z.y.V.W.2 X.t.t.t.t.t.",
"t.t.t.S.S.t 2 t t t t t t t t s v t s v t t t t r t t t y.m.A.A.A.A.A.A.A.A.A.A.Y.Y.Y.A.B.B.B.B.A.A.A.A.A.m.y.Z.T.2 `.t.t.t.t.t.",
"S.S.S.S.S.t 2 t t t v v t t t r s t u r t t r t v u t t y.m.x.x.x.x.x.x.x.x.x.A.Y.Y.Y.A.x.x.x.x.x.x.x.x.x.m.y. +.+2 ++S.S.S.S.S.",
"K.K.K.S.S.t 2 t t s t t t t s t t r r t t r t t v s v V y.@+x.x.x.x.x.x.x.x.x.A.Y.Y.Y.A.x.x.x.x.x.x.x.x.x.@+y.s #+2 $+P.K.K.K.K.",
"K.K.K.%+%+r 2 t t t t t t s V v t t t V r s r r t t t t y.&+@+m.m.m.m.m.m.m.m.m.m.m.m.m.m.m.m.m.m.m.m.m.@+&+y.*+=+2 $+P.K.K.K.K.",
"-+K.K.%+%+t 2 v r u t t t t s t t r t t t v t t t v t t y.y.y.y.y.y.y.y.y.y.y.y.y.y.y.y.y.y.y.y.y.y.y.y.y.y.y.;+>+2 ,+K.K.K.K.-+",
"-+K.K.%+%+t 2 s t t u t t t t t s u t t r s r t s r t t t r v t r r t s t t t t t v t r t t t s t t t t t r t '+#+2 O.K.K.K.K.-+",
"-+K.K.%+%+r 2 2 2 2 2 2 2 2 2 2 2 2 2 2 2 2 2 2 2 2 2 2 2 2 2 2 2 2 2 2 2 2 2 2 2 2 2 2 2 2 2 2 2 2 2 2 2 2 2 2 2 2 O.K.K.K.K.-+",
"%+%+%+%+%+)+c c c c c c c c c c c c c c c c c c c c c c c c c c c c c c c c c c c c c c c c c c c c c c c c c c c c %+%+%+%+%+%+",
"%+%+%+%+%+!+c c c c c c c c c c c c c c c c c c c c c c c c c c c c c c c c c c c c c c c c c c c c c c c c c c c c %+%+%+%+%+%+"};
