/* XPM */
static char * scraper_c_xpm[] = {
"64 96 357 2",
"  	c None",
". 	c #C9C6B9",
"+ 	c #A0A2A6",
"@ 	c #B5B19D",
"# 	c #A3ADB0",
"$ 	c #C1BB9F",
"% 	c #819185",
"& 	c #000000",
"* 	c #2E3132",
"= 	c #3A5D6C",
"- 	c #7A929C",
"; 	c #9C9C9C",
"> 	c #5C5C5C",
", 	c #9F8C8C",
"' 	c #BACEC2",
") 	c #738DA8",
"! 	c #304D5A",
"~ 	c #26292A",
"{ 	c #1F2121",
"] 	c #C84747",
"^ 	c #C04040",
"/ 	c #CB4A4A",
"( 	c #7D2727",
"_ 	c #BD3D3D",
": 	c #B93A3A",
"< 	c #C14141",
"[ 	c #C84848",
"} 	c #C44343",
"| 	c #B63737",
"1 	c #9D6262",
"2 	c #905858",
"3 	c #A36666",
"4 	c #593535",
"5 	c #895353",
"6 	c #844F4F",
"7 	c #915959",
"8 	c #9E6262",
"9 	c #965D5D",
"0 	c #7E4B4B",
"a 	c #8B5454",
"b 	c #BF4D4D",
"c 	c #AB3D3D",
"d 	c #7F3333",
"e 	c #B94848",
"f 	c #AF4040",
"g 	c #A63838",
"h 	c #A83A3A",
"i 	c #865050",
"j 	c #6D4444",
"k 	c #9B6060",
"l 	c #8C5555",
"m 	c #7F4B4B",
"n 	c #824E4E",
"o 	c #A53838",
"p 	c #B24242",
"q 	c #7C3131",
"r 	c #B04040",
"s 	c #B64646",
"t 	c #B34343",
"u 	c #B64545",
"v 	c #A33636",
"w 	c #7E4A4A",
"x 	c #684141",
"y 	c #A59AA8",
"z 	c #8D5656",
"A 	c #9A6060",
"B 	c #965C5C",
"C 	c #7B4848",
"D 	c #9A5F5F",
"E 	c #798775",
"F 	c #515A4E",
"G 	c #827585",
"H 	c #A1B49B",
"I 	c #6B7867",
"J 	c #9B9B9B",
"K 	c #5F7AB2",
"L 	c #7D92BD",
"M 	c #A0B299",
"N 	c #6B7766",
"O 	c #A5A3A0",
"P 	c #7C91BB",
"Q 	c #5E79B0",
"R 	c #9CAE95",
"S 	c #687463",
"T 	c #816E70",
"U 	c #98A890",
"V 	c #657060",
"W 	c #798475",
"X 	c #7E6B6C",
"Y 	c #93A289",
"Z 	c #626C5B",
"` 	c #6E7968",
" .	c #6A7463",
"..	c #474D42",
"+.	c #A78973",
"@.	c #5E6758",
"#.	c #87937B",
"$.	c #697796",
"%.	c #35435E",
"&.	c #A9A992",
"*.	c #697260",
"=.	c #50648D",
"-.	c #808B73",
";.	c #4C5E84",
">.	c #434B5D",
",.	c #555D4D",
"'.	c #64718C",
").	c #7A836B",
"!.	c #515747",
"~.	c #091217",
"{.	c #747C64",
"].	c #4D5343",
"^.	c #091115",
"/.	c #626852",
"(.	c #696F58",
"_.	c #6F755D",
":.	c #4A4E3E",
"<.	c #081014",
"[.	c #413D38",
"}.	c #46413C",
"|.	c #504A44",
"1.	c #393530",
"2.	c #3C3833",
"3.	c #5A544D",
"4.	c #554F49",
"5.	c #302C28",
"6.	c #35312D",
"7.	c #C43535",
"8.	c #8B4D4D",
"9.	c #292B2C",
"0.	c #738A93",
"a.	c #292C2C",
"b.	c #6D828B",
"c.	c #3A3531",
"d.	c #575049",
"e.	c #524C45",
"f.	c #4D4741",
"g.	c #443E39",
"h.	c #3F3A35",
"i.	c #C33434",
"j.	c #BF4040",
"k.	c #CC3D3D",
"l.	c #9D5B5B",
"m.	c #955B5B",
"n.	c #A66161",
"o.	c #6C818A",
"p.	c #2B2E2F",
"q.	c #242627",
"r.	c #5F7179",
"s.	c #253B44",
"t.	c #2D4854",
"u.	c #2A434E",
"v.	c #1C1E1F",
"w.	c #08080A",
"x.	c #0E1013",
"y.	c #C93939",
"z.	c #C44444",
"A.	c #D04141",
"B.	c #995757",
"C.	c #8F5757",
"D.	c #9E5B5B",
"E.	c #717161",
"F.	c #223740",
"G.	c #233942",
"H.	c #20333C",
"I.	c #171819",
"J.	c #060708",
"K.	c #BB3D3D",
"L.	c #B23636",
"M.	c #C23333",
"N.	c #9E6161",
"O.	c #834747",
"P.	c #784747",
"Q.	c #985757",
"R.	c #1D2E36",
"S.	c #BE3030",
"T.	c #894C4C",
"U.	c #7F4C4C",
"V.	c #9D5A5A",
"W.	c #945A5A",
"X.	c #CB3C3C",
"Y.	c #CE3E3E",
"Z.	c #AD3232",
"`.	c #C33535",
" +	c #B93B3B",
".+	c #C73838",
"++	c #9C5A5A",
"@+	c #935A5A",
"#+	c #8F5050",
"$+	c #855050",
"%+	c #A05D5D",
"&+	c #273E48",
"*+	c #191B1C",
"=+	c #C14242",
"-+	c #B43737",
";+	c #C53636",
">+	c #5B5B5B",
",+	c #898989",
"'+	c #BD3E3E",
")+	c #CB3B3B",
"!+	c #B63939",
"~+	c #BA2B2B",
"{+	c #B83B3B",
"]+	c #C83939",
"^+	c #C04141",
"/+	c #BA3C3C",
"(+	c #C63737",
"_+	c #B93C3C",
":+	c #CD3E3E",
"<+	c #B83A3A",
"[+	c #BD3F3F",
"}+	c #879E91",
"|+	c #CD3D3D",
"1+	c #B3D2C1",
"2+	c #4B595F",
"3+	c #B13535",
"4+	c #3D494E",
"5+	c #66776D",
"6+	c #435156",
"7+	c #7B90B9",
"8+	c #5E78AF",
"9+	c #516168",
"0+	c #878786",
"a+	c #B0CFBD",
"b+	c #ACC9B8",
"c+	c #848383",
"d+	c #A7C3B1",
"e+	c #807F7E",
"f+	c #A2BBA9",
"g+	c #7C7A78",
"h+	c #758779",
"i+	c #68786C",
"j+	c #706F6C",
"k+	c #696865",
"l+	c #68786B",
"m+	c #6F8072",
"n+	c #8DA18F",
"o+	c #748475",
"p+	c #818181",
"q+	c #141516",
"r+	c #585653",
"s+	c #52504D",
"t+	c #6B7B6D",
"u+	c #849786",
"v+	c #535F54",
"w+	c #375866",
"x+	c #515151",
"y+	c #6A6A6A",
"z+	c #152127",
"A+	c #42403E",
"B+	c #3C3A38",
"C+	c #4E594F",
"D+	c #566257",
"E+	c #694141",
"F+	c #A0A08A",
"G+	c #969681",
"H+	c #838371",
"I+	c #424242",
"J+	c #545454",
"K+	c #10191E",
"L+	c #33312F",
"M+	c #BC2E2E",
"N+	c #563333",
"O+	c #7A7A69",
"P+	c #676759",
"Q+	c #323232",
"R+	c #444444",
"S+	c #0E171B",
"T+	c #B53838",
"U+	c #633D3D",
"V+	c #6B6B5C",
"W+	c #5D5D51",
"X+	c #545449",
"Y+	c #2D2D2D",
"Z+	c #CC3C3C",
"`+	c #B33737",
" @	c #5F3A3A",
".@	c #3F4B51",
"+@	c #C93A3A",
"@@	c #323B3F",
"#@	c #553333",
"$@	c #383831",
"%@	c #D04040",
"&@	c #B03535",
"*@	c #C03232",
"=@	c #BE3F3F",
"-@	c #623C3C",
";@	c #C34343",
">@	c #CF4040",
",@	c #1E1E1E",
"'@	c #643D3D",
")@	c #BF3030",
"!@	c #AE3333",
"~@	c #B03434",
"{@	c #C03131",
"]@	c #A82E2E",
"^@	c #878E9F",
"/@	c #131F24",
"(@	c #C13333",
"_@	c #C24343",
":@	c #CF3F3F",
"<@	c #B3BDD3",
"[@	c #5A5F6A",
"}@	c #B33636",
"|@	c #C23434",
"1@	c #B2BCD2",
"2@	c #777D8C",
"3@	c #868D9E",
"4@	c #858B9C",
"5@	c #B0B9CE",
"6@	c #636773",
"7@	c #838999",
"8@	c #5A6885",
"9@	c #44577E",
"0@	c #5A73A7",
"a@	c #AAB3C6",
"b@	c #778AB1",
"c@	c #7E8391",
"d@	c #5971A3",
"e@	c #7587AD",
"f@	c #A7AFC1",
"g@	c #A3AABC",
"h@	c #9FA6B6",
"i@	c #757984",
"j@	c #74716E",
"k@	c #979CA9",
"l@	c #50658F",
"m@	c #6A7897",
"n@	c #706D69",
"o@	c #9397A2",
"p@	c #4E6189",
"q@	c #667491",
"r@	c #6D6965",
"s@	c #8E919C",
"t@	c #696561",
"u@	c #8A8C95",
"v@	c #66625C",
"w@	c #64656B",
"x@	c #635E58",
"y@	c #818288",
"z@	c #445473",
"A@	c #5A647A",
"B@	c #605B54",
"C@	c #7D7D82",
"D@	c #576174",
"E@	c #42516E",
"F@	c #5D5751",
"G@	c #79797C",
"H@	c #331E10",
"I@	c #767477",
"J@	c #311D10",
"K@	c #58524A",
"L@	c #737173",
"M@	c #301C0F",
"N@	c #7A7A7A",
"O@	c #565048",
"P@	c #544D46",
"                                                                                                                                ",
"                                                          . . . . . . . . . . . + + + + + + + + + . . . . . . . . . . . .       ",
"                                                      . . . @ @ @ @ @ @ @ @ @ @ + + + + + + + + + @ @ @ @ @ @ @ @ @ @ @ .       ",
"                                                      . . . # # # # # # # # # # $ $ $ $ $ $ $ $ $ # # # # # # # # # # # .       ",
"                                                      . . . # # # # # # # # # # $ $ $ $ $ $ $ $ $ # # # # # # # # # # # .       ",
"                                                      . . . # # # # # # # # # # $ $ $ % % $ $ $ $ # # # # # # # # # # # .       ",
"                                                      . . . # # # # # # # # # # $ $ $ % % $ $ $ $ # # # # # # # # # # # .       ",
"                                                      . . . # # # # # # # # # # $ $ $ % % $ $ $ $ # # # # # # # # # # # .       ",
"                                                      . . . # # # # # # # # # # # # # # # # # # # # # # # # # # # # # # .       ",
"                                                      . . . # # # # # # # # # # # # # # # # # # # # # # # # # # # # # # .       ",
"        . . . . . . . . . . . + + + + + + + + + . . . . . . . . . . . . # # # # # # # # # # # # # # # # # # # # # # # # .       ",
"        . @ @ @ @ @ @ @ @ @ @ + + + + + + + + + @ @ @ @ @ @ @ @ @ @ @ . . . . . . . . . . . . . . . . . . . . . . . . . .       ",
"        . # # # # # # # # # # $ $ $ $ $ $ $ $ $ # # # # # # # # # # # . @ @ @ @ @ @ @ @ @ @ @ @ @ @ @ @ @ @ @ @ @ @ @ @ @ &     ",
"        . # # # # # # # # # # $ $ $ $ $ $ $ $ $ # # # # # # # # # # # . * * * * * * * * * * * * * * * * * * * * * * * * * &     ",
"        . # # # # # # # # # # $ $ $ % % $ $ $ $ # # # # # # # # # # # . = * = = = = * = = = = * = = = = * - - - - * - - * &     ",
"        . # # # # # # # # # # $ $ $ % % $ $ $ $ # # # # # # # # # # # . = * = = = = * = = = = * = = = = * - - - - * - - * &     ",
"        . # # # # # # # # # # $ $ $ % % $ $ $ $ # # # # # # # # # ; ; ; + + + + + + + + + ; ; ; ; ; ; ; ; ; ; ; - * = - * &     ",
"        . # # # # # # # # # # # # # # # # # # # # # # # # # # # # ; > > + + + + + + + + + > > > > > > > > > > ; - * = = * &     ",
"        . # # # # # # # # # # # # # # # # # # # # # # # # # # # # ; , , ' ' ' ' ' ' ' ' ' , , , , , , , , , , ; * * * * * &     ",
"        . # # # # # # # # # # # # # # # # # # # # # # # # # # # # ; , , ' ' ' ' ' ' ' ' ' , , , , , , , , , , ; - * = = * &     ",
"        . . . . . . . . . . . . . . . . . . . . . . . . . . . . . ; , , ' ' ' ) ) ' ' ' ' , , , , , , , , , , ; = * = = * &     ",
"      & @ @ @ @ @ @ @ @ @ @ @ @ @ @ @ @ @ @ @ @ @ @ @ @ @ @ @ @ @ ; , , ' ' ' ) ) ' ' ' ' , , , , , , , , , , ; = * = = * &     ",
"& & & & * * * * * * * * * * * * * * * * * * * * * * * * * * * * * ; , , ' ' ' ) ) ' ' ' ' , , , , , , , , , , ; ! ~ ! ! ~ & & & ",
"& & & & * = - * - - = = * = = = = * = = = = * = = = = * - - - - * ; , , , , , , , , , , , , , , , , , , , , , ; { { { { { & & & ",
"] ^ / ( * = - * - - - = * = = = = * = = = = * = = = = * - - - - * ; , , , , , , , , , , , , , , , , , , , , , ; _ : < / [ } | _ ",
"1 2 3 4 * = = * - - - = * = = = = * = = = = * = = = = * - - - - * ; , , , , , , , , , , , , , , , , , , , , , ; 5 6 7 3 8 9 0 a ",
"b b c d * = = * - - - - * = = - - * - - - = * = = = = * - - - - * ; , , , , , , , , , , , , , , , , , , , , , ; e b b b f g b h ",
"3 3 i j * * * * * * * * * * * * * * * * * * * * * * * * * * * * * ; , , , , , , , , , , , , , , , , , , , , , ; k 3 3 3 l m 3 n ",
"b o p q * = = * - - - - * = = - - * - - - - * = = = = * - - - - * ; , , , , , , , , , , , , , , , , , , , , , ; r s e t u e v e ",
"3 w 2 x * = = * = - - - * - = - - * - - - - * y y y y y y y y y y y y y y y y y y y y y y y y y y + + + + + , ; z 9 A 7 B A C D ",
"E E E F * = = * = = - - * - - - - * = - - - * y G G G G G G G G G G G G G G G G G G G G G G G G y + + + + + , ; E E E E E E E E ",
"H H H I * = = * = = - - * - - - - * = - - - * y J J J J J J J J J J J J J J J J J J J J J J J J y ' ' ' ' ' , ; K K L H H L K K ",
"M M M N * * * * * * * * * * * * * * * * * * * y J J J J J J J O O O O O O O O O J J J J J J J J y ' ' ' ' ' , ; P Q Q M M Q P Q ",
"R R R S * = = * = = = = * - - - - * = = = - * y J J J J J J J O O O O O O O O O J J J J J J J J y ' ' ' ' ' , ; T T T T R R R R ",
"U U U V * = = * = = = = * - - - - * = = = = * y J J J J J J J W W W W W W W W W J J J J J J J J y ' ' ' ' ' , ; X X X X U U U U ",
"Y Y Y Z * = = * = = = = * - - - - * = = = = * y J J J J J J J W W W W W W W W W J J J J J J J J y ; ; ; ; ; ; ; ` ` ` ` Y Y Y Y ",
" . . ...* = = * = = = = * - - - - * = = = = * y J J J J J J J W W W +.+.W W W W J J J J J J J J y > > > > > > > @. . . . . . . .",
"#.#.$.%.* * * * * * * * * * * * * * * * * * * y J J J J J J J W W W +.+.W W W W J J J J J J J J y &.&.&.&.&.&.&.*.#.#.#.#.=.$.=.",
"-.-.;.>.* = = * = = = = * = - - - * = = = = * y J J J J J J J W W W +.+.W W W W J J J J J J J J y = = = = = = = ,.-.-.-.-.;.;.'.",
").).).!.* = = * = = = = * = = - - * = = = = * y J J J J J J J J J J J J J J J J J J J J J J J J y = = = = = = = !.).~.~.).).).).",
"{.{.{.].* - = * = = = = * = = = = * = = = = * y J J J J J J J J J J J J J J J J J J J J J J J J y &.&.&.&.&.&.&.].{.^.^.{.{.{.{.",
"/.(._.:.* - - * = = = = * = = = = * = = = = * y J J J J J J J J J J J J J J J J J J J J J J J J y &.&.&.&.&.&.&.:._.<.<._._.(./.",
"[.}.|.1.* * * * * * * * * * * * * * * * * * * y y y y y y y y y y y y y y y y y y y y y y y y y y &.&.&.&.&.&.&.2.3.3.3.4.|.}.[.",
"5.6.7.8.9.0.- * = = = = * = = = = * = = = = a.G G G G G G G G G G G G G G G G G G G G G G G G G G b.- - = = = = c.d.e.f.g.h.6.5.",
"i.j.k.l.m.n.o.p.= = = = * = = = = * = = = = q.G G G = - - - - G G = = = = = G G = = = = = G G G G r.- - - = = = s.9.t.u.v.w.x.x.",
"y.z.A.B.C.D.m.n.- = - - * - = = = * = = = = { G G G = = - - - G G = = = = = G G = = = = = G G G G E.&.&.&.&.&.&.F.q.G.H.I.J.A.K.",
"A.L.M.n.N.O.P.D.m.Q.- - * - - = = * = = = = { G G G = = = - - G G = = = = = G G = = = = = G G G G E.&.&.&.&.&.&.H.{ R.R.A.K.y.z.",
"S.z.A.T.U.n.N.V.W.n.* * * * * * * * * * * * { G G G = = = = - G G - = = = = G G = = = = = G G G G E.&.&.&.&.&.&.H.{ R.R.X.< Y.Z.",
"`. +.+++@+#+$+n.N.%+- - * - - - - * = = = = { G G G = = = = = G G - - = = = G G = = = = = G G G G &+= = = = = - *+{ I.I.S.=+Y.-+",
";+z.y y y y y y y y y y y y y y y y y y y y y G G G = = = = = G G - - = = = G G = = = = = G G G G &+= = = = = = >+,+R.R.A.'+)+!+",
"k.z.y G G G G G G G G G G G G G G G G G G G G G G G = = = = = G G - - - - = G G = = = = = G G G G E.&.&.&.&.&.&.>+,+R.R.~+{+.+j.",
"]+^+y J J J J J J J J J J J J J J J J J J J J G G G = = = = = G G = - - - - G G = = = = = G G G G E.&.&.&.&.&.&.>+,+R.R.X.z.A./+",
"(+_+y J J J J J J J J J J J J J J J J J J J J G G G = = = = = G G = = - - - G G = = = = = G G G G E.&.&.&.&.&.&.>+,+R.R.A.^+:+<+",
"Y.z.y J J J J J J J J J J J J J J J J J J J J G G G = = = = = G G = = = - - G G = = = = = G G G G &+= = = = = = >+,+I.I..+[+)+=+",
"}+}+y J J J J J J J J J J J J J J J J J J J J G G G = = = = = G G = = = = - G G - = = = = G G G G &+= = = = = = >+,+H.R.i.^ |+z.",
"1+1+y J J J J J J J J J J J J J J J J J J J J G G G = = = = = G G = = = = = G G - = = = = G G G G E.&.&.&.&.&.&.>+,+2+R.k.3+}+}+",
"}+}+y J J J J J J J J J J J J J J J J J J J J G G G = = = = = G G = = = = = G G - - - = = G G G G E.&.&.&.&.&.&.>+,+2+4+I.5+}+}+",
"K K y J J J J J J J J J J J J J J J J J J J J G G G = = = = = G G = = = = = G G - - - - = G G G G E.&.&.&.&.&.&.>+,+6+4+I.1+1+L ",
"7+8+y J J J J J J J J J J J J J J J J J J J J G G G - = = = = G G = = = = = G G = - - - - G G G G 9+- - - = = = >+,+I.0+0+a+a+8+",
"b+b+y J J J J J J J J J J J J J J J J J J J J G G G - - - = = G G = = = = = G G = = - - - G G G G &+- - - - = = >+,+4+c+c+b+b+b+",
"d+d+y J J J J J J J J J J J J J J J J J J J J G G G - - - - = G G = = = = = G G = = = - - G G G G E.&.&.&.&.&.&.>+,+4+e+e+d+d+d+",
"f+f+y J J J J J J J J J J J J J J J J J J J J G G G = - - - - G G = = = = = G G = = = = - G G G G E.&.&.&.&.&.&.>+,+4+g+g+f+f+f+",
"h+i+y y y y y y y y y y y y y y y y y y y y y G G G = = - - - G G = = = = = G G = = = = = G G G G E.&.&.&.&.&.&.>+,+R.j+k+l+m+h+",
"n+o+G G G G G G G G G G G G G G G G G G G G G G G G = = = = - G G - - = = = G G = = = = = G G G G &+= = = = = - >+p+q+r+s+t+o+u+",
"B.v+G G G - - = = = G G = = = = = G G = - - - = G G = = = = = G G - - - - = G G = = = = = G G G G &+= = = = = w+x+y+z+A+B+C+D+k.",
"n.E+G G G - - - - = G G = = = = = G G = = - - - G G = = = = = G G - - - - - G G = = = = = G G G G E.&.&.&.F+G+H+I+J+K+L+L+M+j.k.",
"8.N+G G G = - - - - G G = = = = = G G = = = - - G G = = = = = G G = = - - - G G - = = = = G G G G E.&.F+G+H+O+P+Q+R+S+A.z.A.T+7.",
"l.U+G G G = = - - - G G = = = = = G G = = = = - G G - = = = = G G = = = = - G G - - - = = G G G G V+G+H+O+P+W+X+Y+Z+< Y.`+i.j.k.",
"B. @G G G = = = = - G G - = = = = G G = = = = = G G - - = = = G G = = = = = G G - - - - - G G G G .@u.G.H.R.R.X.K.+@z.A.K.y.z.A.",
"n.E+G G G = = = = = G G - - = = = G G = = = = = G G - - - = = G G = = = = = G G = - - - - G G G G @@6+R.R.)+z.A.z.A.K.y.z.A.L.M.",
"T.#@G G G = = = = = G G - - - - = G G = = = = = G G - - - - = G G = = = = = G G = = = = - G G G G $@X+%@z.A.&@*@=@X.< Y.Z.S.z.A.",
"++-@G G G = = = = = G G = - - - - G G = = = = = G G = - - - - G G = = = = = G G = = = = = G G G G $@X+.+;@>@j.Z+Z.S.=+Y.-+`. +.+",
"n.E+G G G = = = = = G G = = - - - G G = = = = = G G = = = - - G G = = = = = G G = = = = = G G G G ,@Y+)+`+i.{+.+z.A.'+)+!+;+z.A.",
"D.'@G G G = = = = = G G = = = = - G G - - = = = G G = = = = - G G - - = = = G G = = = = = G G G G Y+R+)@!@)@~@{@]@~+{+.+j.k.z.A.",
"^@E+G G G = = = = = G G = = = = = G G - - - = = G G = = = = = G G - - - = = G G = = = = = G G G G /@R.(@_@:@z.A.=@X.z.A./+]+^+^@",
"<@[@G G G = = = = = G G = = = = = G G - - - - = G G = = = = = G G - - - - - G G = = = = = G G G G /@R.Z+}@|@z.A.z.A.^+:+<+^@^@<@",
"1@2@G G G - = = = = G G = = = = = G G = - - - - G G = = = = = G G = - - - - G G = = = = = G G G G /@R.X.< Y.T+7.{+.+[+3@3@1@1@1@",
",+>+G G G - - = = = G G = = = = = G G = = = - - G G = = = = = G G = = = - - G G = = = = = G G G G >+,+A. +.+_+]+-+4@4@5@5@5@5@5@",
",+>+G G G - - - = = G G = = = = = G G = = = = = G G - - = = = G G = = = = = G G - - = = = G G G G >+,++@z.A.z.6@6@7@7@7@7@7@7@7@",
",+>+G G G = - - - - G G = = = = = G G = = = = = G G - - - - = G G = = = = = G G - - - = = G G G G >+,+k.!+8@9@0@a@0@0@0@a@a@b@0@",
",+>+G G G = = - - - G G = = = = = G G = = = = = G G = - - - - G G = = = = = G G = - - - - G G G G >+,+R+c@d@e@d@f@e@e@d@f@f@d@e@",
",+>+G G G = = = = - G G - = = = = G G = = = = = G G = = - - - G G = = = = = G G = = - - - G G G G >+,+R+g@g@g@g@g@g@g@g@g@g@g@g@",
",+>+G G G = = = = = G G - - = = = G G = = = = = G G = = = - - G G - = = = = G G = = = - - G G G G >+,+R+h@h@h@h@h@h@h@h@h@h@h@h@",
",+>+G G G = = = = = G G - - - - = G G = = = = = G G = = = = = G G - - - = = G G = = = = = G G G G >+,+R+i@i@i@i@i@i@i@i@i@i@i@i@",
",+>+G G G = = = = = G G = - - - - G G = = = = = G G = = = = = G G - - - - = G G = = = = = G G G G >+,+j@k@l@l@m@k@l@m@l@k@k@m@l@",
",+>+G G G = = = = = G G = = - - - G G = = = = = G G = = = = = G G = - - - - G G = = = = = G G G G >+,+n@o@p@p@p@o@p@q@p@o@o@p@q@",
",+>+G G G = = = = = G G = = = - - G G - = = = = G G = = = = = G G = = = - - G G = = = = = G G G G >+,+r@s@s@s@s@s@s@s@s@s@s@s@s@",
",+>+G G G - - = = = G G = = = = = G G - - - = = G G = = = = = G G = = = = - G G - - = = = G G G G >+,+t@u@u@u@u@u@u@u@u@u@u@u@u@",
",+>+G G G - - - - = G G = = = = = G G - - - - = G G = = = = = G G = = = = = G G - - - - = G G G G >+,+v@w@w@w@w@w@w@w@w@w@w@w@w@",
",+>+G G G = - - - - G G = = = = = G G = - - - - G G = = = = = G G = = = = = G G = - - - - G G G G >+,+x@y@z@z@z@y@A@z@z@y@y@y@y@",
",+>+G G G = = = - - G G - = = = = G G = = = - - G G = = = = = G G = = = = = G G = = = - - G G G G >+,+B@C@D@E@E@C@E@D@E@C@C@C@C@",
",+>+G G G = = = = - G G - - - = = G G = = = = - G G - - = = = G G = = = = = G G = = = = - G G G G >+,+F@G@G@G@G@G@G@G@G@G@G@G@H@",
",+>+G G G = = = = = G G - - - - - G G = = = = = G G - - - = = G G = = = = = G G = = = = = G G G G >+,+3.I@I@I@I@I@I@I@I@I@I@I@J@",
",+y+G G G = = = = = G G = - - - - G G = = = = = G G - - - - - G G = = = = = G G = = = = = G G G G y+,+K@L@L@L@L@L@L@L@L@L@L@L@M@",
",+N@y+>+>+>+>+>+>+>+>+>+>+>+>+>+>+>+>+>+>+>+>+>+>+>+>+>+>+>+>+>+>+>+>+>+>+>+>+>+>+>+>+>+>+>+>+>+y+N@,+O@O@O@O@O@O@O@O@O@O@O@O@O@",
",+,+,+,+,+,+,+,+,+,+,+,+,+,+,+,+,+,+,+,+,+,+,+,+,+,+,+,+,+,+,+,+,+,+,+,+,+,+,+,+,+,+,+,+,+,+,+,+,+,+,+P@P@P@P@P@P@P@P@P@P@P@P@P@"};
