/* XPM */
static char * scraper_c_xpm[] = {
"64 96 56 1",
" 	c None",
".	c #000000",
"+	c #000000",
"@	c #5D5F60",
"#	c #4F5254",
"$	c #535555",
"%	c #525558",
"&	c #575959",
"*	c #424547",
"=	c #2E3132",
"-	c #3A5D6C",
";	c #466B7A",
">	c #B34F4F",
",	c #AD4949",
"'	c #A45353",
")	c #964F4F",
"!	c #868674",
"~	c #AAAE96",
"{	c #6981B2",
"]	c #999A82",
"^	c #797565",
"/	c #526489",
"(	c #59524B",
"_	c #C43C3C",
":	c #854C4C",
"<	c #9D5D5D",
"[	c #39404C",
"}	c #9F8683",
"|	c #BE9D9E",
"1	c #6C726D",
"2	c #637799",
"3	c #7E8AA7",
"4	c #837F7E",
"5	c #917973",
"6	c #A54D4D",
"7	c #BD4646",
"8	c #974D4D",
"9	c #492012",
"0	c #61635C",
"a	c #877C95",
"b	c #A19AB9",
"c	c #787182",
"d	c #898989",
"e	c #6C759A",
"f	c #978FAA",
"g	c #5D6B83",
"h	c #383F4A",
"i	c #373E4A",
"j	c #383F4B",
"k	c #383E4A",
"l	c #6E6D6F",
"m	c #B5B5B5",
"n	c #AEA89A",
"o	c #646554",
"p	c #4A1D0F",
"q	c #39404B",
"  ++++++++++++++++++++++++++++++++++++++++++++++++++++++++++++  ",
" +@@@@@@@@@@@#########@@@@@@@@@@@@@@@@@@@#########@@@@@@@@@@@@+ ",
" +@$$$$$$$$$$#########$$$$$$$$@$$$$$$$$$$#########$$$$$$$$$$$@+ ",
" +@%%%%%%%%%%&&&&&&&&&%%%%%%%%@%%%%%%%%%%&&&&&&&&&%%%%%%%%%%%@+ ",
" +@%%%%%%%%%%&&&&&&&&&%%%%%%%%@%%%%%%%%%%&&&&&&&&&%%%%%%%%%%%@+ ",
" +@%%%%%%%%%%&&&**&&&&%%%%%%%%@%%%%%%%%%%&&&**&&&&%%%%%%%%%%%@+ ",
" +@%%%%%%%%%%&&&**&&&&%%%%%%%%@%%%%%%%%%%&&&**&&&&%%%%%%%%%%%@+ ",
" +@%%%%%%%%%%&&&**&&&&%%%%%%%%@%%%%%%%%%%&&&**&&&&%%%%%%%%%%%@+ ",
" +@%%%%%%%%%%%%%%%%%%%%%%%%%%%@%%%%%%%%%%%%%%%%%%%%%%%%%%%%%%@+ ",
" +@%%%%%%%%%%%%%%%%%%%%%%%%%%%@%%%%%%%%%%%%%%%%%%%%%%%%%%%%%%@+ ",
" +@%%%%%%%%%%%%%%%%%%%%%%%%%%%@%%%%%%%%%%%%%%%%%%%%%%%%%%%%%%@+ ",
" +@@@@@@@@@@@@@@@@@@@@@@@@@@@@@@@@@@@@@@@@@@@@@@@@@@@@@@@@@@@@+ ",
" +$$$$$$$$$$$$$$$$$$$$$$$$$$$$$$$$$$$$$$$$$$$$$$$$$$$$$$$$$$$$+ ",
" +============================================================+ ",
" +=-;=;;--=----=----=----=;;;;=-;=;;--=----=----=----=;;;;=;;=+ ",
" +=-;=;;;-=----=@@@@@@@@@@@#########@@@@@@@@@@@@=----=;;;;=;;=+ ",
" +=--=;;;-=----=@$$$$$$$$$$#########$$$$$$$$$$$@=----=;;;;=-;=+ ",
" +=--=;;;;=--;;=@%%%%%%%%%%&&&&&&&&&%%%%%%%%%%%@=----=;;;;=--=+ ",
" +==============@%%%%%%%%%%&&&&&&&&&%%%%%%%%%%%@==============+ ",
" +=--=;;;;=--;;=@%%%%%%%%%%&&&**&&&&%%%%%%%%%%%@=----=;;;;=--=+ ",
" +=--=-;;;=;-;;=@%%%%%%%%%%&&&**&&&&%%%%%%%%%%%@=----=;;;-=--=+ ",
" +=--=--;;=;;;;=@%%%%%%%%%%&&&**&&&&%%%%%%%%%%%@=----=----=--=+ ",
" +=--=--;;=;;;;=@%%%%%%%%%%%%%%%%%%%%%%%%%%%%%%@=;---=----=--=+ ",
" +==============@%%%%%%%%%%%%%%%%%%%%%%%%%%%%%%@==============+ ",
">+=--=----=;;;;=@%%%%%%%%%%%%%%%%%%%%%%%%%%%%%%@=;;;-=----=--=+,",
"'+=--=----=;;;;=@@@@@@@@@@@@@@@@@@@@@@@@@@@@@@@@=;;;-=----=--=+)",
">+=--=----=;;;;=$$$$$$$$$$$$$$$$$$$$$$$$$$$$$$$$=;;;;=-;;;=;-=+,",
"'+=--=----=;;;;==================================;;;;=-;;;=;;=+)",
">+===============-;=;;--=----=----=----=;;;;=;;===============+>",
"'+=--=----=-;;;==-;=;;;-=----=----=----=;;;;=;;==-;;;=;;;;=;;=+'",
"!+=--=----=--;;==--=;;;-=----=----=----=;;;;=-;==--;;=;;;;=;;=+!",
"~+=;-=----=----==--=;;;;=--;;=;;;-=----=;;;;=--==---;=;;;;=;;=+{",
"~+=;;=----=----==================================---;=;;;;=;;=+{",
"~+===============--=;;;;=--;;=;;;;=----=;;;;=--===============+~",
"~+=;;=----=----==--=-;;;=;-;;=;;;;=----=;;;-=--==----=;;;;=-;=+~",
"]+=;;=----=----==--=--;;=;;;;=-;;;=----=----=--==----=;;;;=-;=+]",
"^+=;;=;-;;=;---==--=--;;=;;;;=-;;;=;---=----=--==----=-;;;=--=+^",
"]+=;;=;;;;=;;--==================================----=----=--=+/",
"!+===============--=----=;;;;=---;=;;;-=----=--===============+/",
"!+=-;=;;;;=;;;;==--=----=;;;;=----=;;;-=----=--==----=----=--=+!",
"^+=--=;;;;=;;;;==--=----=;;;;=----=;;;;=-;;;=;-==----=----=--=+^",
"^+=--=;;;;=;;;;==--=----=;;;;=----=;;;;=-;;;=;;==----=----=--=+^",
"(+=--=;;;;=;-;;==================================----=----=--=+(",
"(+_:=============--=----=-;;;=----=-;;;=;;;;=;;===============+(",
"___<<<-;;;=;;--==--=----=--;;=----=--;;=;;;;=;;==----=----=--=+[",
"___<<<<<;;=;;--==;-=----=----=----=---;=;;;;=;;==---;=;---=--=__",
"___<<::<<<=;;--==;;=----=----=----=---;=;;;;=;;==--;;=;;--=-____",
"___::<<<<<=----==================================;;;;=;;--=-____",
"___<<::<<<=======;;=----=----=----=----=;;;;=-;=============____",
"___<<<<::<=----==;;=----=----=----=----=;;;;=-;==;;;;=;;;-=-____",
"___<<<<:::=----==;;=;-;;=;---=----=----=-;;;=--==;;;;=;;;-=-____",
"___<<:::::=----==;;=;;;;=;;--=----=----=----=--==;;;;=;;;-=-____",
"___::<<<<<=----==================================;;;;=;;;;=-____",
"__}}<<:<<<=======-;=;;;;=;;;;=----=----=----=--=============____",
"}}||}}<:::=----==--=;;;;=;;;;=;---=----=----=--==----=-;;;=-____",
"||||||}}:<=----==--=;;;;=;;;;=;;--=----=----=--==----=-;;;=;__}}",
"}}}}}}}}1-=----==--=;;;;=;-;;=;;;-=----=----=--==----=--;;=;;1}}",
"223||322|;=;;--==================================----=--;;=;;||3",
"322||232|44======--=-;;;=;;--=;;;;=----=----=--============44||2",
"|||||||||44;;;-==--=--;;=;;--=;;;;=---;=;---=--==----=----=44|||",
"|||||||||44;;;-==--=---;=;;--=-;;;=--;;=;;--=--==----=----=44|||",
"|||||||||44;;;-==--=----=----=-;;;=;;;;=;;--=--==----=----=44|||",
"55555555544;;;;==================================----=----=11555",
"}}}}}222}11======--=----=----=--;;=;;;;=;;;-=--============11}}}",
"6}}}}222}11-;;;==--=----=----=---;=;;;;=;;;-=--==----=----=11}}7",
"6689}}}}}11-;;;==--=----=----=----=;;;;=;;;-=--==----=----=11777",
"88688555511--;;==;-=----=----=----=;;;;=;;;;=--==;;;-=----=77777",
"68668865511--;;==================================;;;-=---7777777",
"68686688800======;;=----=----=----=----=-;;;=--========777777777",
"66886868688---;==;;=;---=----=----=----=-;;;=;-==;;;;77777777767",
"8866686688888--==;;=;---=----=----=----=--;;=;;==;;7777777777777",
"6888666688688--==;;=;;-;=;;--=----=----=--;;=;;==-;7777777777777",
"6668886866666--==================================--7777777777777",
"6866888888886====-;=;;;;=;;;-=----=----=----=;;====7777777777777",
"a688888888688-=-=--=;;;;=;;;-=----=----=----=;;=-=-777777777777a",
"baa6666868886-=-=--=;;;;=;;;-=----=----=----=;;=-=-7777777777aab",
"bbbaa66688666-=-=--=;;;;=;;;;=----=----=----=-;=-=-77777777aabbb",
"bbbbbaa888888-=-================================-=-777777aabbbbb",
"aaaaaaacc8666ddd=--=--;;=-;;;=----=----=----=--=ddd7777ccaaaaaaa",
"eebbeeefegg86ddd=--=----=-;;;=;---=----=----=--=ddd77ggebeeebbee",
"eeffeeefeeea[[dd=--=----=--;;=;-;;=;;;-=----=--=ddhiaeeebeeebbee",
"ffffffffffff[[dd=--=----=--;;=;;;;=;;;-=----=--=ddj[ffffffffffff",
"ffffffffffff[kdd================================dd[[ffffffffffff",
"cccccccccccc[jdd=--=----=---;=;;;;=;;;;=----=--=ddijcccccccccccc",
"ggaagggagegaccdd=--=----=----=;;;;=;;;;=----=--=ddllfggefgegffeg",
"egaaeegaegealldd=--=----=----=;;;-=-;;;=;---=--=ddllagggagegaage",
"aaaaaaaaaaaalldd=--=----=----=----=--;;=;;--=--=ddllaaaaaaaaaaaa",
"aaaaaaaaaaaalldd================================ddllaaaaaaaaaaaa",
"lllllllllllllldd=---=---=---=-mmmm-=--;=;;;=---=ddllllllllllllll",
"ccccgggcgggclldd=---=---=---=-mnnm-=---=;;;=---=ddoocgggcgggcccc",
"ccccgggcgggcoodd=---=---=---=-mnnm-=---=;;;=;--=ddoocgggcgggcccc",
"pcccccccccccoodd=---=---=---=-mnnm-=---=;;;=;;-=ddoocccccccccccp",
"pcccccccccccooddddddddddddddddddddddddddddddddddddoocccccccccccp",
"pcccccccccccooddddddddddddddddddddddddddddddddddddoocccccccccccp",
"oooooooooooooo[[h[q[[j[[[[[q[[j[[[i[j[[[[jq[[[k[[[oooooooooooooo",
"oooooooooooooo[[[[h[i[jj[[[[[[[[[h[jjjh[[[jij[[[[hoooooooooooooo"};
