/* XPM */
static char * scraper_b_xpm[] = {
"64 96 254 2",
"  	c None",
". 	c #9C9C9C",
"+ 	c #A0A2A6",
"@ 	c #5C5C5C",
"# 	c #C9C6B9",
"$ 	c #9F8C8C",
"% 	c #BACEC2",
"& 	c #B5B19D",
"* 	c #A3ADB0",
"= 	c #C1BB9F",
"- 	c #738DA8",
"; 	c #819185",
"> 	c #000000",
", 	c #2E3132",
"' 	c #3A5D6C",
") 	c #7A929C",
"! 	c #A9A992",
"~ 	c #C84747",
"{ 	c #C04040",
"] 	c #CB4A4A",
"^ 	c #BB3B3B",
"/ 	c #832D2D",
"( 	c #7E2929",
"_ 	c #9D6262",
": 	c #905858",
"< 	c #A36666",
"[ 	c #865050",
"} 	c #653E3E",
"| 	c #5D3838",
"1 	c #BF4D4D",
"2 	c #AB3D3D",
"3 	c #7F3333",
"4 	c #702727",
"5 	c #D4EADD",
"6 	c #573434",
"7 	c #A53838",
"8 	c #B24242",
"9 	c #7B3030",
"0 	c #7E4A4A",
"a 	c #949494",
"b 	c #673F3F",
"c 	c #798775",
"d 	c #515A4E",
"e 	c #A1B49B",
"f 	c #3F5177",
"g 	c #A0B299",
"h 	c #3F5175",
"i 	c #9CAE95",
"j 	c #687463",
"k 	c #98A890",
"l 	c #879680",
"m 	c #657060",
"n 	c #93A289",
"o 	c #727E6A",
"p 	c #6D828B",
"q 	c #626C5B",
"r 	c #6A7463",
"s 	c #474D42",
"t 	c #505050",
"u 	c #5F7179",
"v 	c #87937B",
"w 	c #464F64",
"x 	c #516168",
"y 	c #35435E",
"z 	c #808B73",
"A 	c #333F58",
"B 	c #434B5D",
"C 	c #7A836B",
"D 	c #515747",
"E 	c #747C64",
"F 	c #4D5343",
"G 	c #626852",
"H 	c #696F58",
"I 	c #4A4E3E",
"J 	c #414537",
"K 	c #413D38",
"L 	c #46413C",
"M 	c #35312D",
"N 	c #2B2925",
"O 	c #302C28",
"P 	c #832323",
"Q 	c #201D1B",
"R 	c #C33434",
"S 	c #BF4040",
"T 	c #882929",
"U 	c #090B0D",
"V 	c #C93939",
"W 	c #C44444",
"X 	c #8B2B2B",
"Y 	c #7D2929",
"Z 	c #D04141",
"` 	c #B23636",
" .	c #812222",
"..	c #BE3030",
"+.	c #732121",
"@.	c #C33535",
"#.	c #B93B3B",
"$.	c #852525",
"%.	c #782525",
"&.	c #C53636",
"*.	c #792626",
"=.	c #CC3D3D",
"-.	c #7F2B2B",
";.	c #C83939",
">.	c #C04141",
",.	c #892929",
"'.	c #7C2828",
").	c #C63737",
"!.	c #B93C3C",
"~.	c #852626",
"{.	c #7B2727",
"].	c #CE3E3E",
"^.	c #5A6961",
"/.	c #812C2C",
"(.	c #879E91",
"_.	c #778C81",
":.	c #B3D2C1",
"<.	c #5F7AB2",
"[.	c #53617E",
"}.	c #7B90B9",
"|.	c #5E78AF",
"1.	c #3F5075",
"2.	c #345360",
"3.	c #ACC9B8",
"4.	c #73867B",
"5.	c #353535",
"6.	c #90A097",
"7.	c #242627",
"8.	c #A7C3B1",
"9.	c #898989",
"0.	c #5B5B5B",
"a.	c #7C8981",
"b.	c #273E48",
"c.	c #6F8276",
"d.	c #A2BBA9",
"e.	c #6C7D71",
"f.	c #758779",
"g.	c #2B2E2F",
"h.	c #6C818A",
"i.	c #4E5A51",
"j.	c #8DA18F",
"k.	c #375866",
"l.	c #335260",
"m.	c #2A434E",
"n.	c #586971",
"o.	c #586459",
"p.	c #995757",
"q.	c #1F2121",
"r.	c #292B2C",
"s.	c #212324",
"t.	c #1C1E1F",
"u.	c #191B1C",
"v.	c #A66161",
"w.	c #2D4854",
"x.	c #233942",
"y.	c #20333C",
"z.	c #171819",
"A.	c #1D2E36",
"B.	c #BC2E2E",
"C.	c #8B4D4D",
"D.	c #253B44",
"E.	c #B53838",
"F.	c #C43535",
"G.	c #9D5B5B",
"H.	c #3F4B51",
"I.	c #CC3C3C",
"J.	c #C14141",
"K.	c #B33737",
"L.	c #323B3F",
"M.	c #435156",
"N.	c #CB3C3C",
"O.	c #BB3D3D",
"P.	c #C93A3A",
"Q.	c #0F1011",
"R.	c #CB3B3B",
"S.	c #C23333",
"T.	c #894C4C",
"U.	c #3E3E3E",
"V.	c #B03535",
"W.	c #C03232",
"X.	c #BE3F3F",
"Y.	c #AD3232",
"Z.	c #9C5A5A",
"`.	c #474747",
" +	c #CF4040",
".+	c #C14242",
"++	c #B43737",
"@+	c #C73838",
"#+	c #B83B3B",
"$+	c #BD3E3E",
"%+	c #B63939",
"&+	c #9E5B5B",
"*+	c #39404C",
"=+	c #383F4B",
"-+	c #373E4A",
";+	c #383F4A",
">+	c #BF3030",
",+	c #B03434",
"'+	c #C03131",
")+	c #A82E2E",
"!+	c #BA2B2B",
"~+	c #878E9F",
"{+	c #CF3F3F",
"]+	c #BA3C3C",
"^+	c #B3BDD3",
"/+	c #C23434",
"(+	c #CD3E3E",
"_+	c #B83A3A",
":+	c #B2BCD2",
"<+	c #BD3F3F",
"[+	c #868D9E",
"}+	c #B0B9CE",
"|+	c #39404B",
"1+	c #383E4A",
"2+	c #858B9C",
"3+	c #838999",
"4+	c #636773",
"5+	c #5A73A7",
"6+	c #5A6885",
"7+	c #44577E",
"8+	c #AAB3C6",
"9+	c #778AB1",
"0+	c #5971A3",
"a+	c #7587AD",
"b+	c #A7AFC1",
"c+	c #A3AABC",
"d+	c #9FA6B6",
"e+	c #757984",
"f+	c #50658F",
"g+	c #6A7897",
"h+	c #979CA9",
"i+	c #667491",
"j+	c #4E6189",
"k+	c #9397A2",
"l+	c #8E919C",
"m+	c #8A8C95",
"n+	c #64656B",
"o+	c #818288",
"p+	c #445473",
"q+	c #5A647A",
"r+	c #7D7D82",
"s+	c #576174",
"t+	c #42516E",
"u+	c #331E10",
"v+	c #6E6951",
"w+	c #79797C",
"x+	c #311D10",
"y+	c #767477",
"z+	c #301C0F",
"A+	c #6A6A6A",
"B+	c #737173",
"C+	c #565048",
"D+	c #7A7A7A",
"E+	c #544D46",
"                                                                                                                                ",
"          . . . + + + + + + + + + . . . . . . . . . . .                                                                         ",
"          . @ @ + + + + + + + + + @ @ @ @ @ @ @ @ @ @ .       # # # # # # # # # # # + + + + + + + + + # # # # # # # # # # # #   ",
"          . $ $ % % % % % % % % % $ $ $ $ $ $ $ $ $ $ .       # & & & & & & & & & & + + + + + + + + + & & & & & & & & & & & #   ",
"          . $ $ % % % % % % % % % $ $ $ $ $ $ $ $ $ $ .       # * * * * * * * * * * = = = = = = = = = * * * * * * * * * * * #   ",
"          . $ $ % % % - - % % % % $ $ $ $ $ $ $ $ $ $ .       # * * * * * * * * * * = = = = = = = = = * * * * * * * * * * * #   ",
"          . $ $ % % % - - % % % % $ $ $ $ $ $ $ $ $ $ .       # * * * * * * * * * * = = = ; ; = = = = * * * * * * * * * * * #   ",
"          . $ $ % % % - - % % % % $ $ $ $ $ $ $ $ $ $ .       # * * * * * * * * * * = = = ; ; = = = = * * * * * * * * * * * #   ",
"          . $ $ $ $ $ $ $ $ $ $ $ $ $ $ $ $ $ $ $ $ $ .       # * * * * * * * * * * = = = ; ; = = = = * * * * * * * * * * * #   ",
"          . $ $ $ $ $ $ $ $ $ $ $ $ $ $ $ $ $ $ $ $ $ .       # * * * * * * * * * * * * * * * * * * * * * * * * * * * * * * #   ",
"          . $ $ $ $ $ $ $ $ $ $ $ $ $ $ $ $ $ $ $ $ $ .       # * * * * * * * * * * * * * * * * * * * * * * * * * * * * * * #   ",
"          . $ $ $ $ $ $ $ $ $ $ $ $ $ $ $ $ $ $ $ $ $ .       # * * * * * * * * * * * * * * * * * * * * * * * * * * * * * * #   ",
"          . $ $ $ $ $ $ $ $ $ $ $ $ $ $ $ $ $ $ $ $ $ .       # # # # # # # # # # # # # # # # # # # # # # # # # # # # # # # #   ",
"          . $ $ $ $ $ $ $ $ $ $ $ $ $ $ $ $ $ $ $ $ $ .     > & & & & & & & & & & & & & & & & & & & & & & & & & & & & & & & & > ",
"          . $ $ $ $ $ $ $ $ $ $ $ + + + + + + + + + $ .     > , , , , , , , , , , , , , , , , , , , , , , , , , , , , , , , , > ",
"          . $ $ $ $ $ $ $ $ $ $ $ + + + + + + + + + $ .     > , ' ) , ) ) ' ' , ' ' ' ' , ' ' ' ' , ' ' ' ' , ) ) ) ) , ) ) , > ",
"          . $ $ $ $ $ $ $ $ $ $ $ % % % % % % % % % $ .     > , ' ) , ) ) ) ' , ' ' ' ' , ' ' ' ' , ' ' ' ' , ) ) ) ) , ) ) , > ",
"          . $ $ $ $ $ $ $ $ $ $ $ % % % % % % % % % $ .     > , ' ' , ) ) ) ' , ' ' ' ' , ' ' ' ' , ' ' ' ' , ) ) ) ) , ' ) , > ",
"          . $ $ $ $ $ $ $ $ $ $ $ % % % % % % % % % $ .     > , ' ' , ) ) ) ) , ' ' ) ) , ) ) ) ' , ' ' ' ' , ) ) ) ) , ' ' , > ",
"          . $ $ $ $ $ $ $ $ $ $ $ % % % % % % % % % $ .     > , , , , , , , , , , , , , , , , , , , , , , , , , , , , , , , , > ",
"          . . . . . . . . . . . . . . . . . . . . . . .     > , ' ' , ) ) ) ) , ' ' ) ) , ) ) ) ) , ' ' ' ' , ) ) ) ) , ' ' , > ",
"        > @ @ @ @ @ @ @ @ @ @ @ @ @ @ @ @ @ @ @ @ @ @ @ >   > , ' ' , ' ) ) ) , ) ' ) ) , ) ) ) ) , ' ' ' ' , ) ) ) ' , ' ' , > ",
"> > > > > ! ! ! ! ! ! ! ! ! ! ! ! ! ! ! ! ! ! ! ! ! ! ! >   > , ' ' , ' ' ) ) , ) ) ) ) , ' ) ) ) , ' ' ' ' , ' ' ' ' , ' ' , > ",
"> > > > > ' ' ' ' ' ' ' ' ) ) ) ) ' ' ' ' ' ' ' ' ' ' ' >   > , ' ' , ' ' ) ) , ) ) ) ) , ' ) ) ) , ) ' ' ' , ' ' ' ' , ' ' , > ",
"~ { ] ^ / ' ' ' ' ' ' ' ' ' ) ) ) ) ' ' ' ' ' ' ' ' ' ' >   > , , , , , , , , , , , , , , , , , , , , , , , , , , , , , , , , ( ",
"_ : < [ } ! ! ! ! ! ! ! ! ! ! ! ! ! ! ! ! ! ! ! ! ! ! ! >   > , ' ' , ' ' ' ' , ) ) ) ) , ' ' ' ) , ) ) ) ' , ' ' ' ' , ' ' , | ",
"1 1 2 1 3 ! ! ! ! ! ! ! ! ! ! ! ! ! ! ! ! ! ! ! ! ! ! ! >   > , ' ' , ' ' ' ' , ) ) ) ) , ' ' ' ' , ) ) ) ' , ' ' ' ' , ' ' , 4 ",
"< < [ 5 5 5 5 5 5 5 5 5 5 5 5 5 5 5 5 5 5 5 5 5 5 5 5 5 5 5 5 5 5 ' , ' ' ' ' , ) ) ) ) , ' ' ' ' , ) ) ) ) , ' ) ) ) , ) ' , 6 ",
"1 7 8 5 % % % % % % % % % % % % % % % % % % % % % % % % % % % % 5 ' , ' ' ' ' , ) ) ) ) , ' ' ' ' , ) ) ) ) , ' ) ) ) , ) ) , 9 ",
"< 0 : 5 a a a a a a a a a a a a a a a a a a a a a a a a a a a a 5 , , , , , , , , , , , , , , , , , , , , , , , , , , , , , , b ",
"c c c 5 a a a a a a a a a a a a a a a a a a a a a a a a a a a a 5 ' , ' ' ' ' , ' ) ) ) , ' ' ' ' , ' ) ) ) , ) ) ) ) , ) ) , d ",
"e e e 5 a a a a a a a a a a a a a a a a a a a a a a a a a a a a 5 ' , ' ' ' ' , ' ' ) ) , ' ' ' ' , ' ' ) ) , ) ) ) ) , ) ) , f ",
"g g g 5 a a a a a a a a a a a a a a a a a a a a a a a a a a a a 5 ' , ' ' ' ' , ' ' ' ' , ' ' ' ' , ' ' ' ) , ) ) ) ) , ) ) , h ",
"i i i 5 a a a a a a a a a a a a a a a a a a a a a a a a a a a a 5 ) , ' ' ' ' , ' ' ' ' , ' ' ' ' , ' ' ' ) , ) ) ) ) , ) ) , j ",
"k k l 5 a a a a a a a a a a 5 5 5 5 5 5 5 5 5 5 5 5 5 5 5 5 5 5 5 , , , , , , , , , , , , , , , , , , , , , , , , , , , , , , m ",
"n n o 5 a a a a a a a a a a 5 % % % % % % % % % % % % % % % % % % p , ' ' ' ' , ' ' ' ' , ' ' ' ' , ' ' ' ' , ) ) ) ) , ' ) , q ",
"r r s 5 a a a a a a a a a a 5 t ' ' ' ' ) ) ) ) ) ' ' ' ' ' ' t t u , ' ' ' ' , ' ' ' ' , ' ' ' ' , ' ' ' ' , ) ) ) ) , ' ) , s ",
"v v w 5 a a a a a a a a a a 5 t ' ' ' ' ' ' ) ) ) ) ) ' ' ' ' t t x , ) ' ) ) , ) ' ' ' , ' ' ' ' , ' ' ' ' , ' ) ) ) , ' ' , y ",
"z z A 5 a a a a a a a a a a 5 t ' ' ' ' ' ' ' ) ) ) ) ) . . . + + + + + + + + + . . . . . . . . . . . ' ' ' , ' ' ' ' , ' ' , B ",
"C C D 5 a a a a a a a a a a 5 t % % % % % % % % % % % % . @ @ + + + + + + + + + @ @ @ @ @ @ @ @ @ @ . , , , , , , , , , , , , D ",
"E E F 5 a a a a a a a a a a 5 t % % % % % % % % % % % % . $ $ % % % % % % % % % $ $ $ $ $ $ $ $ $ $ . ' ' ' , ' ' ' ' , ' ' , F ",
"G H I 5 a a a a a a a a a a 5 t ) ) ) ' ' ' ' ' ' ' ' ' . $ $ % % % % % % % % % $ $ $ $ $ $ $ $ $ $ . ' ' ' , ' ' ' ' , ' ' , J ",
"K L M 5 a a a a a a a a a a 5 t ) ) ) ) ' ' ' ' ' ' ' ' . $ $ % % % - - % % % % $ $ $ $ $ $ $ $ $ $ . ' ' ' , ' ' ' ' , ' ' , N ",
"O M P 5 a a a a a a a a a a 5 t ' ' ) ) ) ' ' ' ' ' ' ' . $ $ % % % - - % % % % $ $ $ $ $ $ $ $ $ $ . ' ' ' , ' ' ' ' , ' ' , Q ",
"R S T 5 a a a a a a a a a a 5 t % % % % % % % % % % % % . $ $ % % % - - % % % % $ $ $ $ $ $ $ $ $ $ . , , , , , , , , , , , , U ",
"V W X 5 a a a a a a a a a a 5 t % % % % % % % % % % % % . $ $ $ $ $ $ $ $ $ $ $ $ $ $ $ $ $ $ $ $ $ . ' ' ' , ' ' ' ' , ' ' , Y ",
"Z `  .5 a a a a a a a a a a 5 t ' ' ' ' ' ) ) ) ) ' ' ' . $ $ $ $ $ $ $ $ $ $ $ $ $ $ $ $ $ $ $ $ $ . ' ' ) , ) ' ' ' , ' ' , / ",
"..W X 5 a a a a a a a a a a 5 t ' ' ' ' ' ' ) ) ) ) ) ' . $ $ $ $ $ $ $ $ $ $ $ $ $ $ $ $ $ $ $ $ $ . ' ) ) , ) ) ' ' , ' ' , +.",
"@.#.$.5 a a a a a a a a a a 5 t ' ' ' ' ' ' ' ' ) ) ) ) . $ $ $ $ $ $ $ $ $ $ $ $ $ $ $ $ $ $ $ $ $ . ) ) ) , ) ) ' ' , ' ' , %.",
"&.W X 5 a a a a a a a a a a 5 t % % % % % % % % % % % % . $ $ $ $ $ $ $ $ $ $ $ $ $ $ $ $ $ $ $ $ $ . , , , , , , , , , , , , *.",
"=.W X 5 a a a a a a a a a a 5 t % % % % % % % % % % % % . $ $ $ $ $ $ $ $ $ $ $ $ $ $ $ $ $ $ $ $ $ . ) ) ) , ) ) ) ' , ' ' , -.",
";.>.,.5 a a a a a a a a a a 5 t ' ' ' ' ' ' ' ' ' ' ' ) . $ $ $ $ $ $ $ $ $ $ $ + + + + + + + + + $ . ) ) ) , ) ) ) ' , ' ' , '.",
").!.~.5 a a a a a a a a a a 5 t ' ' ' ' ' ' ' ' ' ' ' ' . $ $ $ $ $ $ $ $ $ $ $ + + + + + + + + + $ . ) ) ) , ) ) ) ' , ' ' , {.",
"].W ^.5 a a a a a a a a a a 5 t ' ' ' ' ' ' ' ' ' ' ' ' . $ $ $ $ $ $ $ $ $ $ $ % % % % % % % % % $ . ) ) ) , ) ) ) ) , ' ' , /.",
"(.(._.5 a a a a a a a a a a 5 t % % % % % % % % % % % % . $ $ $ $ $ $ $ $ $ $ $ % % % % % % % % % $ . , , , , , , , , , , , , / ",
":.:._.5 a a a a a a a a a a 5 t % % % % % % % % % % % % . $ $ $ $ $ $ $ $ $ $ $ % % % % % % % % % $ . ' ' ' , ' ) ) ) , ' ' , ^.",
"(.(.^.5 a a a a a a a a a a 5 t ) ) ) ) ' ' ' ' ' ' ' ' . $ $ $ $ $ $ $ $ $ $ $ % % % % % % % % % $ . ' ' ' , ' ) ) ) , ) ' , ^.",
"<.<.[.5 5 5 5 5 5 5 5 5 5 5 5 t ' ) ) ) ) ' ' ' ' ' ' ' . . . . . . . . . . . . . . . . . . . . . . . ' ' ' , ' ' ) ) , ) ) , [.",
"}.|.1.% % % % % % % % % % % % t ' ' ) ) ) ) ' ' ' ' ' 2.@ @ @ @ @ @ @ @ @ @ @ @ @ @ @ @ @ @ @ @ @ @ @ 2.' ' , ' ' ) ) , ) ) , 1.",
"3.3.4.t ' ' ) ) ) ) ' ' ' ' 5.t % % % % % % % % % % % 6.! ! ! ! ! ! ! ! ! ! ! ! ! ! ! ! ! ! ! ! ! ! ! 7., , , , , , , , , , , 4.",
"8.9.0.t ' ' ' ) ) ) ) ' ' ' 5.t % % % % % % % % % % % a.' ' ' ' ' ' ' ' ) ) ) ) ' ' ' ' ' ' ' ' ' ' ' b.' ' , ' ' ' ' , ) ) , c.",
"d.9.0.t ' ' ' ' ) ) ) ) ' ' 5.t ' ' ' ' ' ' ) ) ) ) ) b.' ' ' ' ' ' ' ' ' ) ) ) ) ' ' ' ' ' ' ' ' ' ' b.' ' , ' ' ' ' , ) ) , e.",
"f.9.0.t % % % % % % % % % % 5.t ' ' ' ' ' ' ' ' ) ) ) x ! ! ! ! ! ! ! ! ! ! ! ! ! ! ! ! ! ! ! ! ! ! ! b.' ' , ' ' ' ' g.h.h.g.i.",
"j.9.0.t % % % % % % % % % % 5.t ) ' ' ' ' ' ' ' ' ) ) x ! ! ! ! ! ! ! ! ! ! ! ! ! ! ! ! ! ! ! ! ! ! ! b.' ' , ' ' k.l.7.m.n.7.o.",
"p.9.0.t ' ' ' ' ' ' ' ' ) ) 5.t % % % % % % % % % % % a.! ! ! ! ! ! ! ! ! ! ! ! ! ! ! ! ! ! ! ! ! ! ! q., , , g.r.7.s.t.u.u.t.=.",
"v.9.0.t ' ' ' ' ' ' ' ' ' ) 5.t % % % % % % % % % % % a.) ) ) ' ' ' ' ' ' ' ' ' ' ' ' ) ) ) ) ' ' ' ' b.' k.r.w.m.x.y.z.A.B.S =.",
"C.9.0.t ' ' ' ' ' ' ' ' ' ' 5.t ) ) ) ) ' ' ' ' ' ' ' b.) ) ) ) ' ' ' ' ' ' ' ' ' ' ' ' ) ) ) ) ' ' ' D.l.w.s.x.y.A.A.Z W Z E.F.",
"G.9.0.t % % % % % % % % % % 5.t ' ) ) ) ) ) ' ' ' ' ' b.! ! ! ! ! ! ! ! ! ! ! ! ! ! ! ! ! ! ! ! ! ! ! H.n.x.u.A.A.I.J.].K.R S =.",
"p.9.0.t % % % % % % % % % % 5.t ' ' ) ) ) ) ' ' ' ' ' b.! ! ! ! ! ! ! ! ! ! ! ! ! ! ! ! ! ! ! ! ! ! ! L.M.A.z.N.O.P.W Z O.V W Z ",
"v.9.0.t ) ) ) ) ' ' ' ' ' ' 5.t % % % % % % % % % % % a.! ! ! ! ! ! ! ! ! ! ! ! ! ! ! ! ! ! ! ! ! ! ! Q.z.R.W Z W Z O.V W Z ` S.",
"T.9.0.t ' ) ) ) ) ' ' ' ' ' U.t % % % % % % % % % % % a.' ' ' ' ' ) ) ) ) ' ' ' ' ' ' ' ' ' ' ' ' ' ) X W Z V.W.X.N.J.].Y...W Z ",
"Z.9.0.t ' ' ) ) ) ) ' ' ' ' `.`.0.0.0.0.0.0.0.0.0.0.9.0.' ' ' ' ' ' ) ) ) ) ' ' ' ' ' ' ' ' ' ' ' ' ' 0.9. +S I.Y....+].++@.#.@+",
"v.9.0.t % % % % % % % % % % t 0.9.9.9.9.9.9.9.9.9.9.9.0.! ! ! ! ! ! ! ! ! ! ! ! ! ! ! ! ! ! ! ! ! ! ! 0.9.R #+@+W Z $+R.%+&.W Z ",
"&+9.0.t % % % % % % % % % % t 0.9.*+*+=+*+-+*+;+;+*+9.0.! ! ! ! ! ! ! ! ! ! ! ! ! ! ! ! ! ! ! ! ! ! ! 0.9.>+,+'+)+!+#+@+S =.W Z ",
"~+9.0.t ' ' ' ' ' ' ) ) ) ) t 0.9.*+*+*+=+*+;+*+*+;+9.0.! ! ! ! ! ! ! ! ! ! ! ! ! ! ! ! ! ! ! ! ! ! ! 0.9.{+W Z X.N.W Z ]+;.>.~+",
"^+9.0.t ' ' ' ' ' ' ' ) ) ) t 0.9.*+=+-+;+*+*+;+*+*+9.0.' ' ' ' ' ' ' ' ' ' ) ) ) ) ' ' ' ' ' ' ' ' ' 0.9./+W Z W Z >.(+_+~+~+^+",
":+9.0.t ' ' ' ' ' ' ' ' ' ) t 0.9.;+;+*+*+*+=+*+*+;+9.0.' ' ' ' ' ' ' ' ' ' ' ) ) ) ) ' ' ' ' ' ' ' ' 0.9.].E.F.#+@+<+[+[+:+:+:+",
"}+9.0.t % % % % % % % % % % t 0.9.*+;+*+|+1+*+=+=+*+9.0.! ! ! ! ! ! ! ! ! ! ! ! ! ! ! ! ! ! ! ! ! ! ! 0.9.@+!.;.++2+2+}+}+}+}+}+",
"3+9.0.t % % % % % % % % % % t 0.9.*+*+;+|+=+*+*+*+1+9.0.! ! ! ! ! ! ! ! ! ! ! ! ! ! ! ! ! ! ! ! ! ! ! 0.9.Z W 4+4+3+3+3+3+3+3+3+",
"5+9.0.t ) ) ) ' ' ' ' ' ' ' t 0.9.=+=+-+|+|+*+*+|+*+9.0.! ! ! ! ! ! ! ! ! ! ! ! ! ! ! ! ! ! ! ! ! ! ! 0.9.6+7+5+8+5+5+5+8+8+9+5+",
"0+9.0.t ' ) ) ) ) ' ' ' ' ' t 0.9.*+*+*+=+=+1+*+=+;+9.0.) ) ) ' ' ' ' ' ' ' ' ' ' ' ' ' ) ) ) ) ' ' ' 0.9.0+a+0+b+a+a+0+b+b+0+a+",
"c+9.0.t ' ' ) ) ) ) ' ' ' ' t 0.9.*+*+*+=+=+=+=+*+;+9.0.) ) ) ) ' ' ' ' ' ' ' ' ' ' ' ' ' ) ) ) ) ' ' 0.9.c+c+c+c+c+c+c+c+c+c+c+",
"d+9.0.t % % % % % % % % % % t 0.9.=+*+=+*+*+*+*+-+*+9.0.! ! ! ! ! ! ! ! ! ! ! ! ! ! ! ! ! ! ! ! ! ! ! 0.9.d+d+d+d+d+d+d+d+d+d+d+",
"e+9.0.t % % % % % % % % % % t 0.9.;+-+-+=+*+*+*+=+*+9.0.! ! ! ! ! ! ! ! ! ! ! ! ! ! ! ! ! ! ! ! ! ! ! 0.9.e+e+e+e+e+e+e+e+e+e+e+",
"f+9.0.t ' ' ' ' ' ) ) ) ) ) t 0.9.*+=+*+*+*+*+*+*+*+9.0.! ! ! ! ! ! ! ! ! ! ! ! ! ! ! ! ! ! ! ! ! ! ! 0.9.f+f+g+h+f+g+f+h+h+g+f+",
"i+9.0.t ' ' ' ' ' ' ' ) ) ) t 0.9.1+*+*+|+*+-+*+-+*+9.0.' ' ' ' ' ) ) ) ) ) ' ' ' ' ' ' ' ' ' ' ' ' ) 0.9.j+j+j+k+j+i+j+k+k+j+i+",
"l+9.0.t ' ' ' ' ' ' ' ' ) ) t 0.9.1+=+*+*+=+;+;+-+*+9.0.' ' ' ' ' ' ) ) ) ) ) ' ' ' ' ' ' ' ' ' ' ' ' 0.9.l+l+l+l+l+l+l+l+l+l+l+",
"m+9.0.t % % % % % % % % % % t 0.9.*+-+;+*+*+*+*+=+*+9.0.! ! ! ! ! ! ! ! ! ! ! ! ! ! ! ! ! ! ! ! ! ! ! 0.9.m+m+m+m+m+m+m+m+m+m+m+",
"n+9.0.t % % % % % % % % % % t 0.9.*+1+=+*+*+=+*+;+1+9.0.! ! ! ! ! ! ! ! ! ! ! ! ! ! ! ! ! ! ! ! ! ! ! 0.9.n+n+n+n+n+n+n+n+n+n+n+",
"o+9.0.t ) ) ) ) ' ' ' ' ' ' t 0.9.=+=+*+*+=+*+*+;+-+9.0.! ! ! ! ! ! ! ! ! ! ! ! ! ! ! ! ! ! ! ! ! ! ! 0.9.p+p+p+o+q+p+p+o+o+o+o+",
"r+9.0.t ) ) ) ) ) ' ' ' ' ' t 0.9.*+*+|+=+-+=+=+*+*+9.0.' ' ' ' ' ' ' ' ' ' ' ' ) ) ) ) ) ' ' ' ' ' ' 0.9.s+t+t+r+t+s+t+r+r+r+r+",
"u+9.0.t ' ' ) ) ) ) ' ' ' ' t 0.9.=+*+*+*+;+*+*+*+;+9.0.' ' ' ' ' ' ' ' ' ' v+v+v+' ) ) ) ) ' ' ' ' ' 0.9.w+w+w+w+w+w+w+w+w+w+u+",
"x+9.0.t % % % % % % % % % % t 0.9.1+*+*+=+-+=+*+-+=+9.0.! ! ! ! ! ! ! ! ! ' v+v+v+' ! ! ! ! ! ! ! ! ! 0.9.y+y+y+y+y+y+y+y+y+y+x+",
"z+9.A+t % % % % % % % % % % t A+9.=+*+*+*+*+*+*+*+-+9.A+! ! ! ! ! ! ! ! ! ' v+v+v+' ! ! ! ! ! ! ! ! ! A+9.B+B+B+B+B+B+B+B+B+B+z+",
"C+9.D+A+0.0.0.0.0.0.0.0.0.0.A+D+9.*+|+*+*+=+*+*+*+*+9.D+A+0.0.0.0.0.0.0.0.0.0.0.0.0.0.0.0.0.0.0.0.0.A+D+9.C+C+C+C+C+C+C+C+C+C+C+",
"E+9.9.9.9.9.9.9.9.9.9.9.9.9.9.9.9.*+;+*+-+*+=+=+*+*+9.9.9.9.9.9.9.9.9.9.9.9.9.9.9.9.9.9.9.9.9.9.9.9.9.9.9.E+E+E+E+E+E+E+E+E+E+E+"};
