/* XPM */
static char * scraper_a_xpm[] = {
"64 96 69 1",
" 	c None",
".	c #000000",
"+	c #000000",
"@	c #5D5F60",
"#	c #535555",
"$	c #4F5254",
"%	c #4D464F",
"&	c #625C64",
"*	c #525558",
"=	c #575959",
"-	c #5D5D5D",
";	c #747371",
">	c #424547",
",	c #555D52",
"'	c #47524B",
")	c #3D4942",
"!	c #2E3132",
"~	c #4D4D4D",
"{	c #3A5D6C",
"]	c #466B7A",
"^	c #353037",
"/	c #7F7681",
"(	c #505050",
"_	c #303632",
":	c #B34F4F",
"<	c #AD4949",
"[	c #A45353",
"}	c #964F4F",
"|	c #868674",
"1	c #AAAE96",
"2	c #6981B2",
"3	c #999A82",
"4	c #797565",
"5	c #444444",
"6	c #4F4F51",
"7	c #282828",
"8	c #526489",
"9	c #443E3F",
"0	c #5C645F",
"a	c #3A4750",
"b	c #59524B",
"c	c #C43C3C",
"d	c #898989",
"e	c #9F8683",
"f	c #BE9D9E",
"g	c #637799",
"h	c #7E8AA7",
"i	c #3F4742",
"j	c #917973",
"k	c #A54D4D",
"l	c #BD4646",
"m	c #974D4D",
"n	c #545454",
"o	c #877C95",
"p	c #A19AB9",
"q	c #787182",
"r	c #6C759A",
"s	c #978FAA",
"t	c #5D6B83",
"u	c #39404C",
"v	c #383F4B",
"w	c #6E6D6F",
"x	c #6E6951",
"y	c #646554",
"z	c #39404B",
"A	c #4A1D0F",
"B	c #373E4A",
"C	c #383F4A",
"D	c #383E4A",
"  +++++++++++++++++++++++++++++++++++++++++++++++               ",
"  +@##########$$$$$$$$$###########@%%%%%%%%%%%%&+               ",
"  +@**********=========***********@------------&+               ",
"  +@**********=========***********@;;;;--------&+               ",
"  +@**********===>>====***********@;;;;--------&+               ",
"  +@**********===>>====***********@,,,,--------&+               ",
"  +@**********===>>====***********@,,,,--------&+               ",
"  +@******************************@,,,,--------&+               ",
"  +@******************************@,,,,--------&+               ",
"  +@******************************@,,,,--------&+++++++++++++++ ",
"  +@@@@@@@@@@@@@@@@@@@@@@@@@@@@@@@@------------&''''''''''''''+ ",
"  +################################------------&))))))))))))))+ ",
"  +!!!!!!!!!!!!!!!!!!!!!!!!!!!!!!!!------------&~~~~~~~~~~~~~~+ ",
"  +!{]!]]{{!{{{{!{{{{!{{{{!]]]]!]]!&&&&&&&&&&&&&~~~~~~~~~~~~~~+ ",
"  +!{]!]]]{!{{{{!{{{{!{{{{!]]]]!]]!%%%%%%%%%%%%%~~~~~~~~~~~~~~+ ",
"  +!{{!]]]{!{{{{!{{{{!{{{{!]]]]!{]!{{^^{{{{{^^^^~~~~~~~~~~~~~~+ ",
"  +!{{!]]]]!{{]]!]]]{!{{{{!]]]]!{{!{{^^{{{{{^^^^~~~~~~~~~~~~~~+ ",
"  +!!!!!!!!!!!!!!!!!!!!!!!!!!!!!!!!{{^^{{{{{^^^^''''''''''''''+ ",
" ++!{{!]]]]!{{]]!]]]]!{{{{!]]]]!{{!{{^^{{{{{^^^^))))))))))))))+ ",
" +/!{{!{]]]!]{]]!]]]]!{{{{!]]]{!{{!{{^^{{{{{^^^^{{]]]]]{{{{{{(+ ",
" +&!{{!{{]]!]]]]!{]]]!{{{{!{{{{!{{!{{^^{{{{{^^^^{{{{]]]]]{{{{(+ ",
" +%!{{!{{]]!]]]]!{]]]!]{{{!{{{{!{{!]{^^{{{{{^^^^{{{{{]]]]]{{{(+ ",
" +-!!!!!!!!!!!!!!!!!!!!!!!!!!!!!!!!]]^^{{{{{^^^^_____________(+ ",
" +-!{{!{{{{!]]]]!{{{]!]]]{!{{{{!{{!]]^^{{{{{^^^^_____________(+ ",
":+-!{{!{{{{!]]]]!{{{{!]]]{!{{{{!{{!]]^^{{{{{^^^^]{{{{{{{{{]]](+<",
"[+-!{{!{{{{!]]]]!{{{{!]]]]!{]]]!]{!{]^^]{{{{^^^^]]{{{{{{{{{{](+}",
":+-!{{!{{{{!]]]]!{{{{!]]]]!{]]]!]]!{{^^]{{{{^^^^]]]{{{{{{{{{{(+<",
"[+-!!!!!!!!!!!!!!!!!!!!!!!!!!!!!!!!{{^^]]]{{^^^^_____________(+}",
":+-!{{!{{{{!{]]]!{{{{!{]]]!]]]]!]]!{{^^]]]]{^^^^_____________(+:",
"[+-!{{!{{{{!{{]]!{{{{!{{]]!]]]]!]]!{{^^{]]]]^^^^{{{]]]]{{{{{{(+[",
"|+-!]{!{{{{!{{{{!{{{{!{{{]!]]]]!]]!{{^^{{]]]^^^^{{{{]]]]]{{{{(+|",
"1+-!]]!{{{{!{{{{!{{{{!{{{]!]]]]!]]!{{^^{{{]]^^^^{{{{{{]]]]{{{(+2",
"1+-!!!!!!!!!!!!!!!!!!!!!!!!!!!!!!!!{{^^{{{{]^^^^_____________(+2",
"1+&!]]!{{{{!{{{{!{{{{!{{{{!]]]]!{]!{{^^{{{{{^^^^_____________(+1",
"1+%!]]!{{{{!{{{{!{{{{!{{{{!]]]]!{]!{{^^{{{{{^^^^{{{{{{{{{]]]](+1",
"3+^!]]!]{]]!]{{{!{{{{!{{{{!{]]]!{{!]{^^{{{{{^^^^{{{{{{{{{{]]](+3",
"4+^!]]!]]]]55566666666655555555555!]]^^55566666666655555555555+4",
"3+^!!!!!!!!57766666666677777777775!]]^^57766666666677777777775+8",
"|+^!{]!]]]]59900000000099999999995!{]^^59900000000099999999995+8",
"|+^!{{!]]]]59900000000099999999995!{{^^59900000000099999999995+|",
"4+^!{{!]]]]599000aa000099999999995!{{^^599000aa000099999999995+4",
"4+^!{{!]]]]599000aa000099999999995!{{^^599000aa000099999999995+4",
"b+^!!!!!!!!599000aa000099999999995!{{^^599000aa000099999999995+b",
"b+c!{{!{]]]59999999999999999999995!{{^^59999999999999999999995+d",
"ccc!{{!{{]]59999999999999999999995!{{^^59999999999999999999995+d",
"ccc!{{!{{{]59999999999999999999995!{{^^59999999999999999999995cc",
"ccc!{{!{{{{59999999999999999999995!]]^^59999999999999999999995cc",
"ccc!!!!!!!!59999999999999999999995!]]^^59999999999999999999995cc",
"ccc!{{!{{{{59999999999999999999995!]]^^59999999999999999999995cc",
"ccc!{{!{{{{59999999999966666666695!{{^^59999999999966666666695cc",
"ccc!{{!{{{{59999999999966666666695!{{^^59999999999966666666695cc",
"ccc!]{!{{{{59999999999900000000095!{{^^59999999999900000000095cc",
"ccc!!!!!!!!59999999999900000000095!{{^^59999999999900000000095cc",
"cce!]]!{{{{59999999999900000000095!{{^^59999999999900000000095cc",
"eef!]]!]{{{59999999999900000000095!{{^^59999999999900000000095cc",
"fff!]]!]{{{55555555555555555555555!]{^^55555555555555555555555ee",
"eee!]]!]]{]77777777777777777777777!]]^^77777777777777777777777ee",
"ggh!!!!!!!!iiiiiiiiiiiiiiiiiiiiiii!]]^^iiiiiiiiiiiiiiiiiiiiiiifh",
"hgg!{]!]]]]{{{{{{{{]]]]{{{{{{{{{{{!{]^^{{{{{{{{]]]]{{{{{{{{{{{fg",
"fff!{{!]]]]{{{{{{{{{]]]]{{{{{{{{{{!{{^^{{{{{{{{{]]]]{{{{{{{{{{ff",
"fff!{{!]]]]iiiiiiiiiiiiiiiiiiiiiii!{{^^iiiiiiiiiiiiiiiiiiiiiiiff",
"fff!{{!]]]]iiiiiiiiiiiiiiiiiiiiiii!{{^^iiiiiiiiiiiiiiiiiiiiiiiff",
"jjj!!!!!!!!iiiiiiiiiiiiiiiiiiiiiii!{{^^iiiiiiiiiiiiiiiiiiiiiiijj",
"eee!{{!{{]]]]]{{{{{{{{{{{{]]]]{{{{!{{^^]]]{{{{{{{{{{{{]]]]{{{{ee",
"kee!{{!{{{{]]]]{{{{{{{{{{{{]]]]{{{!{{^^]]]]{{{{{{{{{{{{]]]]{{{el",
"kkm!{{!{{{{iiiiiiiiiiiiiiiiiiiiiii!ddddiiiiiiiiiiiiiiiiiiiiiilll",
"mmkmm{!{{{{iiiiiiiiiiiiiiiiiiiiiii!ddddiiiiiiiiiiiiiiiiiiiilllll",
"kmkkmmk!!!!iiiiiiiiiiiiiiiiiiiiiii!dd{{iiiiiiiiiiiiiiiiiilllllll",
"kmkmkkmmm{{{{{{{]]]]{{{{{{{{{{{{{]!dd{{{{{{{]]]]{{{{{{{lllllllll",
"kkmmkmkmkmm{{{{{{]]]]{{{{{{{{{{{{{nndnn{{{{{{]]]]{{{{lllllllllkl",
"mmkkkmkkmmmmmiiiiiiiiiiiiiiiiiiiiinndnniiiiiiiiiiiilllllllllllll",
"kmmmkkkkmmkmmiiiiiiiiiiiiiiiiiiiiinndnniiiiiiiiiiiilllllllllllll",
"kkkmmmkmkkkkkiiiiiiiiiiiiiiiiiiiiinndnniiiiiiiiiiiilllllllllllll",
"kmkkmmmmmmmmk{{{{{{{{]]]]{{{{{{{{{nndnn{{{{{{{{{{]]lllllllllllll",
"okmmmmmmmmkmm{{{{{{{{{]]]]{{{{{{{{nndnn{{{{{{{{{{{]llllllllllllo",
"pookkkkmkmmmkiiiiiiiiiiiiiiiiiiiiinndnniiiiiiiiiiiilllllllllloop",
"pppookkkmmkkkiiiiiiiiiiiiiiiiiiiiinndnniiiiiiiiiiiillllllllooppp",
"pppppoommmmmmiiiiiiiiiiiiiiiiiiiiinndnniiiiiiiiiiiillllllooppppp",
"oooooooqqmkkk]{{{{{{{{{{{{{]]]]{{{nndnn]]]{{{{{{{{{llllqqooooooo",
"rrpprrrsrttmk]]{{{{{{{{{{{{{]]]]{{nnunn]]]]{{{{{{{{llttrprrrpprr",
"rrssrrrsrrroiiiiiiiiiiiiiiiiiiiiiinnunniiiiiiiiiiiiiorrrprrrpprr",
"ssssssssssssiiiiiiiiiiiiiiiiiiiiiinnvnniiiiiiiiiiiiissssssssssss",
"ssssssssssssiiiiiiiiiiiiiiiiiiiiiinnvnniiiiiiiiiiiiissssssssssss",
"qqqqqqqqqqqq{{{{]]]]]{{{{{{{{{{{{]nnunn{{{{{]]]]]{{{qqqqqqqqqqqq",
"ttootttotrtoqq{{{]]]]]{{{{{{{{{{{{nnunn{{{{{{]]]]]wwsttrstrtssrt",
"rtoorrtortrowwiiiiiiiiiiiiiiiiiiiinnunniiiiiiiiiiiwwotttotrtootr",
"oooooooooooowwiiiiiiiiiiiiiiiiiiiinnunniiiiiiiiiiiwwoooooooooooo",
"oooooooooooowwiiiiiiiiiiiiiiiiiiiinnunniiiiiiiiiiiwwoooooooooooo",
"wwwwwwwwwwwwww{{{{{{{{{]]]]]{{{{{{nnunn{{{{{{{{{{{wwwwwwwwwwwwww",
"qqqqtttqtttqww{{{{{{{xxx{]]]]{{{{{nnunn{{{{{{{{{{xyyqtttqtttqqqq",
"qqqqtttqtttqyyiiiiii{xxx{iiiiiiiiinnznniiiiiiiii{xyyqtttqtttqqqq",
"Aqqqqqqqqqqqyyiiiiii{xxx{iiiiiiiiinnunniiiiiiiii{xyyqqqqqqqqqqqA",
"AqqqqqqqqqqqyynnnnnnnnnnnnnnnnnnnnnnunnnnnnnnnnnnnyyqqqqqqqqqqqA",
"AqqqqqqqqqqqyynnnnnnnnnnnnnnnnnnnnnnBnnnnnnnnnnnnnyyqqqqqqqqqqqA",
"yyyyyyyyyyyyyyuuCuzuuvuuuuuzuuvuuuBuvuuuuvzuuuDuuuyyyyyyyyyyyyyy",
"yyyyyyyyyyyyyyuuuuCuBuvvuuuuuuuuuCuvvvCuuuvBvuuuuCyyyyyyyyyyyyyy"};
