/* XPM */
static char * scraper_a_xpm[] = {
"64 96 170 2",
"  	c None",
". 	c #000000",
"+ 	c #A59AA8",
"@ 	c #827585",
"# 	c #9B9B9B",
"$ 	c #A5A3A0",
"% 	c #798475",
"& 	c #A78973",
"* 	c #000000",
"= 	c #000000",
"- 	c #3A5D6C",
"; 	c #7A929C",
"> 	c #000000",
", 	c #C9C6B9",
"' 	c #A0A2A6",
") 	c #B5B19D",
"! 	c #A3ADB0",
"~ 	c #C1BB9F",
"{ 	c #819185",
"] 	c #000000",
"^ 	c #C84747",
"/ 	c #B63737",
"( 	c #BD3D3D",
"_ 	c #9D6262",
": 	c #7E4B4B",
"< 	c #8B5454",
"[ 	c #BF4D4D",
"} 	c #A83A3A",
"| 	c #A36666",
"1 	c #824E4E",
"2 	c #345360",
"3 	c #913030",
"4 	c #B94848",
"5 	c #2D4854",
"6 	c #2E3132",
"7 	c #603838",
"8 	c #9A5F5F",
"9 	c #798775",
"0 	c #273E48",
"a 	c #515A4E",
"b 	c #A1B49B",
"c 	c #3F5177",
"d 	c #5F7AB2",
"e 	c #A0B299",
"f 	c #516168",
"g 	c #53617D",
"h 	c #5E79B0",
"i 	c #8B9B85",
"j 	c #687463",
"k 	c #9CAE95",
"l 	c #768270",
"m 	c #657060",
"n 	c #98A890",
"o 	c #626C5B",
"p 	c #93A289",
"q 	c #474D42",
"r 	c #6A7463",
"s 	c #5A6252",
"t 	c #464F64",
"u 	c #50648D",
"v 	c #555D4D",
"w 	c #9C9C9C",
"x 	c #333F58",
"y 	c #64718C",
"z 	c #515747",
"A 	c #5C5C5C",
"B 	c #7A836B",
"C 	c #4D5343",
"D 	c #9F8C8C",
"E 	c #BACEC2",
"F 	c #747C64",
"G 	c #414537",
"H 	c #464A3B",
"I 	c #626852",
"J 	c #2B2925",
"K 	c #738DA8",
"L 	c #2F2B28",
"M 	c #413D38",
"N 	c #201D1B",
"O 	c #23211E",
"P 	c #302C28",
"Q 	c #822323",
"R 	c #131519",
"S 	c #1C2026",
"T 	c #862626",
"U 	c #8B2B2B",
"V 	c #BB3D3D",
"W 	c #C44444",
"X 	c #7F2020",
"Y 	c #892929",
"Z 	c #AD3232",
"` 	c #5B5B5B",
" .	c #B43737",
"..	c #872727",
"+.	c #B63939",
"@.	c #852525",
"#.	c #BF4040",
"$.	c #BA3C3C",
"%.	c #B83A3A",
"&.	c #C14242",
"*.	c #5A6961",
"=.	c #879E91",
"-.	c #778C81",
";.	c #7D92BD",
">.	c #515151",
",.	c #746876",
"'.	c #758A7E",
").	c #5E78AF",
"!.	c #474747",
"~.	c #A9A992",
"{.	c #655B67",
"].	c #73867B",
"^.	c #ACC9B8",
"/.	c #3D3D3D",
"(.	c #574E59",
"_.	c #6F8276",
":.	c #A7C3B1",
"<.	c #6C7D71",
"[.	c #A2BBA9",
"}.	c #4A554C",
"|.	c #758779",
"1.	c #4D584E",
"2.	c #849786",
"3.	c #39413A",
"4.	c #CC3D3D",
"5.	c #7F2B2B",
"6.	c #898989",
"7.	c #792525",
"8.	c #C43535",
"9.	c #693D3D",
"0.	c #262B33",
"a.	c #383F4B",
"b.	c #373E4A",
"c.	c #39404C",
"d.	c #663A3A",
"e.	c #252931",
"f.	c #832D2D",
"g.	c #D04141",
"h.	c #6F4141",
"i.	c #39404B",
"j.	c #772424",
"k.	c #C23333",
"l.	c #5B3333",
"m.	c #7B2727",
"n.	c #C73838",
"o.	c #802B2B",
"p.	c #878E9F",
"q.	c #5A5F6A",
"r.	c #B3BDD3",
"s.	c #252A32",
"t.	c #777D8C",
"u.	c #B2BCD2",
"v.	c #383E4A",
"w.	c #757B89",
"x.	c #B0B9CE",
"y.	c #575B66",
"z.	c #838999",
"A.	c #4F5C76",
"B.	c #5A73A7",
"C.	c #262B32",
"D.	c #3B4B6D",
"E.	c #7587AD",
"F.	c #6D717D",
"G.	c #A3AABC",
"H.	c #6A6A6A",
"I.	c #383F4A",
"J.	c #B5B5B5",
"K.	c #6E6951",
"L.	c #AEA89A",
"M.	c #7A7A7A",
"                                            + + + + + + + + + + + + + + + + + + + + + + + + + +                                 ",
"                                            + @ @ @ @ @ @ @ @ @ @ @ @ @ @ @ @ @ @ @ @ @ @ @ @ +                                 ",
"                                            + # # # # # # # # # # # # # # # # # # # # # # # # +                                 ",
"                                            + # # # # # # # $ $ $ $ $ $ $ $ $ # # # # # # # # +                                 ",
"                                            + # # # # # # # $ $ $ $ $ $ $ $ $ # # # # # # # # +                                 ",
"                                            + # # # # # # # % % % % % % % % % # # # # # # # # +                                 ",
"                                            + # # # # # # # % % % % % % % % % # # # # # # # # +                                 ",
"                                            + # # # # # # # % % % & & % % % % # # # # # # # # +                                 ",
"                                            + # # # # # # # % % % & & % % % % # # # # # # # # +                                 ",
"                                            + # # # # # # # % % % & & % % % % # # # # # # # # +                                 ",
"                                            + # # # # # # # # # # # # # # # # # # # # # # # # +                                 ",
"                                            + # # # # # # # # # # # # # # # # # # # # # # # # +                                 ",
"                                            + # # # # # # # # # # # # # # # # # # # # # # # # +                                 ",
"                                            + + + + + + + + + + + + + + + + + + + + + + + + + +                                 ",
"                                          * @ @ @ @ @ @ @ @ @ @ @ @ @ @ @ @ @ @ @ @ @ @ @ @ @ @ *                               ",
"                                          = @ @ @ - ; ; ; ; @ @ - - - - - @ @ - - - - - @ @ @ @ =                               ",
"                                          > @ @ @ - - ; ; ; @ @ - - - - - @ @ - - - - - @ @ @ @ >                               ",
"                                          > @ @ @ - - - ; ; , , , , , , , , , , , ' ' ' ' ' ' ' ' ' , , , , , , , , , , , ,     ",
"                                          > @ @ @ - - - - ; , ) ) ) ) ) ) ) ) ) ) ' ' ' ' ' ' ' ' ' ) ) ) ) ) ) ) ) ) ) ) ,     ",
"                                          > @ @ @ - - - - - , ! ! ! ! ! ! ! ! ! ! ~ ~ ~ ~ ~ ~ ~ ~ ~ ! ! ! ! ! ! ! ! ! ! ! ,     ",
"  + + + + + + + + + + + + + + + + + + + + + @ @ @ - - - - - , ! ! ! ! ! ! ! ! ! ! ~ ~ ~ ~ ~ ~ ~ ~ ~ ! ! ! ! ! ! ! ! ! ! ! ,     ",
"  + @ @ @ @ @ @ @ @ @ @ @ @ @ @ @ @ @ @ @ @ @ @ @ - - - - - , ! ! ! ! ! ! ! ! ! ! ~ ~ ~ { { ~ ~ ~ ~ ! ! ! ! ! ! ! ! ! ! ! ,     ",
"] + # # # # # # # # # # # # # # # # # # # # @ @ @ - - - - - , ! ! ! ! ! ! ! ! ! ! ~ ~ ~ { { ~ ~ ~ ~ ! ! ! ! ! ! ! ! ! ! ! , ] ] ",
"> + # # # # # # # # # # # # # # # # # # # # @ @ @ - - - - - , ! ! ! ! ! ! ! ! ! ! ~ ~ ~ { { ~ ~ ~ ~ ! ! ! ! ! ! ! ! ! ! ! , > > ",
"^ + # # # # # # # # # # # # # # # # # # # # @ @ @ - - - - - , ! ! ! ! ! ! ! ! ! ! ! ! ! ! ! ! ! ! ! ! ! ! ! ! ! ! ! ! ! ! , / ( ",
"_ + # # # # # # # # # # # # # # # # # # # # @ @ @ - - - - - , ! ! ! ! ! ! ! ! ! ! ! ! ! ! ! ! ! ! ! ! ! ! ! ! ! ! ! ! ! ! , : < ",
"[ + # # # # # # # # # # # # # # # # # # # # @ @ @ - - - - - , ! ! ! ! ! ! ! ! ! ! ! ! ! ! ! ! ! ! ! ! ! ! ! ! ! ! ! ! ! ! , [ } ",
"| + # # # # # # # # # # # # # # # # # # # # @ @ @ - - - - - , , , , , , , , , , , , , , , , , , , , , , , , , , , , , , , , | 1 ",
"[ + # # # # # # # # # # # # # # # # # # # # @ @ @ - - - - 2 ) ) ) ) ) ) ) ) ) ) ) ) ) ) ) ) ) ) ) ) ) ) ) ) ) ) ) ) ) ) ) ) 3 4 ",
"| + # # # # # # # # # # # # # # # # # # # # @ @ @ ; - - - 5 6 6 6 6 6 6 6 6 6 6 6 6 6 6 6 6 6 6 6 6 6 6 6 6 6 6 6 6 6 6 6 6 7 8 ",
"9 + # # # # # # # # # # # # # # # # # # # # @ @ @ ; ; ; - 0 6 - ; 6 ; ; - - 6 - - - - 6 - - - - 6 - - - - 6 ; ; ; ; 6 ; ; 6 a 9 ",
"b + # # # # # # # # # # # # # # # # # # # # @ @ @ ; ; ; ; 0 6 - ; 6 ; ; ; - 6 - - - - 6 - - - - 6 - - - - 6 ; ; ; ; 6 ; ; 6 c d ",
"e + # # # # # # # # # # # # # # # # # # # # @ @ @ - ; ; ; f 6 - - 6 ; ; ; - 6 - - - - 6 - - - - 6 - - - - 6 ; ; ; ; 6 - ; 6 g h ",
"i + + + + + + + + + + + + + + + + + + + + + @ @ @ - - ; ; f 6 - - 6 ; ; ; ; 6 - - ; ; 6 ; ; ; - 6 - - - - 6 ; ; ; ; 6 - - 6 j k ",
"l @ @ @ @ @ @ @ @ @ @ @ @ @ @ @ @ @ @ @ @ @ @ @ @ - - - - f 6 6 6 6 6 6 6 6 6 6 6 6 6 6 6 6 6 6 6 6 6 6 6 6 6 6 6 6 6 6 6 6 m n ",
"o @ @ @ ; ; - - - @ @ - - - - - @ @ - ; ; ; - @ @ - - - - 0 6 - - 6 ; ; ; ; 6 - - ; ; 6 ; ; ; ; 6 - - - - 6 ; ; ; ; 6 - - 6 o p ",
"q @ @ @ ; ; ; ; - @ @ - - - - - @ @ - - ; ; ; @ @ - - - - 0 6 - - 6 - ; ; ; 6 ; - ; ; 6 ; ; ; ; 6 - - - - 6 ; ; ; - 6 - - 6 q r ",
"s @ @ @ - ; ; ; ; @ @ - - - - - @ @ - - - ; ; @ @ - - - - 0 6 - - 6 - - ; ; 6 ; ; ; ; 6 - ; ; ; 6 - - - - 6 - - - - 6 - - 6 t u ",
"v w w w ' ' ' ' ' ' ' ' ' w w w w w w w w w w w @ ; - - - 0 6 - - 6 - - ; ; 6 ; ; ; ; 6 - ; ; ; 6 ; - - - 6 - - - - 6 - - 6 x y ",
"z w A A ' ' ' ' ' ' ' ' ' A A A A A A A A A A w @ ; ; - - 0 6 6 6 6 6 6 6 6 6 6 6 6 6 6 6 6 6 6 6 6 6 6 6 6 6 6 6 6 6 6 6 6 z B ",
"C w D D E E E E E E E E E D D D D D D D D D D w @ ; ; ; - 0 6 - - 6 - - - - 6 ; ; ; ; 6 - - - ; 6 ; ; ; - 6 - - - - 6 - - 6 C F ",
"G w D D E E E E E E E E E D D D D D D D D D D w @ ; ; ; ; 0 6 - - 6 - - - - 6 ; ; ; ; 6 - - - - 6 ; ; ; - 6 - - - - 6 - - 6 H I ",
"J w D D E E E K K E E E E D D D D D D D D D D w @ - ; ; ; f 6 - - 6 - - - - 6 ; ; ; ; 6 - - - - 6 ; ; ; ; 6 - ; ; ; 6 ; - 6 L M ",
"N w D D E E E K K E E E E D D D D D D D D D D w @ - - - ; f 6 - - 6 - - - - 6 ; ; ; ; 6 - - - - 6 ; ; ; ; 6 - ; ; ; 6 ; ; 6 O P ",
"Q w D D E E E K K E E E E D D D D D D D D D D w @ - - - - f 6 6 6 6 6 6 6 6 6 6 6 6 6 6 6 6 6 6 6 6 6 6 6 6 6 6 6 6 6 6 6 6 R S ",
"T w D D D D D D D D D D D D D D D D D D D D D w @ - - - - 0 6 - - 6 - - - - 6 - ; ; ; 6 - - - - 6 - ; ; ; 6 ; ; ; ; 6 ; ; 6 U V ",
"U w D D D D D D D D D D D D D D D D D D D D D w @ - - - - 0 6 - - 6 - - - - 6 - - ; ; 6 - - - - 6 - - ; ; 6 ; ; ; ; 6 ; ; 6 T W ",
"X w D D D D D D D D D D D D D D D D D D D D D w @ - - - - 0 6 ; - 6 - - - - 6 - - - - 6 - - - - 6 - - - ; 6 ; ; ; ; 6 ; ; 6 Y Z ",
"` w D D D D D D D D D D D D D D D D D D D D D w @ - - - - 0 6 ; ; 6 - - - - 6 - - - - 6 - - - - 6 - - - ; 6 ; ; ; ; 6 ; ; 6 Y  .",
"` w D D D D D D D D D D D D D D D D D D D D D w @ ; ; - - 0 6 6 6 6 6 6 6 6 6 6 6 6 6 6 6 6 6 6 6 6 6 6 6 6 6 6 6 6 6 6 6 6 ..+.",
"` w D D D D D D D D D D D D D D D D D D D D D w @ ; ; ; ; 0 6 ; ; 6 - - - - 6 - - - - 6 - - - - 6 - - - - 6 ; ; ; ; 6 - ; 6 @.#.",
"` w D D D D D D D D D D D ' ' ' ' ' ' ' ' ' D w @ - ; ; ; f 6 ; ; 6 - - - - 6 - - - - 6 - - - - 6 - - - - 6 ; ; ; ; 6 - ; 6 U $.",
"` w D D D D D D D D D D D ' ' ' ' ' ' ' ' ' D w @ - - ; ; f 6 ; ; 6 ; - ; ; 6 ; - - - 6 - - - - 6 - - - - 6 - ; ; ; 6 - - 6 Y %.",
"` w D D D D D D D D D D D E E E E E E E E E D w @ - - - ; f 6 ; ; 6 ; ; ; ; 6 ; ; - - 6 - - - - 6 - - - - 6 - - - - 6 - - 6 ..&.",
"` w D D D D D D D D D D D E E E E E E E E E D w @ - - - - 0 6 6 6 6 6 6 6 6 6 6 6 6 6 6 6 6 6 6 6 6 6 6 6 6 6 6 6 6 6 6 6 6 Y W ",
"` w D D D D D D D D D D D E E E E E E E E E D w @ - - - - 0 6 - ; 6 ; ; ; ; 6 ; ; ; ; 6 - - - - 6 - - - - 6 - - - - 6 - - 6 *.=.",
"` w D D D D D D D D D D D E E E E E E E E E D w @ - - - - 0 6 - - 6 ; ; ; ; 6 ; ; ; ; 6 ; - - - 6 - - - - 6 - - - - 6 - - 6 *.=.",
"` w w w w w w w w w w w w w w w w w w w w w w w @ - - - - 0 6 - - 6 ; ; ; ; 6 ; ; ; ; 6 ; ; - - 6 - - - - 6 - - - - 6 - - 6 -.;.",
">.A A A A A A A A A A A A A A A A A A A A A A A ,.- - - - 0 6 - - 6 ; ; ; ; 6 ; - ; ; 6 ; ; ; - 6 - - - - 6 - - - - 6 - - 6 '.).",
"!.~.~.~.~.~.~.~.~.~.~.~.~.~.~.~.~.~.~.~.~.~.~.~.{.- - - - 0 6 6 6 6 6 6 6 6 6 6 6 6 6 6 6 6 6 6 6 6 6 6 6 6 6 6 6 6 6 6 6 6 ].^.",
"/.- - - - - - - - ; ; ; ; - - - - - - - - - - - (.- - - - 0 6 - - 6 - ; ; ; 6 ; ; - - 6 ; ; ; ; 6 - - - - 6 - - - - 6 - - 6 _.:.",
"/.- - - - - - - - - ; ; ; ; - - - - - - - - - - (.- - - - 0 6 - - 6 - - ; ; 6 ; ; - - 6 ; ; ; ; 6 - - - ; 6 ; - - - 6 - - 6 <.[.",
"/.~.~.~.~.~.~.~.~.~.~.~.~.~.~.~.~.~.~.~.~.~.~.~.(.; ; - - 0 6 - - 6 - - - ; 6 ; ; - - 6 - ; ; ; 6 - - ; ; 6 ; ; - - 6 - - 6 }.|.",
"/.~.~.~.~.~.~.~.~.~.~.~.~.~.~.~.~.~.~.~.~.~.~.~.(.; ; ; - 0 6 - - 6 - - - - 6 - - - - 6 - ; ; ; 6 ; ; ; ; 6 ; ; - - 6 - - 6 1.2.",
"!.~.~.~.~.~.~.~.~.~.~.~.~.~.~.~.~.~.~.~.~.~.~.~.(.; ; ; ; f 6 6 6 6 6 6 6 6 6 6 6 6 6 6 6 6 6 6 6 6 6 6 6 6 6 6 6 6 6 6 6 6 3.4.",
">.; ; ; - - - - - - - - - - - - ; ; ; ; - - - - /.` ` ` ` /.6 - - 6 - - - - 6 - - - - 6 - - ; ; 6 ; ; ; ; 6 ; ; ; - 6 - - 6 5.4.",
"` ; ; ; ; - - - - - - - - - - - - ; ; ; ; - - - ` 6.6.6.6.` 6 - - 6 - - - - 6 - - - - 6 - - - ; 6 ; ; ; ; 6 ; ; ; - 6 - - 6 7.8.",
"9.~.~.~.~.~.~.~.~.~.~.~.~.~.~.~.~.~.~.~.~.~.~.~.0.a.b.c.c.0.6 - - 6 - - - - 6 - - - - 6 - - - - 6 ; ; ; ; 6 ; ; ; - 6 - - 6 5.4.",
"d.~.~.~.~.~.~.~.~.~.~.~.~.~.~.~.~.~.~.~.~.~.~.~.e.c.b.c.c.0.6 ; - 6 - - - - 6 - - - - 6 - - - - 6 ; ; ; ; 6 ; ; ; ; 6 - - 6 f.g.",
"h.~.~.~.~.~.~.~.~.~.~.~.~.~.~.~.~.~.~.~.~.~.~.~.0.i.c.b.c.e.6 6 6 6 6 6 6 6 6 6 6 6 6 6 6 6 6 6 6 6 6 6 6 6 6 6 6 6 6 6 6 6 j.k.",
"l.- - - - - ; ; ; ; - - - - - - - - - - - - - ; 0.c.c.a.a.e.6 ; ; 6 - - - - 6 - - - - 6 - - - - 6 - - - - 6 - ; ; ; 6 - - 6 f.g.",
"` - - - - - - ; ; ; ; - - - - - - - - - - - - - ` 6.a.c.a.0.6 ; ; 6 ; - - - 6 - - - - 6 - - - - 6 - - - - 6 - ; ; ; 6 ; - 6 m.n.",
"` ~.~.~.~.~.~.~.~.~.~.~.~.~.~.~.~.~.~.~.~.~.~.~.` 6.c.c.a.e.6 ; ; 6 ; - - - 6 - - - - 6 - - - - 6 - - - - 6 - - ; ; 6 ; ; 6 f.g.",
"` ~.~.~.~.~.~.~.~.~.~.~.~.~.~.~.~.~.~.~.~.~.~.~.` 6.b.c.a.0.6 ; ; 6 ; ; - ; 6 ; ; - - 6 - - - - 6 - - - - 6 - - ; ; 6 ; ; 6 f.g.",
"` ~.~.~.~.~.~.~.~.~.~.~.~.~.~.~.~.~.~.~.~.~.~.~.` 6.c.a.c.0.6 6 6 6 6 6 6 6 6 6 6 6 6 6 6 6 6 6 6 6 6 6 6 6 6 6 6 6 6 6 6 6 o.p.",
"` - - - - - - - - - - ; ; ; ; - - - - - - - - - ` 6.a.b.b.0.6 - ; 6 ; ; ; ; 6 ; ; ; - 6 - - - - 6 - - - - 6 - - - - 6 ; ; 6 q.r.",
"` - - - - - - - - - - - ; ; ; ; - - - - - - - - ` 6.a.c.a.s.6 - - 6 ; ; ; ; 6 ; ; ; - 6 - - - - 6 - - - - 6 - - - - 6 ; ; 6 t.u.",
"` ~.~.~.~.~.~.~.~.~.~.~.~.~.~.~.~.~.~.~.~.~.~.~.` 6.v.c.v.0.6 - - 6 ; ; ; ; 6 ; ; ; - 6 - - - - 6 - - - - 6 - - - - 6 ; ; 6 w.x.",
"` ~.~.~.~.~.~.~.~.~.~.~.~.~.~.~.~.~.~.~.~.~.~.~.` 6.c.c.a.s.6 - - 6 ; ; ; ; 6 ; ; ; ; 6 - - - - 6 - - - - 6 - - - - 6 - ; 6 y.z.",
"` ~.~.~.~.~.~.~.~.~.~.~.~.~.~.~.~.~.~.~.~.~.~.~.` 6.a.c.a.e.6 6 6 6 6 6 6 6 6 6 6 6 6 6 6 6 6 6 6 6 6 6 6 6 6 6 6 6 6 6 6 6 A.B.",
"` ; ; ; - - - - - - - - - - - - - ; ; ; ; - - - ` 6.a.c.c.C.6 - - 6 - - ; ; 6 - ; ; ; 6 - - - - 6 - - - - 6 - - - - 6 - - 6 D.E.",
"` ; ; ; ; - - - - - - - - - - - - - ; ; ; ; - - ` 6.c.i.c.e.6 - - 6 - - - - 6 - ; ; ; 6 ; - - - 6 - - - - 6 - - - - 6 - - 6 F.G.",
"` ~.~.~.~.~.~.~.~.~.~.~.~.~.~.~.~.~.~.~.~.~.~.~.` 6.c.c.6.H.6 - - 6 - - - - 6 - - ; ; 6 ; - ; ; 6 ; ; ; - 6 - - - - 6 - - 6 ` 6.",
"` ~.~.~.~.~.~.~.~.~.~.~.~.~.~.~.~.~.~.~.~.~.~.~.` 6.c.c.6.H.6 - - 6 - - - - 6 - - ; ; 6 ; ; ; ; 6 ; ; ; - 6 - - - - 6 - - 6 ` 6.",
"` ~.~.~.~.~.~.~.~.~.~.~.~.~.~.~.~.~.~.~.~.~.~.~.` 6.I.b.6.H.6 6 6 6 6 6 6 6 6 6 6 6 6 6 6 6 6 6 6 6 6 6 6 6 6 6 6 6 6 6 6 6 ` 6.",
"` - - - - - ; ; ; ; ; - - - - - - - - - - - - ; ` 6.c.c.6.` 6 - - 6 - - - - 6 - - - ; 6 ; ; ; ; 6 ; ; ; ; 6 - - - - 6 - - 6 ` 6.",
"` - - - - - - ; ; ; ; ; - - - - - - - - - - - - ` 6.c.c.6.` 6 - - 6 - - - - 6 - - - - 6 ; ; ; ; 6 ; ; ; ; 6 - - - - 6 - - 6 ` 6.",
"` ~.~.~.~.~.~.~.~.~.~.~.~.~.~.~.~.~.~.~.~.~.~.~.` 6.c.c.6.` 6 - - 6 - - - - 6 - - - - 6 ; ; ; - 6 - ; ; ; 6 ; - - - 6 - - 6 ` 6.",
"` ~.~.~.~.~.~.~.~.~.~.~.~.~.~.~.~.~.~.~.~.~.~.~.` 6.c.c.6.` 6 - - 6 - - - - 6 - - - - 6 - - - - 6 - - ; ; 6 ; ; - - 6 - - 6 ` 6.",
"` ~.~.~.~.~.~.~.~.~.~.~.~.~.~.~.~.~.~.~.~.~.~.~.` 6.I.i.6.` 6 6 6 6 6 6 6 6 6 6 6 6 6 6 6 6 6 6 6 6 6 6 6 6 6 6 6 6 6 6 6 6 ` 6.",
"` - - - - - - - - - - - - ; ; ; ; ; - - - - - - ` 6.c.c.6.` 6 - - - 6 - - - 6 - - - 6 - J.J.J.J.- 6 - - ; 6 ; ; ; 6 - - - 6 ` 6.",
"` - - - - - - - - - - K.K.K.- ; ; ; ; - - - - - ` 6.c.c.6.` 6 - - - 6 - - - 6 - - - 6 - J.L.L.J.- 6 - - - 6 ; ; ; 6 - - - 6 ` 6.",
"` ~.~.~.~.~.~.~.~.~.- K.K.K.- ~.~.~.~.~.~.~.~.~.` 6.c.c.6.` 6 - - - 6 - - - 6 - - - 6 - J.L.L.J.- 6 - - - 6 ; ; ; 6 ; - - 6 ` 6.",
"H.~.~.~.~.~.~.~.~.~.- K.K.K.- ~.~.~.~.~.~.~.~.~.H.6.c.b.6.H.6 - - - 6 - - - 6 - - - 6 - J.L.L.J.- 6 - - - 6 ; ; ; 6 ; ; - 6 H.6.",
"M.H.` ` ` ` ` ` ` ` ` ` ` ` ` ` ` ` ` ` ` ` ` H.M.6.c.i.6.M.H.` ` ` ` ` ` ` ` ` ` ` ` ` ` ` ` ` ` ` ` ` ` ` ` ` ` ` ` ` ` H.M.6.",
"6.6.6.6.6.6.6.6.6.6.6.6.6.6.6.6.6.6.6.6.6.6.6.6.6.6.c.c.6.6.6.6.6.6.6.6.6.6.6.6.6.6.6.6.6.6.6.6.6.6.6.6.6.6.6.6.6.6.6.6.6.6.6.6."};
