/* XPM */
static char * scraper_b_xpm[] = {
"64 96 64 1",
" 	c None",
".	c #000000",
"+	c #000000",
"@	c #444444",
"#	c #282828",
"$	c #4F4F51",
"%	c #443E3F",
"&	c #5C645F",
"*	c #3A4750",
"=	c #47524B",
"-	c #3D4942",
";	c #4D4D4D",
">	c #505050",
",	c #3A5D6C",
"'	c #466B7A",
")	c #303632",
"!	c #3F4742",
"~	c #B34F4F",
"{	c #AD4949",
"]	c #A45353",
"^	c #964F4F",
"/	c #625C64",
"(	c #4D464F",
"_	c #5D5D5D",
":	c #868674",
"<	c #747371",
"[	c #AAAE96",
"}	c #6981B2",
"|	c #555D52",
"1	c #545454",
"2	c #756051",
"3	c #999A82",
"4	c #797565",
"5	c #526489",
"6	c #898989",
"7	c #353037",
"8	c #59524B",
"9	c #C43C3C",
"0	c #854C4C",
"a	c #9D5D5D",
"b	c #39404C",
"c	c #9F8683",
"d	c #BE9D9E",
"e	c #6C726D",
"f	c #637799",
"g	c #7E8AA7",
"h	c #917973",
"i	c #A54D4D",
"j	c #BD4646",
"k	c #974D4D",
"l	c #877C95",
"m	c #A19AB9",
"n	c #787182",
"o	c #5D6B83",
"p	c #6C759A",
"q	c #978FAA",
"r	c #6E6D6F",
"s	c #646554",
"t	c #4A1D0F",
"u	c #383F4A",
"v	c #39404B",
"w	c #383F4B",
"x	c #373E4A",
"y	c #383E4A",
"                                     +++++++++++++++++++++++++  ",
"                                     +@##$$$$$$$$$##########@+  ",
"                                     +@%%&&&&&&&&&%%%%%%%%%%@+  ",
"                                     +@%%&&&&&&&&&%%%%%%%%%%@+  ",
"                                     +@%%&&&**&&&&%%%%%%%%%%@+  ",
"                                     +@%%&&&**&&&&%%%%%%%%%%@+  ",
"                                     +@%%&&&**&&&&%%%%%%%%%%@+  ",
"                                     +@%%%%%%%%%%%%%%%%%%%%%@+  ",
" ++++++++++++++++++++++++++++++++    +@%%%%%%%%%%%%%%%%%%%%%@+  ",
" +==============================+    +@%%%%%%%%%%%%%%%%%%%%%@+  ",
" +=----------------------------=+    +@%%%%%%%%%%%%%%%%%%%%%@+  ",
" +=;;;;;;;;;;;;;;;;;;;;;;;;;;;;=+    +@%%%%%%%%%%%%%%%%%%%%%@+  ",
" +=;;;;;;;;;;;;;;;;;;;;;;;;;;;;=+    +@%%%%%%%%%%%%%%%%%%%%%@+  ",
" +=;;;;;;;;;;;;;;;;;;;;;;;;;;;;=+    +@%%%%%%%%%%%$$$$$$$$$%@+  ",
" +=;;;;;;;;;;;;;;;;;;;;;;;;;;;;=+    +@%%%%%%%%%%%$$$$$$$$$%@+  ",
" +=;;;;;;;;;;;;;;;;;;;;;;;;;;;;=+    +@%%%%%%%%%%%&&&&&&&&&%@+  ",
" +=;;;;;;;;;;===================+    +@%%%%%%%%%%%&&&&&&&&&%@+  ",
" +=;;;;;;;;;;=------------------+    +@%%%%%%%%%%%&&&&&&&&&%@+  ",
" +=;;;;;;;;;;=>,,,,''''',,,,,,>>+    +@%%%%%%%%%%%&&&&&&&&&%@+  ",
" +=;;;;;;;;;;=>,,,,,,''''',,,,>>+    +@@@@@@@@@@@@@@@@@@@@@@@+  ",
" +=;;;;;;;;;;=>,,,,,,,''''',,,>>+    +#######################+  ",
" +=;;;;;;;;;;=>)))))))))))))))>>+    +!!!!!!!!!!!!!!!!!!!!!!!+  ",
" +=;;;;;;;;;;=>)))))))))))))))>>+    +,,,,,,,,'''',,,,,,,,,,,+  ",
" +=;;;;;;;;;;=>''',,,,,,,,,'''>>+    +,,,,,,,,,'''',,,,,,,,,,+  ",
"~+=;;;;;;;;;;=>'''',,,,,,,,,,'>>+    +!!!!!!!!!!!!!!!!!!!!!!!~{{",
"]+=;;;;;;;;;;=>,,''',,,,,,,,,,>>+    +!!!!!!!!!!!!!!!!!!!!!!!^^^",
"~+=;;;;;;;;;;=>)))))))))))))))>>++++++!!!!!!!!!!!!!!!!!!!!!!!{~{",
"]+=;;;;;;;;;;=>))))))))//////////////////////////,,,,'''',,,,^]^",
"~+=;;;;;;;;;;=>,,,,,'''/((((((((((((((((((((((((/,,,,,'''',,,~{~",
"]+=;;;;;;;;;;=>,,,,,,''/________________________/!!!!!!!!!!!!]^]",
":+=;;;;;;;;;;=>,,,,,,,,/_______<<<<<<<<<________/$@@@@@@@@@@@:::",
"[+=;;;;;;;;;;=>))))))))/_______<<<<<<<<<________/$##########@}}}",
"[+=;;;;;;;;;;=>))))))))/_______|||||||||________/&%%%%%%%%%%@}}}",
"[+=;;;;;;;;;;=>,,,,,,,,/_______|||||||||________/&%%%%%%%%%%@11[",
"[+=;;;;;;;;;;=>,,,,,,,,/_______|||22||||________/&%%%%%%%%%%@11[",
"3+=;;;;;;;;;;=>,,,,,,,,/_______|||22||||________/&%%%%%%%%%%@113",
"4+=;;;;;;;;;;=>))))))))/_______|||22||||________/&%%%%%%%%%%@114",
"3+=;;;;;;;;;;=>))))))))/________________________/%%%%%%%%%%%@115",
":+=;;;;;;;;;;=>'''',,,,/________________________/%%%%%%%%%%%@115",
":+============>,'''',,,/________________________/%%%%%%%%%%%@11:",
"4+------------>,,'''',,//////////////////////////%%%%%%%%%%%@114",
"4+>,,'''',,,,>>))))))))((((((((((((((((((((((((((%%%%%%%%%%%@114",
"6+>,,,'''',,,>>))))))))777,''''77,,,,,77,,,,,7777%%%%%%%%%%%@118",
"6+90,,,'''',,>>,,,,,,''777,,'''77,,,,,77,,,,,7777%$$$$$$$$$%@118",
"999aaa)))))))>>,,,,,,,,777,,,''77,,,,,77,,,,,7777%$$$$$$$$$%@11b",
"999aaaaa)))))>>',,,,,,,777,,,,'77',,,,77,,,,,7777%&&&&&&&&&%@199",
"999aa00aaa,''>>))))))))777,,,,,77'',,,77,,,,,7777%&&&&&&&&&%@999",
"99/////////////////////777,,,,,77'',,,77,,,,,7777%&&&&&&&&&%@999",
"99/((((((((((((((((((((777,,,,,77'''',77,,,,,7777%&&&&&&&&&%@999",
"99/____________________777,,,,,77,''''77,,,,,7777@@@@@@@@@@@@999",
"99/____________________777,,,,,77,,'''77,,,,,7777############999",
"99/____________________777,,,,,77,,,''77,,,,,7777!!!!!!!!!!!!999",
"99/____________________777,,,,,77,,,,'77',,,,7777',,,,,,,,,,,999",
"99/____________________777,,,,,77,,,,,77',,,,7777'',,,,,,,,,,999",
"cc/____________________777,,,,,77,,,,,77''',,7777!!!!!!!!!!!!999",
"dd/____________________777,,,,,77,,,,,77'''',7777!!!!!!!!!!!!9cc",
"cc/____________________777',,,,77,,,,,77,''''7777!!!!!!!!!!!!ecc",
"ff/____________________777''',,77,,,,,77,,'''7777,,,,'''',,,,ddg",
"gf/____________________777'''',77,,,,,77,,,''7777,,,,,'''',,,ddf",
"dd/____________________777,''''77,,,,,77,,,,'7777!!!!!!!!!!!!ddd",
"dd/////////////////////777,,'''77,,,,,77,,,,,7777!!!!!!!!!!!!ddd",
"dd(((((((((((((((((((((777,,,,'77'',,,77,,,,,7777!!!!!!!!!!!!ddd",
"hh777'',,,77,,,,,77,''',77,,,,,77'''',77,,,,,7777,,,,,,,,,,,'hhh",
"cc777'''',77,,,,,77,,'''77,,,,,77'''''77,,,,,7777,,,,,,,,,,,,11c",
"ic777,''''77,,,,,77,,,''77,,,,,77,,'''77',,,,7777!!!!!!!!!!!!11j",
"ii777,,'''77,,,,,77,,,,'77',,,,77,,,,'77''',,7777!!!!!!!!!!!!jjj",
"kk777,,,,'77',,,,77,,,,,77'',,,77,,,,,77'''''7777!!!!!!!!!!jjjjj",
"ik777,,,,,77'',,,77,,,,,77''',,77,,,,,77,''''7777''',,,,,jjjjjjj",
"ik777,,,,,77'''',77,,,,,77'''',77,,,,,77,,,,'7777'''',,jjjjjjjjj",
"ii777,,,,,77,''''77,,,,,77,''''77,,,,,77,,,,,7777!!!!jjjjjjjjjij",
"kk777,,,,,77,,'''77,,,,,77,,,''77,,,,,77,,,,,7777!!jjjjjjjjjjjjj",
"ik777,,,,,77,,,,'77'',,,77,,,,'77'',,,77,,,,,7777!!jjjjjjjjjjjjj",
"ii777,,,,,77,,,,,77''',,77,,,,,77''',,77,,,,,7777,,jjjjjjjjjjjjj",
"ik777,,,,,77,,,,,77'''',77,,,,,77'''''77,,,,,7777,,jjjjjjjjjjjjj",
"li777',,,,77,,,,,77,''''77,,,,,77,''''77,,,,,7777!!jjjjjjjjjjjjl",
"66777'',,,77,,,,,77,,,''77,,,,,77,,,''77,,,,,777766jjjjjjjjjjllm",
"66777''',,77,,,,,77,,,,,77'',,,77,,,,,77'',,,777766jjjjjjjjllmmm",
"66777,''''77,,,,,77,,,,,77'''',77,,,,,77''',,777766jjjjjjllmmmmm",
"66777,,'''77,,,,,77,,,,,77,''''77,,,,,77,''''777766jjjjnnlllllll",
"66777,,,,'77',,,,77,,,,,77,,'''77,,,,,77,,'''777766jjoopmpppmmpp",
"66777,,,,,77'',,,77,,,,,77,,,''77',,,,77,,,''777766!lpppmpppmmpp",
"66777,,,,,77'''',77,,,,,77,,,,,77''',,77,,,,,777766!qqqqqqqqqqqq",
"66777,,,,,77,''''77,,,,,77,,,,,77'''',77,,,,,777766'qqqqqqqqqqqq",
"66777,,,,,77,,'''77,,,,,77,,,,,77,''''77,,,,,777766,nnnnnnnnnnnn",
"66777,,,,,77,,,''77',,,,77,,,,,77,,,''77,,,,,777766rqoopqopoqqpo",
"66777'',,,77,,,,,77''',,77,,,,,77,,,,'77'',,,777766rlooolopollop",
"66777'''',77,,,,,77'''',77,,,,,77,,,,,77'''',777766rllllllllllll",
"66777,''''77,,,,,77,''''77,,,,,77,,,,,77,''''777766rllllllllllll",
"66777,,,''77',,,,77,,,''77,,,,,77,,,,,77,,,''777766rrrrrrrrrrrrr",
"66777,,,,'77''',,77,,,,'77'',,,77,,,,,77,,,,'777766snooonooonnnn",
"66777,,,,,77'''''77,,,,,77''',,77,,,,,77,,,,,777766snooonooonnnn",
"66777,,,,,77,''''77,,,,,77'''''77,,,,,77,,,,,777766snnnnnnnnnnnt",
"666666666666666666666666666666666666666666666666666snnnnnnnnnnnt",
"666666666666666666666666666666666666666666666666666snnnnnnnnnnnt",
"ssssssssssssssbbubvbbwbbbbbvbbwbbbxbwbbbbwvbbbybbbssssssssssssss",
"ssssssssssssssbbbbubxbwwbbbbbbbbbubwwwubbbwxwbbbbussssssssssssss"};
